%
M48
M72
T01C0.0236
T02C0.0320
T03C0.0354
T04C0.0394
T05C0.0400
T06C0.0440
T07C0.0512
T08C0.0520
T09C0.0630
T10C0.0650
T11C0.1102
T12C0.1260
T13C0.1300
%
T01
X10500Y23220
X27000Y29220
T02
X26000Y28720
X25250Y28220
X26000Y27720
X24000Y26220
X24000Y25220
X22500Y25220
X25250Y23220
X26000Y22720
X26000Y23720
X24000Y21220
X22500Y21220
X24000Y20220
X26000Y18720
X25250Y18220
X26000Y17720
X24000Y16220
X24000Y15220
X22000Y15220
X25250Y13220
X26000Y12720
X26000Y13720
X24000Y11220
X24000Y10220
X22000Y10220
X22000Y11220
X19500Y12720
X19500Y8720
X22000Y6220
X24000Y6220
X24000Y5220
X26000Y3720
X25250Y3220
X26000Y2720
X24000Y1220
X16000Y6220
X15000Y6220
X5450Y10220
X4050Y10220
X19500Y18720
X21000Y18720
X17500Y21220
X17500Y22720
X19500Y22720
X21000Y22720
X17500Y24220
X13500Y24220
X13500Y22720
X13500Y21220
X24000Y30220
X38500Y23720
X39500Y23720
X39500Y15720
X38500Y15720
X26000Y8720
X25250Y8220
X26000Y7720
X38500Y7720
X39500Y7720
T03
X41000Y7470
X42000Y7970
X41000Y8470
X42000Y6970
X42000Y14970
X41000Y15470
X42000Y15970
X41000Y16470
X42000Y22970
X41000Y23470
X42000Y23970
X41000Y24470
X8500Y23970
X7500Y24470
X7500Y23470
X8500Y22970
T04
X8000Y18720
X7000Y18720
X6000Y18720
X5000Y18720
X4000Y18720
X3000Y18720
X9000Y18720
X10000Y18720
X11000Y18720
X12000Y18720
X13000Y18720
X14000Y18720
X15000Y18720
X16000Y18720
X17000Y18720
X17000Y12720
X16000Y12720
X15000Y12720
X14000Y12720
X13000Y12720
X12000Y12720
X11000Y12720
X10000Y12720
X9000Y12720
X8000Y12720
X7000Y12720
X6000Y12720
X5000Y12720
X4000Y12720
X3000Y12720
X30000Y11720
X30000Y9720
X33000Y9720
X35000Y9720
X37000Y9720
X37000Y11720
X35000Y11720
X33000Y11720
X33000Y14720
X35000Y14720
X37000Y14720
X37000Y16720
X35000Y16720
X33000Y16720
X30000Y16720
X30000Y14720
X30000Y19720
X30000Y21720
X33000Y21720
X35000Y21720
X37000Y21720
X37000Y19720
X35000Y19720
X33000Y19720
X33000Y24720
X35000Y24720
X37000Y24720
X37000Y26720
X35000Y26720
X33000Y26720
X30000Y26720
X30000Y24720
X30000Y29720
X33000Y29720
X35000Y29720
X37000Y29720
X37000Y6720
X35000Y6720
X33000Y6720
X33000Y4720
X35000Y4720
X37000Y4720
X37000Y1720
X35000Y1720
X33000Y1720
X30000Y1720
X30000Y4720
X30000Y6720
T05
X20890Y7000
X19110Y7000
X19110Y4440
X20890Y4440
X20890Y14440
X19110Y14440
X19110Y17000
X20890Y17000
X20890Y24440
X19110Y24440
X19110Y27000
X20890Y27000
T06
X28000Y26220
X28000Y25220
X28000Y21220
X28000Y20220
X28000Y16220
X28000Y15220
X28000Y11220
X28000Y10220
X28000Y6220
X28000Y5220
X28000Y1220
X11500Y3220
X10500Y3220
X9500Y3220
X7500Y3220
X7500Y7220
X28000Y30220
T07
X16508Y2710
X14508Y2710
T08
X14500Y25720
X12500Y25720
X16500Y25720
T09
X6201Y26377
X6201Y21063
X43299Y21063
X43299Y18377
X43299Y13063
X43299Y10377
X43299Y5063
X43299Y26377
T10
X18000Y18720
X18000Y12720
X2000Y12720
X2000Y18720
T11
X3394Y6720
X4732Y4830
T12
X4250Y2220
X5854Y6720
X5000Y21720
X5000Y25720
X4250Y29220
X44500Y29220
X44500Y25720
X44500Y21720
X44500Y17720
X44500Y13720
X44500Y9720
X44500Y5720
X44500Y2220
T13
X10500Y9120
M30
