G75*
%MOIN*%
%OFA0B0*%
%FSLAX24Y24*%
%IPPOS*%
%LPD*%
%AMOC8*
5,1,8,0,0,1.08239X$1,22.5*
%
%ADD10C,0.0660*%
%ADD11OC8,0.0480*%
%ADD12C,0.0945*%
%ADD13C,0.0591*%
%ADD14C,0.0709*%
%ADD15C,0.0600*%
%ADD16OC8,0.0850*%
%ADD17C,0.0660*%
%ADD18R,0.0630X0.0709*%
%ADD19OC8,0.0630*%
%ADD20C,0.0630*%
%ADD21C,0.0787*%
%ADD22R,0.0591X0.0591*%
%ADD23C,0.1660*%
%ADD24C,0.1502*%
%ADD25C,0.0240*%
%ADD26C,0.0354*%
D10*
X007500Y003220D03*
X007500Y007220D03*
X028000Y006220D03*
X028000Y005220D03*
X028000Y001220D03*
X028000Y010220D03*
X028000Y011220D03*
X028000Y015220D03*
X028000Y016220D03*
X028000Y020220D03*
X028000Y021220D03*
X028000Y025220D03*
X028000Y026220D03*
X028000Y030220D03*
D11*
X026000Y028720D03*
X025250Y028220D03*
X026000Y027720D03*
X024000Y026220D03*
X024000Y025220D03*
X022500Y025220D03*
X025250Y023220D03*
X026000Y022720D03*
X026000Y023720D03*
X024000Y021220D03*
X022500Y021220D03*
X024000Y020220D03*
X026000Y018720D03*
X025250Y018220D03*
X026000Y017720D03*
X024000Y016220D03*
X024000Y015220D03*
X022000Y015220D03*
X025250Y013220D03*
X026000Y012720D03*
X026000Y013720D03*
X024000Y011220D03*
X024000Y010220D03*
X022000Y010220D03*
X022000Y011220D03*
X019500Y012720D03*
X019500Y008720D03*
X022000Y006220D03*
X024000Y006220D03*
X024000Y005220D03*
X026000Y003720D03*
X025250Y003220D03*
X026000Y002720D03*
X024000Y001220D03*
X026000Y007720D03*
X025250Y008220D03*
X026000Y008720D03*
X038500Y007720D03*
X039500Y007720D03*
X039500Y015720D03*
X038500Y015720D03*
X038500Y023720D03*
X039500Y023720D03*
X024000Y030220D03*
X017500Y024220D03*
X017500Y022720D03*
X017500Y021220D03*
X019500Y022720D03*
X021000Y022720D03*
X021000Y018720D03*
X019500Y018720D03*
X013500Y021220D03*
X013500Y022720D03*
X013500Y024220D03*
D12*
X006201Y026377D03*
X006201Y021063D03*
X043299Y021063D03*
X043299Y018377D03*
X043299Y013063D03*
X043299Y010377D03*
X043299Y005063D03*
X043299Y026377D03*
D13*
X041000Y024470D03*
X042000Y023970D03*
X041000Y023470D03*
X042000Y022970D03*
X041000Y016470D03*
X042000Y015970D03*
X041000Y015470D03*
X042000Y014970D03*
X041000Y008470D03*
X042000Y007970D03*
X041000Y007470D03*
X042000Y006970D03*
X017000Y012720D03*
X016000Y012720D03*
X015000Y012720D03*
X014000Y012720D03*
X013000Y012720D03*
X012000Y012720D03*
X011000Y012720D03*
X010000Y012720D03*
X009000Y012720D03*
X008000Y012720D03*
X007000Y012720D03*
X006000Y012720D03*
X005000Y012720D03*
X004000Y012720D03*
X003000Y012720D03*
X003000Y018720D03*
X004000Y018720D03*
X005000Y018720D03*
X006000Y018720D03*
X007000Y018720D03*
X008000Y018720D03*
X009000Y018720D03*
X010000Y018720D03*
X011000Y018720D03*
X012000Y018720D03*
X013000Y018720D03*
X014000Y018720D03*
X015000Y018720D03*
X016000Y018720D03*
X008500Y022970D03*
X007500Y023470D03*
X008500Y023970D03*
X007500Y024470D03*
D14*
X030000Y024720D03*
X030000Y026720D03*
X033000Y026720D03*
X035000Y026720D03*
X037000Y026720D03*
X037000Y024720D03*
X035000Y024720D03*
X033000Y024720D03*
X033000Y021720D03*
X035000Y021720D03*
X037000Y021720D03*
X037000Y019720D03*
X035000Y019720D03*
X033000Y019720D03*
X030000Y019720D03*
X030000Y021720D03*
X030000Y016720D03*
X030000Y014720D03*
X033000Y014720D03*
X035000Y014720D03*
X037000Y014720D03*
X037000Y016720D03*
X035000Y016720D03*
X033000Y016720D03*
X033000Y011720D03*
X035000Y011720D03*
X037000Y011720D03*
X037000Y009720D03*
X035000Y009720D03*
X033000Y009720D03*
X030000Y009720D03*
X030000Y011720D03*
X030000Y006720D03*
X030000Y004720D03*
X033000Y004720D03*
X035000Y004720D03*
X037000Y004720D03*
X037000Y006720D03*
X035000Y006720D03*
X033000Y006720D03*
X033000Y001720D03*
X035000Y001720D03*
X037000Y001720D03*
X030000Y001720D03*
X030000Y029720D03*
X033000Y029720D03*
X035000Y029720D03*
X037000Y029720D03*
D15*
X020890Y027300D02*
X020890Y026700D01*
X019110Y026700D02*
X019110Y027300D01*
X019110Y024740D02*
X019110Y024140D01*
X020890Y024140D02*
X020890Y024740D01*
X020890Y017300D02*
X020890Y016700D01*
X019110Y016700D02*
X019110Y017300D01*
X019110Y014740D02*
X019110Y014140D01*
X020890Y014140D02*
X020890Y014740D01*
X020890Y007300D02*
X020890Y006700D01*
X019110Y006700D02*
X019110Y007300D01*
X019110Y004740D02*
X019110Y004140D01*
X020890Y004140D02*
X020890Y004740D01*
D16*
X016500Y025720D03*
X014500Y025720D03*
X012500Y025720D03*
D17*
X011500Y003550D02*
X011500Y002890D01*
X010500Y002890D02*
X010500Y003550D01*
X009500Y003550D02*
X009500Y002890D01*
D18*
X014449Y010720D03*
X015551Y010720D03*
D19*
X016000Y006220D03*
X004050Y010220D03*
D20*
X005450Y010220D03*
X015000Y006220D03*
D21*
X014508Y002710D03*
X016508Y002710D03*
D22*
X017000Y018720D03*
D23*
X005854Y006720D03*
D24*
X003394Y006720D03*
X004732Y004830D03*
D25*
X002530Y006275D02*
X002530Y002933D01*
X002668Y003236D01*
X002668Y003236D01*
X003019Y003641D01*
X003019Y003641D01*
X003469Y003930D01*
X003469Y003930D01*
X003982Y004081D01*
X004114Y004081D01*
X004084Y004105D01*
X004007Y004182D01*
X003939Y004267D01*
X003881Y004360D01*
X003834Y004458D01*
X003798Y004561D01*
X003773Y004667D01*
X003768Y004710D01*
X004612Y004710D01*
X004612Y004950D01*
X003768Y004950D01*
X003773Y004993D01*
X003798Y005100D01*
X003834Y005202D01*
X003881Y005301D01*
X003939Y005393D01*
X004007Y005478D01*
X004084Y005556D01*
X004169Y005624D01*
X004262Y005682D01*
X004360Y005729D01*
X004463Y005765D01*
X004569Y005789D01*
X004612Y005794D01*
X004612Y004950D01*
X004852Y004950D01*
X004852Y005794D01*
X004895Y005789D01*
X005002Y005765D01*
X005105Y005729D01*
X005203Y005682D01*
X005295Y005624D01*
X005380Y005556D01*
X005458Y005478D01*
X005526Y005393D01*
X005584Y005301D01*
X005631Y005202D01*
X005667Y005100D01*
X005691Y004993D01*
X005696Y004950D01*
X004852Y004950D01*
X004852Y004710D01*
X005696Y004710D01*
X005691Y004667D01*
X005667Y004561D01*
X005631Y004458D01*
X005584Y004360D01*
X005526Y004267D01*
X005458Y004182D01*
X005380Y004105D01*
X005295Y004037D01*
X005203Y003979D01*
X005105Y003932D01*
X005055Y003914D01*
X005481Y003641D01*
X005481Y003641D01*
X005832Y003236D01*
X005832Y003236D01*
X006054Y002750D01*
X006054Y002750D01*
X006130Y002220D01*
X006054Y001690D01*
X006054Y001690D01*
X005832Y001204D01*
X005832Y001204D01*
X005481Y000799D01*
X005481Y000799D01*
X005031Y000510D01*
X005031Y000510D01*
X004997Y000500D01*
X043753Y000500D01*
X043719Y000510D01*
X043719Y000510D01*
X043269Y000799D01*
X043269Y000799D01*
X042918Y001204D01*
X042918Y001204D01*
X042696Y001690D01*
X042696Y001690D01*
X042620Y002220D01*
X042620Y002220D01*
X042696Y002750D01*
X042696Y002750D01*
X042918Y003236D01*
X042918Y003236D01*
X043269Y003641D01*
X043269Y003641D01*
X043719Y003930D01*
X044232Y004081D01*
X044768Y004081D01*
X045281Y003930D01*
X045731Y003641D01*
X045731Y003641D01*
X046082Y003236D01*
X046082Y003236D01*
X046212Y002950D01*
X046212Y028490D01*
X046082Y028204D01*
X046082Y028204D01*
X045731Y027799D01*
X045731Y027799D01*
X045731Y027799D01*
X045281Y027510D01*
X045281Y027510D01*
X044768Y027359D01*
X044232Y027359D01*
X043719Y027510D01*
X043719Y027510D01*
X043269Y027799D01*
X043269Y027799D01*
X042918Y028204D01*
X042918Y028204D01*
X042696Y028690D01*
X042696Y028690D01*
X042620Y029220D01*
X042620Y029220D01*
X042696Y029750D01*
X042696Y029750D01*
X042918Y030236D01*
X042918Y030236D01*
X043269Y030641D01*
X043269Y030641D01*
X043532Y030810D01*
X028169Y030810D01*
X028346Y030737D01*
X028517Y030566D01*
X028610Y030341D01*
X028610Y030099D01*
X028517Y029874D01*
X028346Y029703D01*
X028121Y029610D01*
X027879Y029610D01*
X027654Y029703D01*
X027483Y029874D01*
X027390Y030099D01*
X027390Y030341D01*
X027483Y030566D01*
X027654Y030737D01*
X027831Y030810D01*
X005218Y030810D01*
X005481Y030641D01*
X005481Y030641D01*
X005832Y030236D01*
X005832Y030236D01*
X006054Y029750D01*
X006054Y029750D01*
X006130Y029220D01*
X006054Y028690D01*
X006054Y028690D01*
X005832Y028204D01*
X005832Y028204D01*
X005481Y027799D01*
X005481Y027799D01*
X005031Y027510D01*
X004518Y027359D01*
X003982Y027359D01*
X003469Y027510D01*
X003469Y027510D01*
X003019Y027799D01*
X003019Y027799D01*
X002668Y028204D01*
X002668Y028204D01*
X002530Y028507D01*
X002530Y019064D01*
X002674Y019208D01*
X002886Y019295D01*
X003114Y019295D01*
X003326Y019208D01*
X003488Y019046D01*
X003500Y019016D01*
X003512Y019046D01*
X003674Y019208D01*
X003886Y019295D01*
X004114Y019295D01*
X004326Y019208D01*
X004488Y019046D01*
X004500Y019016D01*
X004512Y019046D01*
X004674Y019208D01*
X004886Y019295D01*
X005114Y019295D01*
X005326Y019208D01*
X005488Y019046D01*
X005500Y019016D01*
X005512Y019046D01*
X005674Y019208D01*
X005886Y019295D01*
X006114Y019295D01*
X006326Y019208D01*
X006488Y019046D01*
X006500Y019016D01*
X006512Y019046D01*
X006674Y019208D01*
X006886Y019295D01*
X007114Y019295D01*
X007326Y019208D01*
X007488Y019046D01*
X007500Y019016D01*
X007512Y019046D01*
X007674Y019208D01*
X007886Y019295D01*
X008114Y019295D01*
X008326Y019208D01*
X008488Y019046D01*
X008500Y019016D01*
X008512Y019046D01*
X008674Y019208D01*
X008886Y019295D01*
X009114Y019295D01*
X009326Y019208D01*
X009488Y019046D01*
X009500Y019016D01*
X009512Y019046D01*
X009674Y019208D01*
X009886Y019295D01*
X010114Y019295D01*
X010326Y019208D01*
X010488Y019046D01*
X010500Y019016D01*
X010512Y019046D01*
X010600Y019134D01*
X010600Y021800D01*
X010661Y021947D01*
X012980Y024266D01*
X012980Y024435D01*
X013099Y024555D01*
X012639Y025015D01*
X012208Y025015D01*
X011795Y025428D01*
X011795Y026012D01*
X012208Y026425D01*
X012792Y026425D01*
X013205Y026012D01*
X013205Y025581D01*
X013839Y024947D01*
X013900Y024800D01*
X013900Y024555D01*
X014020Y024435D01*
X014020Y024005D01*
X013715Y023700D01*
X013546Y023700D01*
X011400Y021554D01*
X011400Y019134D01*
X011488Y019046D01*
X011500Y019016D01*
X011512Y019046D01*
X011600Y019134D01*
X011600Y021300D01*
X011661Y021447D01*
X012980Y022766D01*
X012980Y022935D01*
X013285Y023240D01*
X013454Y023240D01*
X014100Y023886D01*
X014100Y025123D01*
X013795Y025428D01*
X013795Y026012D01*
X014208Y026425D01*
X014792Y026425D01*
X015205Y026012D01*
X015205Y025428D01*
X014900Y025123D01*
X014900Y023640D01*
X014839Y023493D01*
X014020Y022674D01*
X014020Y022505D01*
X013715Y022200D01*
X013546Y022200D01*
X012400Y021054D01*
X012400Y019134D01*
X012488Y019046D01*
X012500Y019016D01*
X012512Y019046D01*
X012600Y019134D01*
X012600Y020800D01*
X012661Y020947D01*
X012980Y021266D01*
X012980Y021435D01*
X013285Y021740D01*
X013454Y021740D01*
X016100Y024386D01*
X016100Y025123D01*
X015795Y025428D01*
X015795Y026012D01*
X016208Y026425D01*
X016792Y026425D01*
X017097Y026120D01*
X023480Y026120D01*
X023480Y026435D01*
X023785Y026740D01*
X024215Y026740D01*
X024520Y026435D01*
X024520Y026005D01*
X024400Y025885D01*
X024400Y025555D01*
X024520Y025435D01*
X024520Y025005D01*
X024215Y024700D01*
X023785Y024700D01*
X023480Y025005D01*
X023480Y025320D01*
X023020Y025320D01*
X023020Y025005D01*
X022715Y024700D01*
X022285Y024700D01*
X021980Y025005D01*
X021980Y025320D01*
X017097Y025320D01*
X016900Y025123D01*
X016900Y024140D01*
X016839Y023993D01*
X014020Y021174D01*
X014020Y021005D01*
X013715Y020700D01*
X013546Y020700D01*
X013400Y020554D01*
X013400Y019134D01*
X013488Y019046D01*
X013533Y018938D01*
X013559Y018990D01*
X013607Y019056D01*
X013664Y019113D01*
X013730Y019161D01*
X013802Y019198D01*
X013879Y019223D01*
X013959Y019235D01*
X014000Y019235D01*
X014000Y018720D01*
X014000Y019220D01*
X016000Y021220D01*
X017500Y021220D01*
X017500Y022720D01*
X017500Y024220D01*
X017720Y024440D01*
X019110Y024440D01*
X019110Y024440D01*
X019110Y025260D01*
X019151Y025260D01*
X019232Y025247D01*
X019310Y025222D01*
X019383Y025185D01*
X019449Y025137D01*
X019507Y025079D01*
X019555Y025013D01*
X019592Y024940D01*
X019617Y024862D01*
X019630Y024781D01*
X019630Y024440D01*
X019110Y024440D01*
X019110Y024440D01*
X019110Y024440D01*
X018590Y024440D01*
X018590Y024781D01*
X018603Y024862D01*
X018628Y024940D01*
X018665Y025013D01*
X018713Y025079D01*
X018771Y025137D01*
X018837Y025185D01*
X018910Y025222D01*
X018988Y025247D01*
X019069Y025260D01*
X019110Y025260D01*
X019110Y024440D01*
X019630Y024440D01*
X019630Y024099D01*
X019617Y024018D01*
X019592Y023940D01*
X019555Y023867D01*
X019507Y023801D01*
X019449Y023743D01*
X019383Y023695D01*
X019310Y023658D01*
X019232Y023633D01*
X019151Y023620D01*
X019110Y023620D01*
X019110Y024440D01*
X019110Y024440D01*
X018590Y024440D01*
X018590Y024099D01*
X018603Y024018D01*
X018628Y023940D01*
X018665Y023867D01*
X018713Y023801D01*
X018771Y023743D01*
X018837Y023695D01*
X018910Y023658D01*
X018988Y023633D01*
X019069Y023620D01*
X019110Y023620D01*
X019110Y024440D01*
X019110Y024395D02*
X019110Y024395D01*
X019110Y024633D02*
X019110Y024633D01*
X019110Y024872D02*
X019110Y024872D01*
X019110Y025110D02*
X019110Y025110D01*
X019475Y025110D02*
X020440Y025110D01*
X020398Y025069D02*
X020310Y024855D01*
X020310Y024096D01*
X019454Y023240D01*
X019285Y023240D01*
X018980Y022935D01*
X018980Y022766D01*
X018411Y022197D01*
X018350Y022050D01*
X018350Y019226D01*
X018343Y019233D01*
X018120Y019325D01*
X017880Y019325D01*
X017657Y019233D01*
X017552Y019127D01*
X017533Y019174D01*
X017454Y019253D01*
X017351Y019295D01*
X016649Y019295D01*
X016546Y019253D01*
X016467Y019174D01*
X016436Y019098D01*
X016326Y019208D01*
X016114Y019295D01*
X015886Y019295D01*
X015674Y019208D01*
X015512Y019046D01*
X015500Y019016D01*
X015488Y019046D01*
X015326Y019208D01*
X015114Y019295D01*
X014886Y019295D01*
X014674Y019208D01*
X014512Y019046D01*
X014467Y018938D01*
X014441Y018990D01*
X014393Y019056D01*
X014336Y019113D01*
X014270Y019161D01*
X014198Y019198D01*
X014121Y019223D01*
X014041Y019235D01*
X014000Y019235D01*
X014000Y018720D01*
X014000Y018720D01*
X014000Y018205D01*
X014041Y018205D01*
X014121Y018217D01*
X014198Y018242D01*
X014270Y018279D01*
X014336Y018327D01*
X014393Y018384D01*
X014441Y018450D01*
X014467Y018502D01*
X014512Y018394D01*
X014674Y018232D01*
X014886Y018145D01*
X015114Y018145D01*
X015326Y018232D01*
X015488Y018394D01*
X015500Y018424D01*
X015512Y018394D01*
X015674Y018232D01*
X015886Y018145D01*
X016114Y018145D01*
X016326Y018232D01*
X016436Y018342D01*
X016467Y018266D01*
X016546Y018187D01*
X016649Y018145D01*
X017351Y018145D01*
X017454Y018187D01*
X017533Y018266D01*
X017552Y018313D01*
X017657Y018207D01*
X017880Y018115D01*
X018120Y018115D01*
X018343Y018207D01*
X018350Y018214D01*
X018350Y018136D01*
X016834Y016620D01*
X007920Y016620D01*
X007773Y016559D01*
X007661Y016447D01*
X005661Y014447D01*
X005600Y014300D01*
X005600Y013134D01*
X005512Y013046D01*
X005500Y013016D01*
X005488Y013046D01*
X005326Y013208D01*
X005114Y013295D01*
X004886Y013295D01*
X004674Y013208D01*
X004512Y013046D01*
X004500Y013016D01*
X004488Y013046D01*
X004326Y013208D01*
X004114Y013295D01*
X003886Y013295D01*
X003674Y013208D01*
X003512Y013046D01*
X003500Y013016D01*
X003488Y013046D01*
X003326Y013208D01*
X003114Y013295D01*
X002886Y013295D01*
X002674Y013208D01*
X002530Y013064D01*
X002530Y018376D01*
X002674Y018232D01*
X002886Y018145D01*
X003114Y018145D01*
X003326Y018232D01*
X003488Y018394D01*
X003500Y018424D01*
X003512Y018394D01*
X003674Y018232D01*
X003886Y018145D01*
X004114Y018145D01*
X004326Y018232D01*
X004488Y018394D01*
X004500Y018424D01*
X004512Y018394D01*
X004674Y018232D01*
X004886Y018145D01*
X005114Y018145D01*
X005326Y018232D01*
X005488Y018394D01*
X005500Y018424D01*
X005512Y018394D01*
X005674Y018232D01*
X005886Y018145D01*
X006114Y018145D01*
X006326Y018232D01*
X006488Y018394D01*
X006500Y018424D01*
X006512Y018394D01*
X006674Y018232D01*
X006886Y018145D01*
X007114Y018145D01*
X007326Y018232D01*
X007488Y018394D01*
X007500Y018424D01*
X007512Y018394D01*
X007674Y018232D01*
X007886Y018145D01*
X008114Y018145D01*
X008326Y018232D01*
X008488Y018394D01*
X008500Y018424D01*
X008512Y018394D01*
X008674Y018232D01*
X008886Y018145D01*
X009114Y018145D01*
X009326Y018232D01*
X009488Y018394D01*
X009500Y018424D01*
X009512Y018394D01*
X009674Y018232D01*
X009886Y018145D01*
X010114Y018145D01*
X010326Y018232D01*
X010488Y018394D01*
X010500Y018424D01*
X010512Y018394D01*
X010674Y018232D01*
X010886Y018145D01*
X011114Y018145D01*
X011326Y018232D01*
X011488Y018394D01*
X011500Y018424D01*
X011512Y018394D01*
X011674Y018232D01*
X011886Y018145D01*
X012114Y018145D01*
X012326Y018232D01*
X012488Y018394D01*
X012500Y018424D01*
X012512Y018394D01*
X012674Y018232D01*
X012886Y018145D01*
X013114Y018145D01*
X013326Y018232D01*
X013488Y018394D01*
X013533Y018502D01*
X013559Y018450D01*
X013607Y018384D01*
X013664Y018327D01*
X013730Y018279D01*
X013802Y018242D01*
X013879Y018217D01*
X013959Y018205D01*
X014000Y018205D01*
X014000Y018720D01*
X014000Y018720D01*
X014000Y018671D02*
X014000Y018671D01*
X014000Y018909D02*
X014000Y018909D01*
X014000Y019148D02*
X014000Y019148D01*
X013712Y019148D02*
X013400Y019148D01*
X013400Y019386D02*
X018350Y019386D01*
X018350Y019625D02*
X013400Y019625D01*
X013400Y019863D02*
X018350Y019863D01*
X018350Y020102D02*
X013400Y020102D01*
X013400Y020340D02*
X018350Y020340D01*
X018350Y020579D02*
X013424Y020579D01*
X013000Y020720D02*
X013500Y021220D01*
X016500Y024220D01*
X016500Y025720D01*
X024000Y025720D01*
X024000Y026220D01*
X024414Y026541D02*
X027473Y026541D01*
X027483Y026566D02*
X027390Y026341D01*
X027390Y026099D01*
X027483Y025874D01*
X027637Y025720D01*
X027483Y025566D01*
X027390Y025341D01*
X027390Y025099D01*
X027483Y024874D01*
X027654Y024703D01*
X027879Y024610D01*
X028121Y024610D01*
X028346Y024703D01*
X028517Y024874D01*
X028600Y025075D01*
X028600Y021886D01*
X028398Y021684D01*
X028346Y021737D01*
X028121Y021830D01*
X027879Y021830D01*
X027654Y021737D01*
X027483Y021566D01*
X027390Y021341D01*
X027390Y021099D01*
X027483Y020874D01*
X027637Y020720D01*
X027483Y020566D01*
X027390Y020341D01*
X027390Y020099D01*
X027483Y019874D01*
X027654Y019703D01*
X027879Y019610D01*
X028121Y019610D01*
X028346Y019703D01*
X028517Y019874D01*
X028600Y020075D01*
X028600Y016886D01*
X028398Y016684D01*
X028346Y016737D01*
X028121Y016830D01*
X027879Y016830D01*
X027654Y016737D01*
X027483Y016566D01*
X027390Y016341D01*
X027390Y016099D01*
X027483Y015874D01*
X027637Y015720D01*
X027483Y015566D01*
X027390Y015341D01*
X027390Y015099D01*
X027483Y014874D01*
X027654Y014703D01*
X027879Y014610D01*
X028121Y014610D01*
X028346Y014703D01*
X028517Y014874D01*
X028600Y015075D01*
X028600Y011886D01*
X028398Y011684D01*
X028346Y011737D01*
X028121Y011830D01*
X027879Y011830D01*
X027654Y011737D01*
X027483Y011566D01*
X027390Y011341D01*
X027390Y011099D01*
X027483Y010874D01*
X027637Y010720D01*
X027483Y010566D01*
X027390Y010341D01*
X027390Y010099D01*
X027483Y009874D01*
X027654Y009703D01*
X027879Y009610D01*
X028121Y009610D01*
X028346Y009703D01*
X028517Y009874D01*
X028600Y010075D01*
X028600Y006886D01*
X028398Y006684D01*
X028346Y006737D01*
X028121Y006830D01*
X027879Y006830D01*
X027654Y006737D01*
X027483Y006566D01*
X027390Y006341D01*
X027390Y006099D01*
X027483Y005874D01*
X027637Y005720D01*
X027483Y005566D01*
X027390Y005341D01*
X027390Y005099D01*
X027483Y004874D01*
X027654Y004703D01*
X027879Y004610D01*
X028121Y004610D01*
X028346Y004703D01*
X028517Y004874D01*
X028600Y005075D01*
X028600Y001886D01*
X028398Y001684D01*
X028346Y001737D01*
X028451Y001737D01*
X028346Y001737D02*
X028121Y001830D01*
X027879Y001830D01*
X027654Y001737D01*
X025583Y001737D01*
X025589Y001743D02*
X025650Y001890D01*
X025650Y002335D01*
X025785Y002200D01*
X026215Y002200D01*
X026520Y002505D01*
X026520Y002935D01*
X026215Y003240D01*
X025785Y003240D01*
X025770Y003225D01*
X025770Y003299D01*
X025809Y003260D01*
X026000Y003260D01*
X026191Y003260D01*
X026460Y003529D01*
X026460Y003720D01*
X026460Y003911D01*
X026191Y004180D01*
X026000Y004180D01*
X026000Y003720D01*
X027000Y004720D01*
X027000Y007720D01*
X026000Y008720D01*
X027000Y009720D01*
X027000Y012720D01*
X026000Y013720D01*
X027000Y014720D01*
X027000Y017720D01*
X026000Y018720D01*
X027000Y019720D01*
X027000Y022720D01*
X026000Y023720D01*
X027000Y024720D01*
X027000Y027720D01*
X026000Y028720D01*
X026000Y028720D01*
X026000Y029180D01*
X026191Y029180D01*
X026460Y028911D01*
X026460Y028720D01*
X026000Y028720D01*
X026000Y028720D01*
X026000Y029180D01*
X025809Y029180D01*
X025650Y029021D01*
X025650Y029550D01*
X025589Y029697D01*
X025477Y029809D01*
X024727Y030559D01*
X024580Y030620D01*
X024335Y030620D01*
X024215Y030740D01*
X023785Y030740D01*
X023480Y030435D01*
X023480Y030005D01*
X023785Y029700D01*
X024215Y029700D01*
X024335Y029819D01*
X024850Y029304D01*
X024850Y028555D01*
X024730Y028435D01*
X024730Y028005D01*
X025035Y027700D01*
X025465Y027700D01*
X025480Y027715D01*
X025480Y027505D01*
X025785Y027200D01*
X026215Y027200D01*
X026520Y027505D01*
X026520Y027935D01*
X026215Y028240D01*
X025785Y028240D01*
X025770Y028225D01*
X025770Y028299D01*
X025809Y028260D01*
X026000Y028260D01*
X026191Y028260D01*
X026460Y028529D01*
X026460Y028720D01*
X026000Y028720D01*
X026000Y028260D01*
X026000Y028720D01*
X026000Y028720D01*
X026000Y028688D02*
X026000Y028688D01*
X026000Y028926D02*
X026000Y028926D01*
X026000Y029165D02*
X026000Y029165D01*
X026206Y029165D02*
X026543Y029165D01*
X026543Y029129D02*
X026612Y028961D01*
X026741Y028832D01*
X026879Y028775D01*
X027661Y027993D01*
X027773Y027881D01*
X027920Y027820D01*
X030334Y027820D01*
X031100Y027054D01*
X031100Y026140D01*
X031161Y025993D01*
X031273Y025881D01*
X032366Y024789D01*
X032366Y024651D01*
X030411Y022697D01*
X030350Y022550D01*
X030350Y022262D01*
X030126Y022354D01*
X029874Y022354D01*
X029641Y022258D01*
X029462Y022079D01*
X029400Y021929D01*
X029400Y024511D01*
X029462Y024361D01*
X029641Y024182D01*
X029874Y024086D01*
X030126Y024086D01*
X030359Y024182D01*
X030538Y024361D01*
X030634Y024594D01*
X030634Y024846D01*
X030538Y025079D01*
X030359Y025258D01*
X030126Y025354D01*
X029874Y025354D01*
X029641Y025258D01*
X029462Y025079D01*
X029400Y024929D01*
X029400Y025800D01*
X029339Y025947D01*
X029227Y026059D01*
X028727Y026559D01*
X028580Y026620D01*
X028463Y026620D01*
X028346Y026737D01*
X028121Y026830D01*
X027879Y026830D01*
X027654Y026737D01*
X027483Y026566D01*
X027390Y026303D02*
X024520Y026303D01*
X024520Y026064D02*
X027404Y026064D01*
X027532Y025826D02*
X024400Y025826D01*
X024400Y025587D02*
X027504Y025587D01*
X027393Y025349D02*
X024520Y025349D01*
X024520Y025110D02*
X027390Y025110D01*
X027486Y024872D02*
X024387Y024872D01*
X024000Y025220D02*
X024000Y025720D01*
X023480Y026303D02*
X021313Y026303D01*
X021382Y026371D02*
X021470Y026585D01*
X021470Y027415D01*
X021382Y027629D01*
X021219Y027792D01*
X021005Y027880D01*
X020775Y027880D01*
X020561Y027792D01*
X020398Y027629D01*
X020310Y027415D01*
X020310Y026585D01*
X020398Y026371D01*
X020561Y026208D01*
X020775Y026120D01*
X021005Y026120D01*
X021219Y026208D01*
X021382Y026371D01*
X021452Y026541D02*
X023586Y026541D01*
X025001Y027734D02*
X021277Y027734D01*
X021437Y027495D02*
X025490Y027495D01*
X025728Y027257D02*
X021470Y027257D01*
X021470Y027018D02*
X029437Y027018D01*
X029462Y027079D02*
X029366Y026846D01*
X029366Y026594D01*
X029462Y026361D01*
X029641Y026182D01*
X029874Y026086D01*
X030126Y026086D01*
X030359Y026182D01*
X030538Y026361D01*
X030634Y026594D01*
X030634Y026846D01*
X030538Y027079D01*
X030359Y027258D01*
X030126Y027354D01*
X029874Y027354D01*
X029641Y027258D01*
X029462Y027079D01*
X029639Y027257D02*
X026272Y027257D01*
X026510Y027495D02*
X030659Y027495D01*
X030421Y027734D02*
X026520Y027734D01*
X026483Y027972D02*
X027682Y027972D01*
X027661Y027993D02*
X027661Y027993D01*
X027444Y028211D02*
X026245Y028211D01*
X026380Y028449D02*
X027205Y028449D01*
X026967Y028688D02*
X026460Y028688D01*
X026444Y028926D02*
X026647Y028926D01*
X026543Y029129D02*
X026543Y029311D01*
X026612Y029479D01*
X026741Y029608D01*
X026909Y029677D01*
X027091Y029677D01*
X027259Y029608D01*
X027388Y029479D01*
X027445Y029341D01*
X028166Y028620D01*
X030580Y028620D01*
X030727Y028559D01*
X031727Y027559D01*
X031839Y027447D01*
X031900Y027300D01*
X031900Y026386D01*
X032931Y025354D01*
X033126Y025354D01*
X033350Y025262D01*
X033350Y025804D01*
X033069Y026086D01*
X032874Y026086D01*
X032641Y026182D01*
X032462Y026361D01*
X032366Y026594D01*
X032366Y026846D01*
X032462Y027079D01*
X032641Y027258D01*
X032874Y027354D01*
X033126Y027354D01*
X033359Y027258D01*
X033538Y027079D01*
X033634Y026846D01*
X033634Y026651D01*
X033850Y026436D01*
X033850Y028304D01*
X033069Y029086D01*
X032874Y029086D01*
X032641Y029182D01*
X032462Y029361D01*
X032366Y029594D01*
X032366Y029846D01*
X032462Y030079D01*
X032641Y030258D01*
X032874Y030354D01*
X033126Y030354D01*
X033359Y030258D01*
X033538Y030079D01*
X033634Y029846D01*
X033634Y029651D01*
X034589Y028697D01*
X034650Y028550D01*
X034650Y027262D01*
X034874Y027354D01*
X035126Y027354D01*
X035359Y027258D01*
X035538Y027079D01*
X035634Y026846D01*
X035634Y026594D01*
X035538Y026361D01*
X035359Y026182D01*
X035126Y026086D01*
X034874Y026086D01*
X034650Y026178D01*
X034650Y025262D01*
X034874Y025354D01*
X035126Y025354D01*
X035359Y025258D01*
X035538Y025079D01*
X035634Y024846D01*
X035634Y024594D01*
X035538Y024361D01*
X035359Y024182D01*
X035126Y024086D01*
X034874Y024086D01*
X034650Y024178D01*
X034650Y023890D01*
X034589Y023743D01*
X034477Y023631D01*
X033178Y022333D01*
X033359Y022258D01*
X033538Y022079D01*
X033634Y021846D01*
X033634Y021651D01*
X034339Y020947D01*
X034400Y020800D01*
X034400Y019929D01*
X034462Y020079D01*
X034641Y020258D01*
X034874Y020354D01*
X035126Y020354D01*
X035359Y020258D01*
X035538Y020079D01*
X035634Y019846D01*
X035634Y019594D01*
X035538Y019361D01*
X035359Y019182D01*
X035178Y019107D01*
X036089Y018197D01*
X036150Y018050D01*
X036150Y013890D01*
X036089Y013743D01*
X035977Y013631D01*
X034066Y011720D01*
X034339Y011447D01*
X034400Y011300D01*
X034400Y009929D01*
X034462Y010079D01*
X034641Y010258D01*
X034874Y010354D01*
X035126Y010354D01*
X035359Y010258D01*
X035538Y010079D01*
X035634Y009846D01*
X036366Y009846D01*
X036366Y009594D01*
X036462Y009361D01*
X036641Y009182D01*
X036874Y009086D01*
X037126Y009086D01*
X037359Y009182D01*
X037538Y009361D01*
X037634Y009594D01*
X037634Y009846D01*
X039100Y009846D01*
X039100Y009608D02*
X037634Y009608D01*
X037634Y009846D02*
X037538Y010079D01*
X037359Y010258D01*
X037126Y010354D01*
X036874Y010354D01*
X036641Y010258D01*
X036462Y010079D01*
X036366Y009846D01*
X036366Y009608D02*
X035634Y009608D01*
X035634Y009594D02*
X035634Y009846D01*
X035634Y009594D02*
X035538Y009361D01*
X035359Y009182D01*
X035126Y009086D01*
X034874Y009086D01*
X034641Y009182D01*
X034462Y009361D01*
X034400Y009511D01*
X034400Y006929D01*
X034462Y007079D01*
X034641Y007258D01*
X034874Y007354D01*
X035126Y007354D01*
X035359Y007258D01*
X035538Y007079D01*
X035634Y006846D01*
X035634Y006594D01*
X035538Y006361D01*
X035359Y006182D01*
X035126Y006086D01*
X034874Y006086D01*
X034641Y006182D01*
X034462Y006361D01*
X034400Y006511D01*
X034400Y004929D01*
X034462Y005079D01*
X034641Y005258D01*
X034874Y005354D01*
X035126Y005354D01*
X035359Y005258D01*
X035538Y005079D01*
X035634Y004846D01*
X035634Y004594D01*
X035538Y004361D01*
X035359Y004182D01*
X035126Y004086D01*
X034874Y004086D01*
X034641Y004182D01*
X034462Y004361D01*
X034400Y004511D01*
X034400Y002140D01*
X034339Y001993D01*
X034227Y001881D01*
X033727Y001381D01*
X033700Y001370D01*
X034458Y001370D01*
X034366Y001594D01*
X034366Y001846D01*
X034462Y002079D01*
X034641Y002258D01*
X034874Y002354D01*
X035126Y002354D01*
X035359Y002258D01*
X035538Y002079D01*
X035634Y001846D01*
X035634Y001594D01*
X035542Y001370D01*
X036458Y001370D01*
X036366Y001594D01*
X036366Y001846D01*
X036462Y002079D01*
X036641Y002258D01*
X036874Y002354D01*
X037126Y002354D01*
X037359Y002258D01*
X037538Y002079D01*
X037634Y001846D01*
X037634Y001594D01*
X037542Y001370D01*
X037584Y001370D01*
X039100Y002886D01*
X039100Y007385D01*
X039000Y007485D01*
X038715Y007200D01*
X038285Y007200D01*
X037980Y007505D01*
X037980Y007935D01*
X038285Y008240D01*
X038715Y008240D01*
X039000Y007955D01*
X039100Y008055D01*
X039100Y015385D01*
X039000Y015485D01*
X038715Y015200D01*
X038285Y015200D01*
X037980Y015505D01*
X037980Y015935D01*
X038285Y016240D01*
X038715Y016240D01*
X039000Y015955D01*
X039100Y016055D01*
X039100Y023385D01*
X039000Y023485D01*
X038715Y023200D01*
X038285Y023200D01*
X037980Y023505D01*
X037980Y023935D01*
X038285Y024240D01*
X038715Y024240D01*
X039000Y023955D01*
X039285Y024240D01*
X039715Y024240D01*
X040020Y023935D01*
X040020Y023505D01*
X039900Y023385D01*
X039900Y016055D01*
X040020Y015935D01*
X040020Y015505D01*
X039900Y015385D01*
X039900Y008055D01*
X040020Y007935D01*
X040020Y007505D01*
X039900Y007385D01*
X039900Y002640D01*
X039839Y002493D01*
X038089Y000743D01*
X037977Y000631D01*
X037830Y000570D01*
X028670Y000570D01*
X028523Y000631D01*
X028398Y000756D01*
X028346Y000703D01*
X028121Y000610D01*
X027879Y000610D01*
X027654Y000703D01*
X027483Y000874D01*
X027390Y001099D01*
X027390Y001341D01*
X027483Y001566D01*
X027654Y001737D01*
X027455Y001499D02*
X025344Y001499D01*
X025477Y001631D02*
X025589Y001743D01*
X025477Y001631D02*
X024727Y000881D01*
X024580Y000820D01*
X024335Y000820D01*
X024215Y000700D01*
X023785Y000700D01*
X023480Y001005D01*
X023480Y001435D01*
X023785Y001740D01*
X024215Y001740D01*
X024335Y001621D01*
X024850Y002136D01*
X024850Y002885D01*
X024730Y003005D01*
X024730Y003435D01*
X025035Y003740D01*
X025465Y003740D01*
X025540Y003665D01*
X025540Y003720D01*
X026000Y003720D01*
X026000Y003720D01*
X026460Y003720D01*
X026000Y003720D01*
X026000Y003720D01*
X026000Y003720D01*
X026000Y004180D01*
X025809Y004180D01*
X025540Y003911D01*
X025540Y003720D01*
X026000Y003720D01*
X026000Y003260D01*
X026000Y003720D01*
X026000Y003720D01*
X026000Y003645D02*
X026000Y003645D01*
X026000Y003407D02*
X026000Y003407D01*
X026337Y003407D02*
X028600Y003407D01*
X028600Y003645D02*
X026460Y003645D01*
X026460Y003884D02*
X028600Y003884D01*
X028600Y004122D02*
X026249Y004122D01*
X026000Y004122D02*
X026000Y004122D01*
X026000Y003884D02*
X026000Y003884D01*
X025751Y004122D02*
X021470Y004122D01*
X021470Y004025D02*
X021470Y004855D01*
X021382Y005069D01*
X021219Y005232D01*
X021005Y005320D01*
X020775Y005320D01*
X020561Y005232D01*
X020398Y005069D01*
X020310Y004855D01*
X020310Y004025D01*
X020398Y003811D01*
X020561Y003648D01*
X020775Y003560D01*
X021005Y003560D01*
X021219Y003648D01*
X021382Y003811D01*
X021470Y004025D01*
X021412Y003884D02*
X025540Y003884D01*
X024940Y003645D02*
X021211Y003645D01*
X020569Y003645D02*
X019431Y003645D01*
X019439Y003648D02*
X019602Y003811D01*
X019690Y004025D01*
X019690Y004855D01*
X019602Y005069D01*
X019439Y005232D01*
X019225Y005320D01*
X018995Y005320D01*
X018781Y005232D01*
X018618Y005069D01*
X018530Y004855D01*
X018530Y004025D01*
X018618Y003811D01*
X018781Y003648D01*
X018995Y003560D01*
X019225Y003560D01*
X019439Y003648D01*
X019632Y003884D02*
X020368Y003884D01*
X020310Y004122D02*
X019690Y004122D01*
X019690Y004361D02*
X020310Y004361D01*
X020310Y004599D02*
X019690Y004599D01*
X019690Y004838D02*
X020310Y004838D01*
X020406Y005076D02*
X019594Y005076D01*
X019239Y005315D02*
X020761Y005315D01*
X021019Y005315D02*
X023480Y005315D01*
X023480Y005435D02*
X023480Y005005D01*
X023785Y004700D01*
X024215Y004700D01*
X024520Y005005D01*
X024520Y005435D01*
X024400Y005555D01*
X024400Y005885D01*
X024520Y006005D01*
X024520Y006435D01*
X024215Y006740D01*
X023785Y006740D01*
X023480Y006435D01*
X023480Y006005D01*
X023600Y005885D01*
X023600Y005555D01*
X023480Y005435D01*
X023598Y005553D02*
X014908Y005553D01*
X014908Y005563D02*
X014971Y005625D01*
X015118Y005625D01*
X015337Y005716D01*
X015504Y005883D01*
X015527Y005937D01*
X015778Y005685D01*
X016000Y005685D01*
X016222Y005685D01*
X016535Y005998D01*
X016535Y006220D01*
X016535Y006442D01*
X016222Y006755D01*
X016000Y006755D01*
X016000Y006220D01*
X016508Y005712D01*
X016508Y002710D01*
X016500Y002702D02*
X015895Y002702D01*
X015895Y002662D01*
X015910Y002566D01*
X015940Y002475D01*
X015983Y002389D01*
X016040Y002310D01*
X016109Y002242D01*
X016187Y002185D01*
X016273Y002141D01*
X016365Y002112D01*
X016460Y002096D01*
X016500Y002096D01*
X016500Y002702D01*
X016500Y002718D01*
X015895Y002718D01*
X015895Y002758D01*
X015910Y002854D01*
X015940Y002946D01*
X015983Y003032D01*
X016040Y003110D01*
X016109Y003178D01*
X016187Y003235D01*
X016273Y003279D01*
X016365Y003309D01*
X016460Y003324D01*
X016500Y003324D01*
X016500Y002718D01*
X016516Y002718D01*
X016516Y003324D01*
X016557Y003324D01*
X016652Y003309D01*
X016744Y003279D01*
X016830Y003235D01*
X016908Y003178D01*
X016976Y003110D01*
X017033Y003032D01*
X017077Y002946D01*
X017107Y002854D01*
X017122Y002758D01*
X017122Y002718D01*
X016516Y002718D01*
X016516Y002702D01*
X016516Y002096D01*
X016557Y002096D01*
X016652Y002112D01*
X016744Y002141D01*
X016830Y002185D01*
X016908Y002242D01*
X016976Y002310D01*
X017033Y002389D01*
X017077Y002475D01*
X017107Y002566D01*
X017122Y002662D01*
X017122Y002702D01*
X016516Y002702D01*
X016500Y002702D01*
X016500Y002691D02*
X016516Y002691D01*
X016500Y002453D02*
X016516Y002453D01*
X016500Y002214D02*
X016516Y002214D01*
X016870Y002214D02*
X024850Y002214D01*
X024850Y002453D02*
X017066Y002453D01*
X017122Y002691D02*
X024850Y002691D01*
X024805Y002930D02*
X017082Y002930D01*
X016918Y003168D02*
X024730Y003168D01*
X024730Y003407D02*
X014908Y003407D01*
X014908Y003263D02*
X014908Y005563D01*
X014908Y005315D02*
X018981Y005315D01*
X018626Y005076D02*
X014908Y005076D01*
X014908Y004838D02*
X018530Y004838D01*
X018530Y004599D02*
X014908Y004599D01*
X014908Y004361D02*
X018530Y004361D01*
X018530Y004122D02*
X014908Y004122D01*
X014908Y003884D02*
X018588Y003884D01*
X018789Y003645D02*
X014908Y003645D01*
X014908Y003263D02*
X015079Y003092D01*
X015182Y002844D01*
X015182Y002576D01*
X015079Y002329D01*
X014890Y002139D01*
X014642Y002036D01*
X014374Y002036D01*
X014127Y002139D01*
X013937Y002329D01*
X013835Y002576D01*
X013835Y002844D01*
X013937Y003092D01*
X014108Y003263D01*
X014108Y005808D01*
X014169Y005955D01*
X014405Y006191D01*
X014405Y006338D01*
X014496Y006557D01*
X014600Y006661D01*
X014600Y007554D01*
X014110Y008045D01*
X014049Y008192D01*
X014049Y010098D01*
X013975Y010128D01*
X013896Y010207D01*
X013854Y010310D01*
X013854Y010800D01*
X005605Y010800D01*
X005568Y010815D02*
X005332Y010815D01*
X005113Y010724D01*
X004946Y010557D01*
X004855Y010338D01*
X004855Y010102D01*
X004946Y009883D01*
X005113Y009716D01*
X005332Y009625D01*
X005568Y009625D01*
X005787Y009716D01*
X005891Y009820D01*
X006334Y009820D01*
X009100Y007054D01*
X009100Y004013D01*
X008983Y003896D01*
X008890Y003671D01*
X008890Y002769D01*
X008983Y002544D01*
X009154Y002373D01*
X009379Y002280D01*
X009621Y002280D01*
X009846Y002373D01*
X010017Y002544D01*
X010037Y002592D01*
X010080Y002532D01*
X010142Y002470D01*
X010212Y002420D01*
X010289Y002380D01*
X010371Y002354D01*
X010457Y002340D01*
X010500Y002340D01*
X010543Y002340D01*
X010629Y002354D01*
X010711Y002380D01*
X010788Y002420D01*
X010858Y002470D01*
X010920Y002532D01*
X010963Y002592D01*
X010983Y002544D01*
X011154Y002373D01*
X011379Y002280D01*
X011621Y002280D01*
X011846Y002373D01*
X012017Y002544D01*
X012110Y002769D01*
X012110Y003671D01*
X012017Y003896D01*
X011846Y004067D01*
X011621Y004160D01*
X011379Y004160D01*
X011154Y004067D01*
X010983Y003896D01*
X010963Y003848D01*
X010920Y003908D01*
X010858Y003970D01*
X010788Y004020D01*
X010711Y004060D01*
X010629Y004086D01*
X010543Y004100D01*
X010500Y004100D01*
X010500Y003220D01*
X010500Y003220D01*
X010500Y004100D01*
X010457Y004100D01*
X010371Y004086D01*
X010289Y004060D01*
X010212Y004020D01*
X010142Y003970D01*
X010080Y003908D01*
X010037Y003848D01*
X010017Y003896D01*
X009900Y004013D01*
X009900Y007300D01*
X009839Y007447D01*
X009727Y007559D01*
X006839Y010447D01*
X006727Y010559D01*
X006580Y010620D01*
X005891Y010620D01*
X005787Y010724D01*
X005568Y010815D01*
X005295Y010800D02*
X002530Y010800D01*
X002530Y010562D02*
X003635Y010562D01*
X003515Y010442D02*
X003515Y010220D01*
X004050Y010220D01*
X004585Y010220D01*
X004585Y010442D01*
X004272Y010755D01*
X004050Y010755D01*
X004050Y010220D01*
X004050Y010220D01*
X004050Y010220D01*
X004585Y010220D01*
X004585Y009998D01*
X004272Y009685D01*
X004050Y009685D01*
X004050Y010220D01*
X004050Y010220D01*
X004050Y010220D01*
X004050Y010755D01*
X003828Y010755D01*
X003515Y010442D01*
X003515Y010323D02*
X002530Y010323D01*
X002530Y010085D02*
X003515Y010085D01*
X003515Y009998D02*
X003828Y009685D01*
X004050Y009685D01*
X004050Y010220D01*
X003515Y010220D01*
X003515Y009998D01*
X003667Y009846D02*
X002530Y009846D01*
X002530Y009608D02*
X006547Y009608D01*
X006785Y009369D02*
X002530Y009369D01*
X002530Y009131D02*
X007024Y009131D01*
X007262Y008892D02*
X002530Y008892D01*
X002530Y008654D02*
X007501Y008654D01*
X007739Y008415D02*
X002530Y008415D01*
X002530Y008177D02*
X007978Y008177D01*
X008216Y007938D02*
X002530Y007938D01*
X002530Y007700D02*
X005331Y007700D01*
X005426Y007754D02*
X005173Y007608D01*
X004966Y007402D01*
X004820Y007148D01*
X004744Y006866D01*
X004744Y006574D01*
X004820Y006292D01*
X004966Y006038D01*
X005173Y005832D01*
X005426Y005686D01*
X005708Y005610D01*
X006000Y005610D01*
X006283Y005686D01*
X006536Y005832D01*
X006742Y006038D01*
X006889Y006292D01*
X006964Y006574D01*
X006964Y006866D01*
X006924Y007017D01*
X006983Y006874D01*
X007154Y006703D01*
X007379Y006610D01*
X007621Y006610D01*
X007846Y006703D01*
X008017Y006874D01*
X008110Y007099D01*
X008110Y007341D01*
X008017Y007566D01*
X007846Y007737D01*
X007621Y007830D01*
X007379Y007830D01*
X007154Y007737D01*
X006983Y007566D01*
X006890Y007341D01*
X006890Y007143D01*
X006889Y007148D01*
X006742Y007402D01*
X006536Y007608D01*
X006283Y007754D01*
X006000Y007830D01*
X005708Y007830D01*
X005426Y007754D01*
X005026Y007461D02*
X004022Y007461D01*
X004042Y007445D02*
X003957Y007513D01*
X003864Y007571D01*
X003766Y007619D01*
X003663Y007655D01*
X003557Y007679D01*
X003514Y007684D01*
X003514Y006840D01*
X004358Y006840D01*
X004353Y006883D01*
X004328Y006989D01*
X004292Y007092D01*
X004245Y007191D01*
X004187Y007283D01*
X004119Y007368D01*
X004042Y007445D01*
X004225Y007223D02*
X004863Y007223D01*
X004776Y006984D02*
X004330Y006984D01*
X004358Y006600D02*
X003514Y006600D01*
X003514Y006840D01*
X003274Y006840D01*
X003274Y007684D01*
X003231Y007679D01*
X003124Y007655D01*
X003021Y007619D01*
X002923Y007571D01*
X002831Y007513D01*
X002746Y007445D01*
X002668Y007368D01*
X002600Y007283D01*
X002542Y007191D01*
X002530Y007165D01*
X002530Y012376D01*
X002674Y012232D01*
X002886Y012145D01*
X003114Y012145D01*
X003326Y012232D01*
X003488Y012394D01*
X003500Y012424D01*
X003512Y012394D01*
X003674Y012232D01*
X003886Y012145D01*
X004114Y012145D01*
X004326Y012232D01*
X004488Y012394D01*
X004500Y012424D01*
X004512Y012394D01*
X004674Y012232D01*
X004886Y012145D01*
X005114Y012145D01*
X005326Y012232D01*
X005488Y012394D01*
X005500Y012424D01*
X005512Y012394D01*
X005674Y012232D01*
X005886Y012145D01*
X006114Y012145D01*
X006326Y012232D01*
X006488Y012394D01*
X006500Y012424D01*
X006512Y012394D01*
X006674Y012232D01*
X006886Y012145D01*
X007114Y012145D01*
X007326Y012232D01*
X007488Y012394D01*
X007500Y012424D01*
X007512Y012394D01*
X007674Y012232D01*
X007886Y012145D01*
X008114Y012145D01*
X008326Y012232D01*
X008488Y012394D01*
X008500Y012424D01*
X008512Y012394D01*
X008674Y012232D01*
X008886Y012145D01*
X009114Y012145D01*
X009326Y012232D01*
X009488Y012394D01*
X009500Y012424D01*
X009512Y012394D01*
X009674Y012232D01*
X009886Y012145D01*
X010114Y012145D01*
X010326Y012232D01*
X010488Y012394D01*
X010500Y012424D01*
X010512Y012394D01*
X010674Y012232D01*
X010886Y012145D01*
X011114Y012145D01*
X011326Y012232D01*
X011488Y012394D01*
X011500Y012424D01*
X011512Y012394D01*
X011674Y012232D01*
X011886Y012145D01*
X012114Y012145D01*
X012326Y012232D01*
X012488Y012394D01*
X012500Y012424D01*
X012512Y012394D01*
X012674Y012232D01*
X012886Y012145D01*
X013114Y012145D01*
X013326Y012232D01*
X013488Y012394D01*
X013500Y012424D01*
X013512Y012394D01*
X013600Y012306D01*
X013600Y011140D01*
X013661Y010993D01*
X013773Y010881D01*
X013854Y010800D01*
X013854Y010562D02*
X006721Y010562D01*
X006963Y010323D02*
X013854Y010323D01*
X014049Y010085D02*
X007201Y010085D01*
X007440Y009846D02*
X009911Y009846D01*
X009973Y009908D02*
X009712Y009647D01*
X009570Y009305D01*
X009570Y008935D01*
X009712Y008593D01*
X009973Y008332D01*
X010315Y008190D01*
X010685Y008190D01*
X011027Y008332D01*
X011288Y008593D01*
X011430Y008935D01*
X011430Y009305D01*
X011288Y009647D01*
X011027Y009908D01*
X010685Y010050D01*
X010315Y010050D01*
X009973Y009908D01*
X009695Y009608D02*
X007678Y009608D01*
X007917Y009369D02*
X009597Y009369D01*
X009570Y009131D02*
X008155Y009131D01*
X008394Y008892D02*
X009588Y008892D01*
X009687Y008654D02*
X008632Y008654D01*
X008871Y008415D02*
X009890Y008415D01*
X009348Y007938D02*
X014216Y007938D01*
X014055Y008177D02*
X009109Y008177D01*
X009586Y007700D02*
X014455Y007700D01*
X014600Y007461D02*
X009825Y007461D01*
X009900Y007223D02*
X014600Y007223D01*
X014600Y006984D02*
X009900Y006984D01*
X009900Y006746D02*
X014600Y006746D01*
X014475Y006507D02*
X009900Y006507D01*
X009900Y006269D02*
X014405Y006269D01*
X014244Y006030D02*
X009900Y006030D01*
X009900Y005792D02*
X014108Y005792D01*
X014108Y005553D02*
X009900Y005553D01*
X009900Y005315D02*
X014108Y005315D01*
X014108Y005076D02*
X009900Y005076D01*
X009900Y004838D02*
X014108Y004838D01*
X014108Y004599D02*
X009900Y004599D01*
X009900Y004361D02*
X014108Y004361D01*
X014108Y004122D02*
X011713Y004122D01*
X012022Y003884D02*
X014108Y003884D01*
X014108Y003645D02*
X012110Y003645D01*
X012110Y003407D02*
X014108Y003407D01*
X014013Y003168D02*
X012110Y003168D01*
X012110Y002930D02*
X013870Y002930D01*
X013835Y002691D02*
X012078Y002691D01*
X011925Y002453D02*
X013886Y002453D01*
X014052Y002214D02*
X006129Y002214D01*
X006097Y002453D02*
X009075Y002453D01*
X008922Y002691D02*
X007817Y002691D01*
X007846Y002703D02*
X007621Y002610D01*
X007379Y002610D01*
X007154Y002703D01*
X006983Y002874D01*
X006890Y003099D01*
X006890Y003341D01*
X006983Y003566D01*
X007154Y003737D01*
X007379Y003830D01*
X007621Y003830D01*
X007846Y003737D01*
X008017Y003566D01*
X008110Y003341D01*
X008110Y003099D01*
X008017Y002874D01*
X007846Y002703D01*
X008040Y002930D02*
X008890Y002930D01*
X008890Y003168D02*
X008110Y003168D01*
X008083Y003407D02*
X008890Y003407D01*
X008890Y003645D02*
X007938Y003645D01*
X007062Y003645D02*
X005475Y003645D01*
X005684Y003407D02*
X006917Y003407D01*
X006890Y003168D02*
X005863Y003168D01*
X005972Y002930D02*
X006960Y002930D01*
X007183Y002691D02*
X006062Y002691D01*
X006095Y001976D02*
X024690Y001976D01*
X024451Y001737D02*
X024218Y001737D01*
X023782Y001737D02*
X006061Y001737D01*
X005966Y001499D02*
X023543Y001499D01*
X023480Y001260D02*
X005857Y001260D01*
X005674Y001022D02*
X023480Y001022D01*
X023702Y000783D02*
X005456Y000783D01*
X005085Y000545D02*
X043665Y000545D01*
X043294Y000783D02*
X038129Y000783D01*
X038367Y001022D02*
X043076Y001022D01*
X042893Y001260D02*
X038606Y001260D01*
X038844Y001499D02*
X042784Y001499D01*
X042689Y001737D02*
X039083Y001737D01*
X039321Y001976D02*
X042655Y001976D01*
X042621Y002214D02*
X039560Y002214D01*
X039798Y002453D02*
X042653Y002453D01*
X042688Y002691D02*
X039900Y002691D01*
X039900Y002930D02*
X042778Y002930D01*
X042887Y003168D02*
X039900Y003168D01*
X039900Y003407D02*
X043066Y003407D01*
X043269Y003641D02*
X043269Y003641D01*
X043275Y003645D02*
X039900Y003645D01*
X039900Y003884D02*
X043647Y003884D01*
X043449Y004310D02*
X043725Y004425D01*
X043937Y004636D01*
X044052Y004913D01*
X044052Y004921D01*
X044319Y004810D01*
X044681Y004810D01*
X045015Y004949D01*
X045271Y005205D01*
X045410Y005539D01*
X045410Y005901D01*
X045271Y006235D01*
X045015Y006491D01*
X044681Y006630D01*
X044319Y006630D01*
X043985Y006491D01*
X043729Y006235D01*
X043590Y005901D01*
X043590Y005756D01*
X043449Y005815D01*
X043150Y005815D01*
X042873Y005700D01*
X042661Y005489D01*
X042547Y005212D01*
X042547Y004913D01*
X042661Y004636D01*
X042873Y004425D01*
X043150Y004310D01*
X043449Y004310D01*
X043571Y004361D02*
X046212Y004361D01*
X046212Y004599D02*
X043900Y004599D01*
X044020Y004838D02*
X044253Y004838D01*
X044747Y004838D02*
X046212Y004838D01*
X046212Y005076D02*
X045143Y005076D01*
X045317Y005315D02*
X046212Y005315D01*
X046212Y005553D02*
X045410Y005553D01*
X045410Y005792D02*
X046212Y005792D01*
X046212Y006030D02*
X045356Y006030D01*
X045238Y006269D02*
X046212Y006269D01*
X046212Y006507D02*
X044978Y006507D01*
X044022Y006507D02*
X042351Y006507D01*
X042326Y006482D02*
X042488Y006644D01*
X042575Y006856D01*
X042575Y007084D01*
X042488Y007296D01*
X042326Y007458D01*
X042296Y007470D01*
X042326Y007482D01*
X042488Y007644D01*
X042575Y007856D01*
X042575Y008084D01*
X042488Y008296D01*
X042326Y008458D01*
X042114Y008545D01*
X041886Y008545D01*
X041674Y008458D01*
X041575Y008359D01*
X041575Y008584D01*
X041488Y008796D01*
X041326Y008958D01*
X041114Y009045D01*
X040886Y009045D01*
X040674Y008958D01*
X040512Y008796D01*
X040425Y008584D01*
X040425Y008356D01*
X040512Y008144D01*
X040674Y007982D01*
X040704Y007970D01*
X040674Y007958D01*
X040512Y007796D01*
X040425Y007584D01*
X040425Y007356D01*
X040512Y007144D01*
X040674Y006982D01*
X040886Y006895D01*
X041114Y006895D01*
X041326Y006982D01*
X041425Y007081D01*
X041425Y006856D01*
X041512Y006644D01*
X041674Y006482D01*
X041886Y006395D01*
X042114Y006395D01*
X042326Y006482D01*
X042530Y006746D02*
X046212Y006746D01*
X046212Y006984D02*
X042575Y006984D01*
X042518Y007223D02*
X046212Y007223D01*
X046212Y007461D02*
X042318Y007461D01*
X042511Y007700D02*
X046212Y007700D01*
X046212Y007938D02*
X042575Y007938D01*
X042537Y008177D02*
X046212Y008177D01*
X046212Y008415D02*
X042369Y008415D01*
X041631Y008415D02*
X041575Y008415D01*
X041547Y008654D02*
X046212Y008654D01*
X046212Y008892D02*
X044879Y008892D01*
X045015Y008949D02*
X044681Y008810D01*
X044319Y008810D01*
X043985Y008949D01*
X043729Y009205D01*
X043590Y009539D01*
X043590Y009684D01*
X043449Y009625D01*
X043150Y009625D01*
X042873Y009740D01*
X042661Y009951D01*
X042547Y010228D01*
X042547Y010527D01*
X042661Y010804D01*
X042873Y011015D01*
X043150Y011130D01*
X043449Y011130D01*
X043725Y011015D01*
X043937Y010804D01*
X044052Y010527D01*
X044052Y010519D01*
X044319Y010630D01*
X044681Y010630D01*
X045015Y010491D01*
X045271Y010235D01*
X045410Y009901D01*
X045410Y009539D01*
X045271Y009205D01*
X045015Y008949D01*
X045197Y009131D02*
X046212Y009131D01*
X046212Y009369D02*
X045340Y009369D01*
X045410Y009608D02*
X046212Y009608D01*
X046212Y009846D02*
X045410Y009846D01*
X045334Y010085D02*
X046212Y010085D01*
X046212Y010323D02*
X045184Y010323D01*
X044846Y010562D02*
X046212Y010562D01*
X046212Y010800D02*
X043939Y010800D01*
X044037Y010562D02*
X044154Y010562D01*
X043670Y011039D02*
X046212Y011039D01*
X046212Y011277D02*
X039900Y011277D01*
X039900Y011039D02*
X042929Y011039D01*
X042660Y010800D02*
X039900Y010800D01*
X039900Y010562D02*
X042561Y010562D01*
X042547Y010323D02*
X039900Y010323D01*
X039900Y010085D02*
X042606Y010085D01*
X042767Y009846D02*
X039900Y009846D01*
X039900Y009608D02*
X043590Y009608D01*
X043660Y009369D02*
X039900Y009369D01*
X039900Y009131D02*
X043803Y009131D01*
X044121Y008892D02*
X041392Y008892D01*
X040608Y008892D02*
X039900Y008892D01*
X039900Y008654D02*
X040453Y008654D01*
X040425Y008415D02*
X039900Y008415D01*
X039900Y008177D02*
X040499Y008177D01*
X040654Y007938D02*
X040017Y007938D01*
X040020Y007700D02*
X040472Y007700D01*
X040425Y007461D02*
X039976Y007461D01*
X039900Y007223D02*
X040480Y007223D01*
X040672Y006984D02*
X039900Y006984D01*
X039900Y006746D02*
X041470Y006746D01*
X041425Y006984D02*
X041328Y006984D01*
X041649Y006507D02*
X039900Y006507D01*
X039900Y006269D02*
X043762Y006269D01*
X043644Y006030D02*
X039900Y006030D01*
X039900Y005792D02*
X043093Y005792D01*
X043505Y005792D02*
X043590Y005792D01*
X042726Y005553D02*
X039900Y005553D01*
X039900Y005315D02*
X042589Y005315D01*
X042547Y005076D02*
X039900Y005076D01*
X039900Y004838D02*
X042578Y004838D01*
X042699Y004599D02*
X039900Y004599D01*
X039900Y004361D02*
X043028Y004361D01*
X045353Y003884D02*
X046212Y003884D01*
X046212Y004122D02*
X039900Y004122D01*
X039100Y004122D02*
X037214Y004122D01*
X037126Y004086D02*
X037359Y004182D01*
X037538Y004361D01*
X037634Y004594D01*
X037634Y004846D01*
X037538Y005079D01*
X037359Y005258D01*
X037126Y005354D01*
X036874Y005354D01*
X036641Y005258D01*
X036462Y005079D01*
X036366Y004846D01*
X036366Y004594D01*
X036462Y004361D01*
X036641Y004182D01*
X036874Y004086D01*
X037126Y004086D01*
X036786Y004122D02*
X035214Y004122D01*
X035538Y004361D02*
X036462Y004361D01*
X036366Y004599D02*
X035634Y004599D01*
X035634Y004838D02*
X036366Y004838D01*
X036461Y005076D02*
X035539Y005076D01*
X035222Y005315D02*
X036778Y005315D01*
X037222Y005315D02*
X039100Y005315D01*
X039100Y005553D02*
X034400Y005553D01*
X034400Y005315D02*
X034778Y005315D01*
X034461Y005076D02*
X034400Y005076D01*
X034400Y005792D02*
X039100Y005792D01*
X039100Y006030D02*
X034400Y006030D01*
X034400Y006269D02*
X034554Y006269D01*
X034402Y006507D02*
X034400Y006507D01*
X034400Y006984D02*
X034423Y006984D01*
X034400Y007223D02*
X034605Y007223D01*
X034400Y007461D02*
X038024Y007461D01*
X037980Y007700D02*
X034400Y007700D01*
X034400Y007938D02*
X037983Y007938D01*
X038221Y008177D02*
X034400Y008177D01*
X034400Y008415D02*
X039100Y008415D01*
X039100Y008177D02*
X038779Y008177D01*
X039100Y008654D02*
X034400Y008654D01*
X034400Y008892D02*
X039100Y008892D01*
X039100Y009131D02*
X037234Y009131D01*
X037541Y009369D02*
X039100Y009369D01*
X039100Y010085D02*
X037533Y010085D01*
X037202Y010323D02*
X039100Y010323D01*
X039100Y010562D02*
X034400Y010562D01*
X034400Y010800D02*
X039100Y010800D01*
X039100Y011039D02*
X034400Y011039D01*
X034400Y011277D02*
X034546Y011277D01*
X034462Y011361D02*
X034641Y011182D01*
X034874Y011086D01*
X035126Y011086D01*
X035359Y011182D01*
X035538Y011361D01*
X035634Y011594D01*
X035634Y011846D01*
X035538Y012079D01*
X035359Y012258D01*
X035126Y012354D01*
X034874Y012354D01*
X034641Y012258D01*
X034462Y012079D01*
X034366Y011846D01*
X034366Y011594D01*
X034462Y011361D01*
X034398Y011516D02*
X034270Y011516D01*
X034366Y011754D02*
X034100Y011754D01*
X034338Y011993D02*
X034426Y011993D01*
X034577Y012231D02*
X034614Y012231D01*
X034815Y012470D02*
X039100Y012470D01*
X039100Y012708D02*
X035054Y012708D01*
X035292Y012947D02*
X039100Y012947D01*
X039100Y013185D02*
X035531Y013185D01*
X035769Y013424D02*
X039100Y013424D01*
X039100Y013662D02*
X036008Y013662D01*
X036150Y013901D02*
X039100Y013901D01*
X039100Y014139D02*
X037255Y014139D01*
X037359Y014182D02*
X037538Y014361D01*
X037634Y014594D01*
X037634Y014846D01*
X037538Y015079D01*
X037359Y015258D01*
X037126Y015354D01*
X036874Y015354D01*
X036641Y015258D01*
X036462Y015079D01*
X036366Y014846D01*
X036366Y014594D01*
X036462Y014361D01*
X036641Y014182D01*
X036874Y014086D01*
X037126Y014086D01*
X037359Y014182D01*
X037545Y014378D02*
X039100Y014378D01*
X039100Y014616D02*
X037634Y014616D01*
X037631Y014855D02*
X039100Y014855D01*
X039100Y015093D02*
X037524Y015093D01*
X037181Y015332D02*
X038153Y015332D01*
X037980Y015570D02*
X036150Y015570D01*
X036150Y015332D02*
X036819Y015332D01*
X036476Y015093D02*
X036150Y015093D01*
X036150Y014855D02*
X036369Y014855D01*
X036366Y014616D02*
X036150Y014616D01*
X036150Y014378D02*
X036455Y014378D01*
X036745Y014139D02*
X036150Y014139D01*
X035750Y013970D02*
X035750Y017970D01*
X034000Y019720D01*
X034000Y020720D01*
X033000Y021720D01*
X033567Y022010D02*
X034433Y022010D01*
X034462Y022079D02*
X034366Y021846D01*
X034366Y021594D01*
X034462Y021361D01*
X034641Y021182D01*
X034874Y021086D01*
X035126Y021086D01*
X035359Y021182D01*
X035538Y021361D01*
X035634Y021594D01*
X035634Y021846D01*
X035538Y022079D01*
X035359Y022258D01*
X035126Y022354D01*
X034874Y022354D01*
X034641Y022258D01*
X034462Y022079D01*
X034631Y022248D02*
X033369Y022248D01*
X033332Y022487D02*
X039100Y022487D01*
X039100Y022725D02*
X033571Y022725D01*
X033809Y022964D02*
X039100Y022964D01*
X039100Y023202D02*
X038717Y023202D01*
X038956Y023441D02*
X039044Y023441D01*
X039500Y023720D02*
X039500Y015720D01*
X039500Y007720D01*
X039500Y002720D01*
X037750Y000970D01*
X028750Y000970D01*
X028500Y001220D01*
X028000Y001220D01*
X028500Y001220D02*
X029000Y001720D01*
X029000Y005720D01*
X028500Y006220D01*
X028000Y006220D01*
X028500Y006220D02*
X029000Y006720D01*
X029000Y010720D01*
X028500Y011220D01*
X028000Y011220D01*
X028500Y011220D02*
X029000Y011720D01*
X029000Y015720D01*
X028500Y016220D01*
X028000Y016220D01*
X028500Y016220D02*
X029000Y016720D01*
X029000Y020720D01*
X028500Y021220D01*
X028000Y021220D01*
X028500Y021220D02*
X029000Y021720D01*
X029000Y025720D01*
X028500Y026220D01*
X028000Y026220D01*
X027757Y026780D02*
X021470Y026780D01*
X020467Y026303D02*
X019533Y026303D01*
X019602Y026371D02*
X019439Y026208D01*
X019225Y026120D01*
X018995Y026120D01*
X018781Y026208D01*
X018618Y026371D01*
X018530Y026585D01*
X018530Y027415D01*
X018618Y027629D01*
X018781Y027792D01*
X018995Y027880D01*
X019225Y027880D01*
X019439Y027792D01*
X019602Y027629D01*
X019690Y027415D01*
X019690Y026585D01*
X019602Y026371D01*
X019672Y026541D02*
X020328Y026541D01*
X020310Y026780D02*
X019690Y026780D01*
X019690Y027018D02*
X020310Y027018D01*
X020310Y027257D02*
X019690Y027257D01*
X019657Y027495D02*
X020343Y027495D01*
X020503Y027734D02*
X019497Y027734D01*
X018723Y027734D02*
X005379Y027734D01*
X005631Y027972D02*
X024763Y027972D01*
X024730Y028211D02*
X005835Y028211D01*
X005944Y028449D02*
X024744Y028449D01*
X024850Y028688D02*
X006053Y028688D01*
X006088Y028926D02*
X024850Y028926D01*
X024850Y029165D02*
X006122Y029165D01*
X006104Y029403D02*
X024751Y029403D01*
X024513Y029642D02*
X006069Y029642D01*
X005994Y029880D02*
X023605Y029880D01*
X023480Y030119D02*
X005885Y030119D01*
X005727Y030357D02*
X023480Y030357D01*
X023640Y030596D02*
X005520Y030596D01*
X002556Y028449D02*
X002530Y028449D01*
X002530Y028211D02*
X002665Y028211D01*
X002530Y027972D02*
X002869Y027972D01*
X003121Y027734D02*
X002530Y027734D01*
X002530Y027495D02*
X003520Y027495D01*
X002530Y027257D02*
X018530Y027257D01*
X018530Y027018D02*
X006621Y027018D01*
X006627Y027015D02*
X006350Y027130D01*
X006051Y027130D01*
X005775Y027015D01*
X005563Y026804D01*
X005448Y026527D01*
X005448Y026519D01*
X005181Y026630D01*
X004819Y026630D01*
X004485Y026491D01*
X004229Y026235D01*
X004090Y025901D01*
X004090Y025539D01*
X004229Y025205D01*
X004485Y024949D01*
X004819Y024810D01*
X005181Y024810D01*
X005515Y024949D01*
X005771Y025205D01*
X005910Y025539D01*
X005910Y025684D01*
X006051Y025625D01*
X006350Y025625D01*
X006627Y025740D01*
X006839Y025951D01*
X006953Y026228D01*
X006953Y026527D01*
X006839Y026804D01*
X006627Y027015D01*
X006849Y026780D02*
X018530Y026780D01*
X018548Y026541D02*
X006947Y026541D01*
X006953Y026303D02*
X012086Y026303D01*
X011847Y026064D02*
X006885Y026064D01*
X006713Y025826D02*
X011795Y025826D01*
X011795Y025587D02*
X005910Y025587D01*
X005831Y025349D02*
X011874Y025349D01*
X012113Y025110D02*
X009104Y025110D01*
X009080Y025120D02*
X007670Y025120D01*
X007523Y025059D01*
X007510Y025045D01*
X007386Y025045D01*
X007174Y024958D01*
X007012Y024796D01*
X006925Y024584D01*
X006925Y024356D01*
X007012Y024144D01*
X007174Y023982D01*
X007204Y023970D01*
X007174Y023958D01*
X007012Y023796D01*
X006925Y023584D01*
X006925Y023356D01*
X007012Y023144D01*
X007174Y022982D01*
X007386Y022895D01*
X007614Y022895D01*
X007826Y022982D01*
X007925Y023081D01*
X007925Y022856D01*
X008012Y022644D01*
X008174Y022482D01*
X008386Y022395D01*
X008614Y022395D01*
X008826Y022482D01*
X008988Y022644D01*
X009075Y022856D01*
X009075Y023084D01*
X008988Y023296D01*
X008826Y023458D01*
X008796Y023470D01*
X008826Y023482D01*
X008988Y023644D01*
X009075Y023856D01*
X009075Y024079D01*
X010055Y023099D01*
X010112Y022961D01*
X010241Y022832D01*
X010409Y022763D01*
X010591Y022763D01*
X010759Y022832D01*
X010888Y022961D01*
X010957Y023129D01*
X010957Y023311D01*
X010888Y023479D01*
X010759Y023608D01*
X010621Y023665D01*
X009227Y025059D01*
X009080Y025120D01*
X009000Y024720D02*
X010500Y023220D01*
X010957Y023202D02*
X011916Y023202D01*
X011678Y022964D02*
X010889Y022964D01*
X011201Y022487D02*
X008830Y022487D01*
X009021Y022725D02*
X011439Y022725D01*
X010962Y022248D02*
X005759Y022248D01*
X005771Y022235D02*
X005515Y022491D01*
X005181Y022630D01*
X004819Y022630D01*
X004485Y022491D01*
X004229Y022235D01*
X004090Y021901D01*
X004090Y021539D01*
X004229Y021205D01*
X004485Y020949D01*
X004819Y020810D01*
X005181Y020810D01*
X005448Y020921D01*
X005448Y020913D01*
X005563Y020636D01*
X005775Y020425D01*
X006051Y020310D01*
X006350Y020310D01*
X006627Y020425D01*
X006839Y020636D01*
X006953Y020913D01*
X006953Y021212D01*
X006839Y021489D01*
X006627Y021700D01*
X006350Y021815D01*
X006051Y021815D01*
X005910Y021756D01*
X005910Y021901D01*
X005771Y022235D01*
X005865Y022010D02*
X010724Y022010D01*
X010600Y021771D02*
X006457Y021771D01*
X006795Y021533D02*
X010600Y021533D01*
X010600Y021294D02*
X006919Y021294D01*
X006953Y021056D02*
X010600Y021056D01*
X010600Y020817D02*
X006914Y020817D01*
X006781Y020579D02*
X010600Y020579D01*
X010600Y020340D02*
X006423Y020340D01*
X005979Y020340D02*
X002530Y020340D01*
X002530Y020102D02*
X010600Y020102D01*
X010600Y019863D02*
X002530Y019863D01*
X002530Y019625D02*
X010600Y019625D01*
X010600Y019386D02*
X002530Y019386D01*
X002530Y019148D02*
X002614Y019148D01*
X003386Y019148D02*
X003614Y019148D01*
X004386Y019148D02*
X004614Y019148D01*
X005386Y019148D02*
X005614Y019148D01*
X006386Y019148D02*
X006614Y019148D01*
X007386Y019148D02*
X007614Y019148D01*
X008386Y019148D02*
X008614Y019148D01*
X009386Y019148D02*
X009614Y019148D01*
X010386Y019148D02*
X010600Y019148D01*
X011000Y018720D02*
X011000Y021720D01*
X013500Y024220D01*
X013500Y024720D01*
X012500Y025720D01*
X013153Y026064D02*
X013847Y026064D01*
X013795Y025826D02*
X013205Y025826D01*
X013205Y025587D02*
X013795Y025587D01*
X013874Y025349D02*
X013437Y025349D01*
X013676Y025110D02*
X014100Y025110D01*
X014100Y024872D02*
X013870Y024872D01*
X013900Y024633D02*
X014100Y024633D01*
X014100Y024395D02*
X014020Y024395D01*
X014020Y024156D02*
X014100Y024156D01*
X014100Y023918D02*
X013933Y023918D01*
X013893Y023679D02*
X013525Y023679D01*
X013655Y023441D02*
X013286Y023441D01*
X013247Y023202D02*
X013048Y023202D01*
X013008Y022964D02*
X012809Y022964D01*
X012939Y022725D02*
X012571Y022725D01*
X012701Y022487D02*
X012332Y022487D01*
X012462Y022248D02*
X012094Y022248D01*
X012224Y022010D02*
X011855Y022010D01*
X011985Y021771D02*
X011617Y021771D01*
X011747Y021533D02*
X011400Y021533D01*
X011400Y021294D02*
X011600Y021294D01*
X011600Y021056D02*
X011400Y021056D01*
X011400Y020817D02*
X011600Y020817D01*
X011600Y020579D02*
X011400Y020579D01*
X011400Y020340D02*
X011600Y020340D01*
X011600Y020102D02*
X011400Y020102D01*
X011400Y019863D02*
X011600Y019863D01*
X011600Y019625D02*
X011400Y019625D01*
X011400Y019386D02*
X011600Y019386D01*
X011600Y019148D02*
X011400Y019148D01*
X012000Y018720D02*
X012000Y021220D01*
X013500Y022720D01*
X014500Y023720D01*
X014500Y025720D01*
X015126Y025349D02*
X015874Y025349D01*
X015795Y025587D02*
X015205Y025587D01*
X015205Y025826D02*
X015795Y025826D01*
X015847Y026064D02*
X015153Y026064D01*
X014914Y026303D02*
X016086Y026303D01*
X016914Y026303D02*
X018687Y026303D01*
X018745Y025110D02*
X016900Y025110D01*
X016900Y024872D02*
X018606Y024872D01*
X018590Y024633D02*
X017738Y024633D01*
X017691Y024680D02*
X017960Y024411D01*
X017960Y024220D01*
X017500Y024220D01*
X017500Y024220D01*
X017500Y024220D01*
X017500Y024680D01*
X017691Y024680D01*
X017500Y024680D02*
X017309Y024680D01*
X017040Y024411D01*
X017040Y024220D01*
X017500Y024220D01*
X017960Y024220D01*
X017960Y024029D01*
X017691Y023760D01*
X017500Y023760D01*
X017500Y024220D01*
X017500Y024220D01*
X017500Y024220D01*
X017500Y024680D01*
X017500Y024633D02*
X017500Y024633D01*
X017262Y024633D02*
X016900Y024633D01*
X016900Y024395D02*
X017040Y024395D01*
X017040Y024220D02*
X017040Y024029D01*
X017309Y023760D01*
X017500Y023760D01*
X017500Y024220D01*
X017040Y024220D01*
X017040Y024156D02*
X016900Y024156D01*
X016763Y023918D02*
X017152Y023918D01*
X017500Y023918D02*
X017500Y023918D01*
X017500Y024156D02*
X017500Y024156D01*
X017500Y024395D02*
X017500Y024395D01*
X017960Y024395D02*
X018590Y024395D01*
X018590Y024156D02*
X017960Y024156D01*
X017848Y023918D02*
X018640Y023918D01*
X018869Y023679D02*
X016525Y023679D01*
X016286Y023441D02*
X019655Y023441D01*
X019893Y023679D02*
X019351Y023679D01*
X019110Y023679D02*
X019110Y023679D01*
X019110Y023918D02*
X019110Y023918D01*
X019110Y024156D02*
X019110Y024156D01*
X019630Y024156D02*
X020310Y024156D01*
X020310Y024395D02*
X019630Y024395D01*
X019630Y024633D02*
X020310Y024633D01*
X020317Y024872D02*
X019614Y024872D01*
X020398Y025069D02*
X020561Y025232D01*
X020775Y025320D01*
X021005Y025320D01*
X021219Y025232D01*
X021382Y025069D01*
X021470Y024855D01*
X021470Y024025D01*
X021382Y023811D01*
X021219Y023648D01*
X021005Y023560D01*
X020906Y023560D01*
X020020Y022674D01*
X020020Y022505D01*
X019715Y022200D01*
X019546Y022200D01*
X019150Y021804D01*
X019150Y019920D01*
X019161Y019947D01*
X019273Y020059D01*
X020600Y021386D01*
X020600Y022385D01*
X020480Y022505D01*
X020480Y022935D01*
X020785Y023240D01*
X021215Y023240D01*
X021520Y022935D01*
X021520Y022505D01*
X021400Y022385D01*
X021400Y021140D01*
X021339Y020993D01*
X019900Y019554D01*
X019900Y019055D01*
X020020Y018935D01*
X020020Y018766D01*
X020227Y018559D01*
X020339Y018447D01*
X020400Y018300D01*
X020400Y017475D01*
X020408Y017500D01*
X020445Y017573D01*
X020493Y017639D01*
X020551Y017697D01*
X020617Y017745D01*
X020690Y017782D01*
X020768Y017807D01*
X020849Y017820D01*
X020890Y017820D01*
X020890Y017000D01*
X020890Y017000D01*
X021410Y017000D01*
X021410Y017341D01*
X021397Y017422D01*
X021372Y017500D01*
X021335Y017573D01*
X021287Y017639D01*
X021229Y017697D01*
X021163Y017745D01*
X021090Y017782D01*
X021012Y017807D01*
X020931Y017820D01*
X020890Y017820D01*
X020890Y017000D01*
X020890Y017000D01*
X021410Y017000D01*
X021410Y016659D01*
X021397Y016578D01*
X021372Y016500D01*
X021335Y016427D01*
X021287Y016361D01*
X021229Y016303D01*
X021163Y016255D01*
X021090Y016218D01*
X021012Y016193D01*
X020931Y016180D01*
X020890Y016180D01*
X020890Y017000D01*
X020890Y017000D01*
X020890Y016180D01*
X020849Y016180D01*
X020768Y016193D01*
X020690Y016218D01*
X020617Y016255D01*
X020551Y016303D01*
X020493Y016361D01*
X020445Y016427D01*
X020408Y016500D01*
X020400Y016525D01*
X020400Y015070D01*
X020561Y015232D01*
X020775Y015320D01*
X021005Y015320D01*
X021219Y015232D01*
X021382Y015069D01*
X021470Y014855D01*
X021470Y014025D01*
X021382Y013811D01*
X021219Y013648D01*
X021005Y013560D01*
X020775Y013560D01*
X020561Y013648D01*
X020400Y013810D01*
X020400Y013140D01*
X020339Y012993D01*
X020020Y012674D01*
X020020Y012505D01*
X019715Y012200D01*
X019285Y012200D01*
X018980Y012505D01*
X018980Y012935D01*
X019285Y013240D01*
X019454Y013240D01*
X019600Y013386D01*
X019600Y013810D01*
X019439Y013648D01*
X019225Y013560D01*
X018995Y013560D01*
X018781Y013648D01*
X018618Y013811D01*
X018530Y014025D01*
X018530Y014855D01*
X018618Y015069D01*
X018781Y015232D01*
X018995Y015320D01*
X019225Y015320D01*
X019439Y015232D01*
X019600Y015070D01*
X019600Y016370D01*
X019439Y016208D01*
X019225Y016120D01*
X018995Y016120D01*
X018854Y016178D01*
X017557Y014881D01*
X017410Y014820D01*
X008666Y014820D01*
X007400Y013554D01*
X007400Y013134D01*
X007488Y013046D01*
X007500Y013016D01*
X007512Y013046D01*
X007674Y013208D01*
X007886Y013295D01*
X008114Y013295D01*
X008326Y013208D01*
X008488Y013046D01*
X008500Y013016D01*
X008512Y013046D01*
X008674Y013208D01*
X008886Y013295D01*
X009114Y013295D01*
X009326Y013208D01*
X009488Y013046D01*
X009500Y013016D01*
X009512Y013046D01*
X009674Y013208D01*
X009886Y013295D01*
X010114Y013295D01*
X010326Y013208D01*
X010488Y013046D01*
X010500Y013016D01*
X010512Y013046D01*
X010674Y013208D01*
X010886Y013295D01*
X011114Y013295D01*
X011326Y013208D01*
X011488Y013046D01*
X011500Y013016D01*
X011512Y013046D01*
X011674Y013208D01*
X011886Y013295D01*
X012114Y013295D01*
X012326Y013208D01*
X012488Y013046D01*
X012500Y013016D01*
X012512Y013046D01*
X012674Y013208D01*
X012886Y013295D01*
X013114Y013295D01*
X013326Y013208D01*
X013488Y013046D01*
X013500Y013016D01*
X013512Y013046D01*
X013674Y013208D01*
X013886Y013295D01*
X014114Y013295D01*
X014326Y013208D01*
X014488Y013046D01*
X014500Y013016D01*
X014512Y013046D01*
X014674Y013208D01*
X014886Y013295D01*
X015114Y013295D01*
X015326Y013208D01*
X015488Y013046D01*
X015533Y012938D01*
X015559Y012990D01*
X015607Y013056D01*
X015664Y013113D01*
X015730Y013161D01*
X015802Y013198D01*
X015879Y013223D01*
X015959Y013235D01*
X016000Y013235D01*
X016000Y012720D01*
X016000Y011220D01*
X015551Y010771D01*
X015551Y010720D01*
X015551Y008669D01*
X016000Y008220D01*
X016000Y006220D01*
X016000Y006220D01*
X016535Y006220D01*
X016000Y006220D01*
X016000Y006220D01*
X016000Y006755D01*
X015778Y006755D01*
X015527Y006503D01*
X015504Y006557D01*
X015400Y006661D01*
X015400Y007800D01*
X015339Y007947D01*
X015227Y008059D01*
X014849Y008437D01*
X014849Y010098D01*
X014922Y010128D01*
X015001Y010207D01*
X015031Y010280D01*
X015060Y010231D01*
X015101Y010190D01*
X015151Y010161D01*
X015207Y010146D01*
X015514Y010146D01*
X015514Y010683D01*
X015589Y010683D01*
X015589Y010757D01*
X016086Y010757D01*
X016086Y011103D01*
X016071Y011159D01*
X016042Y011209D01*
X016001Y011250D01*
X015951Y011279D01*
X015895Y011294D01*
X015589Y011294D01*
X015589Y010757D01*
X015514Y010757D01*
X015514Y011294D01*
X015207Y011294D01*
X015151Y011279D01*
X015101Y011250D01*
X015060Y011209D01*
X015031Y011160D01*
X015001Y011233D01*
X014922Y011312D01*
X014819Y011354D01*
X014431Y011354D01*
X014400Y011386D01*
X014400Y012306D01*
X014488Y012394D01*
X014500Y012424D01*
X014512Y012394D01*
X014674Y012232D01*
X014886Y012145D01*
X015114Y012145D01*
X015326Y012232D01*
X015488Y012394D01*
X015533Y012502D01*
X015559Y012450D01*
X015607Y012384D01*
X015664Y012327D01*
X015730Y012279D01*
X015802Y012242D01*
X015879Y012217D01*
X015959Y012205D01*
X016000Y012205D01*
X016041Y012205D01*
X016121Y012217D01*
X016198Y012242D01*
X016270Y012279D01*
X016336Y012327D01*
X016393Y012384D01*
X016441Y012450D01*
X016467Y012502D01*
X016512Y012394D01*
X016674Y012232D01*
X016886Y012145D01*
X017114Y012145D01*
X017326Y012232D01*
X017482Y012389D01*
X017487Y012377D01*
X017657Y012207D01*
X017880Y012115D01*
X018120Y012115D01*
X018343Y012207D01*
X018513Y012377D01*
X018605Y012600D01*
X018605Y012840D01*
X018513Y013063D01*
X018343Y013233D01*
X018120Y013325D01*
X017880Y013325D01*
X017657Y013233D01*
X017487Y013063D01*
X017482Y013051D01*
X017326Y013208D01*
X017114Y013295D01*
X016886Y013295D01*
X016674Y013208D01*
X016512Y013046D01*
X016467Y012938D01*
X016441Y012990D01*
X016393Y013056D01*
X016336Y013113D01*
X016270Y013161D01*
X016198Y013198D01*
X016121Y013223D01*
X016041Y013235D01*
X016000Y013235D01*
X016000Y012720D01*
X016000Y012720D01*
X016000Y012205D01*
X016000Y012720D01*
X016000Y012720D01*
X016000Y012708D02*
X016000Y012708D01*
X016000Y012470D02*
X016000Y012470D01*
X016000Y012231D02*
X016000Y012231D01*
X016163Y012231D02*
X016677Y012231D01*
X016481Y012470D02*
X016451Y012470D01*
X015837Y012231D02*
X015323Y012231D01*
X015519Y012470D02*
X015549Y012470D01*
X014677Y012231D02*
X014400Y012231D01*
X014400Y011993D02*
X024707Y011993D01*
X024850Y012136D02*
X024335Y011621D01*
X024215Y011740D01*
X023785Y011740D01*
X023480Y011435D01*
X023480Y011005D01*
X023765Y010720D01*
X023480Y010435D01*
X023480Y010005D01*
X023785Y009700D01*
X024215Y009700D01*
X024335Y009819D01*
X024850Y009304D01*
X024850Y008555D01*
X024730Y008435D01*
X024730Y008005D01*
X025035Y007700D01*
X025465Y007700D01*
X025480Y007715D01*
X025480Y007505D01*
X025785Y007200D01*
X026215Y007200D01*
X026520Y007505D01*
X026520Y007935D01*
X026215Y008240D01*
X025785Y008240D01*
X025770Y008225D01*
X025770Y008299D01*
X025809Y008260D01*
X026000Y008260D01*
X026191Y008260D01*
X026460Y008529D01*
X026460Y008720D01*
X026460Y008911D01*
X026191Y009180D01*
X026000Y009180D01*
X026000Y008720D01*
X026000Y008720D01*
X026460Y008720D01*
X026000Y008720D01*
X026000Y008720D01*
X026000Y009180D01*
X025809Y009180D01*
X025650Y009021D01*
X025650Y009550D01*
X025589Y009697D01*
X025477Y009809D01*
X024727Y010559D01*
X024580Y010620D01*
X024335Y010620D01*
X024235Y010720D01*
X024335Y010820D01*
X024580Y010820D01*
X024727Y010881D01*
X025477Y011631D01*
X025589Y011743D01*
X025650Y011890D01*
X025650Y012335D01*
X025785Y012200D01*
X026215Y012200D01*
X026520Y012505D01*
X026520Y012935D01*
X026215Y013240D01*
X025785Y013240D01*
X025770Y013225D01*
X025770Y013299D01*
X025809Y013260D01*
X026000Y013260D01*
X026191Y013260D01*
X026460Y013529D01*
X026460Y013720D01*
X026460Y013911D01*
X026191Y014180D01*
X026000Y014180D01*
X026000Y013720D01*
X026000Y013720D01*
X026460Y013720D01*
X026000Y013720D01*
X026000Y013720D01*
X026000Y013720D01*
X025540Y013720D01*
X025540Y013911D01*
X025809Y014180D01*
X026000Y014180D01*
X026000Y013720D01*
X026000Y013260D01*
X026000Y013720D01*
X026000Y013720D01*
X025540Y013720D01*
X025540Y013665D01*
X025465Y013740D01*
X025035Y013740D01*
X024730Y013435D01*
X024730Y013005D01*
X024850Y012885D01*
X024850Y012136D01*
X024850Y012231D02*
X019746Y012231D01*
X019985Y012470D02*
X024850Y012470D01*
X024850Y012708D02*
X020054Y012708D01*
X020292Y012947D02*
X024788Y012947D01*
X024730Y013185D02*
X020400Y013185D01*
X020400Y013424D02*
X024730Y013424D01*
X024957Y013662D02*
X021232Y013662D01*
X021419Y013901D02*
X025540Y013901D01*
X025768Y014139D02*
X021470Y014139D01*
X021470Y014378D02*
X028600Y014378D01*
X028600Y014616D02*
X028136Y014616D01*
X027864Y014616D02*
X021470Y014616D01*
X021470Y014855D02*
X021630Y014855D01*
X021480Y015005D02*
X021785Y014700D01*
X022215Y014700D01*
X022520Y015005D01*
X022520Y015435D01*
X022215Y015740D01*
X021785Y015740D01*
X021480Y015435D01*
X021480Y015005D01*
X021480Y015093D02*
X021357Y015093D01*
X021480Y015332D02*
X020400Y015332D01*
X020400Y015570D02*
X021615Y015570D01*
X022385Y015570D02*
X023600Y015570D01*
X023600Y015555D02*
X023480Y015435D01*
X023480Y015005D01*
X023785Y014700D01*
X024215Y014700D01*
X024520Y015005D01*
X024520Y015435D01*
X024400Y015555D01*
X024400Y015885D01*
X024520Y016005D01*
X024520Y016435D01*
X024215Y016740D01*
X023785Y016740D01*
X023480Y016435D01*
X023480Y016005D01*
X023600Y015885D01*
X023600Y015555D01*
X023600Y015809D02*
X020400Y015809D01*
X020400Y016047D02*
X023480Y016047D01*
X023480Y016286D02*
X021204Y016286D01*
X021380Y016524D02*
X023569Y016524D01*
X024000Y016220D02*
X024000Y015220D01*
X023630Y014855D02*
X022370Y014855D01*
X022520Y015093D02*
X023480Y015093D01*
X023480Y015332D02*
X022520Y015332D01*
X024400Y015570D02*
X027487Y015570D01*
X027549Y015809D02*
X024400Y015809D01*
X024520Y016047D02*
X027411Y016047D01*
X027390Y016286D02*
X024520Y016286D01*
X024431Y016524D02*
X027466Y016524D01*
X027716Y016763D02*
X021410Y016763D01*
X021410Y017001D02*
X028600Y017001D01*
X028600Y017240D02*
X026255Y017240D01*
X026215Y017200D02*
X026520Y017505D01*
X026520Y017935D01*
X026215Y018240D01*
X025785Y018240D01*
X025770Y018225D01*
X025770Y018299D01*
X025809Y018260D01*
X026000Y018260D01*
X026191Y018260D01*
X026460Y018529D01*
X026460Y018720D01*
X026460Y018911D01*
X026191Y019180D01*
X026000Y019180D01*
X026000Y018720D01*
X026000Y018720D01*
X026460Y018720D01*
X026000Y018720D01*
X026000Y018720D01*
X026000Y019180D01*
X025809Y019180D01*
X025650Y019021D01*
X025650Y019550D01*
X025589Y019697D01*
X025477Y019809D01*
X024727Y020559D01*
X024580Y020620D01*
X024335Y020620D01*
X024235Y020720D01*
X024335Y020820D01*
X024580Y020820D01*
X024727Y020881D01*
X025477Y021631D01*
X025589Y021743D01*
X025650Y021890D01*
X025650Y022335D01*
X025785Y022200D01*
X026215Y022200D01*
X026520Y022505D01*
X026520Y022935D01*
X026215Y023240D01*
X025785Y023240D01*
X025770Y023225D01*
X025770Y023299D01*
X025809Y023260D01*
X026000Y023260D01*
X026191Y023260D01*
X026460Y023529D01*
X026460Y023720D01*
X026460Y023911D01*
X026191Y024180D01*
X026000Y024180D01*
X026000Y023720D01*
X026000Y023720D01*
X026460Y023720D01*
X026000Y023720D01*
X026000Y023720D01*
X026000Y023720D01*
X025540Y023720D01*
X025540Y023911D01*
X025809Y024180D01*
X026000Y024180D01*
X026000Y023720D01*
X026000Y023260D01*
X026000Y023720D01*
X026000Y023720D01*
X025540Y023720D01*
X025540Y023665D01*
X025465Y023740D01*
X025035Y023740D01*
X024730Y023435D01*
X024730Y023005D01*
X024850Y022885D01*
X024850Y022136D01*
X024335Y021621D01*
X024215Y021740D01*
X023785Y021740D01*
X023480Y021435D01*
X023480Y021005D01*
X023765Y020720D01*
X023480Y020435D01*
X023480Y020005D01*
X023785Y019700D01*
X024215Y019700D01*
X024335Y019819D01*
X024850Y019304D01*
X024850Y018555D01*
X024730Y018435D01*
X024730Y018005D01*
X025035Y017700D01*
X025465Y017700D01*
X025480Y017715D01*
X025480Y017505D01*
X025785Y017200D01*
X026215Y017200D01*
X026493Y017478D02*
X028600Y017478D01*
X028600Y017717D02*
X026520Y017717D01*
X026500Y017955D02*
X028600Y017955D01*
X028600Y018194D02*
X026262Y018194D01*
X026363Y018432D02*
X028600Y018432D01*
X028600Y018671D02*
X026460Y018671D01*
X026460Y018909D02*
X028600Y018909D01*
X028600Y019148D02*
X026223Y019148D01*
X026000Y019148D02*
X026000Y019148D01*
X025777Y019148D02*
X025650Y019148D01*
X025650Y019386D02*
X028600Y019386D01*
X028600Y019625D02*
X028156Y019625D01*
X027844Y019625D02*
X025619Y019625D01*
X025423Y019863D02*
X027494Y019863D01*
X027390Y020102D02*
X025184Y020102D01*
X024946Y020340D02*
X027390Y020340D01*
X027496Y020579D02*
X024680Y020579D01*
X024500Y020220D02*
X024000Y020220D01*
X024500Y020220D02*
X025250Y019470D01*
X025250Y018220D01*
X024730Y018194D02*
X020400Y018194D01*
X020400Y017955D02*
X024780Y017955D01*
X025018Y017717D02*
X021201Y017717D01*
X021379Y017478D02*
X025507Y017478D01*
X025745Y017240D02*
X021410Y017240D01*
X020890Y017240D02*
X020890Y017240D01*
X020890Y017478D02*
X020890Y017478D01*
X020890Y017717D02*
X020890Y017717D01*
X020579Y017717D02*
X020400Y017717D01*
X020400Y017478D02*
X020401Y017478D01*
X020890Y017001D02*
X020890Y017001D01*
X020890Y016763D02*
X020890Y016763D01*
X020890Y016524D02*
X020890Y016524D01*
X020890Y016286D02*
X020890Y016286D01*
X020576Y016286D02*
X020400Y016286D01*
X020400Y016524D02*
X020400Y016524D01*
X019600Y016286D02*
X019516Y016286D01*
X019600Y016047D02*
X018723Y016047D01*
X018484Y015809D02*
X019600Y015809D01*
X019600Y015570D02*
X018246Y015570D01*
X018007Y015332D02*
X019600Y015332D01*
X019600Y015093D02*
X019577Y015093D01*
X020400Y015093D02*
X020423Y015093D01*
X018643Y015093D02*
X017769Y015093D01*
X017493Y014855D02*
X018530Y014855D01*
X018530Y014616D02*
X008462Y014616D01*
X008223Y014378D02*
X018530Y014378D01*
X018530Y014139D02*
X007985Y014139D01*
X007746Y013901D02*
X018581Y013901D01*
X018768Y013662D02*
X007508Y013662D01*
X007400Y013424D02*
X019600Y013424D01*
X019600Y013662D02*
X019452Y013662D01*
X019230Y013185D02*
X018391Y013185D01*
X018561Y012947D02*
X018991Y012947D01*
X018980Y012708D02*
X018605Y012708D01*
X018551Y012470D02*
X019015Y012470D01*
X019254Y012231D02*
X018367Y012231D01*
X017633Y012231D02*
X017323Y012231D01*
X016471Y012947D02*
X016463Y012947D01*
X016651Y013185D02*
X016222Y013185D01*
X016000Y013185D02*
X016000Y013185D01*
X015778Y013185D02*
X015349Y013185D01*
X015529Y012947D02*
X015537Y012947D01*
X016000Y012947D02*
X016000Y012947D01*
X017349Y013185D02*
X017609Y013185D01*
X019500Y012720D02*
X020000Y013220D01*
X020000Y018220D01*
X019500Y018720D01*
X019500Y019720D01*
X021000Y021220D01*
X021000Y022720D01*
X020480Y022725D02*
X020071Y022725D01*
X020002Y022487D02*
X020498Y022487D01*
X020600Y022248D02*
X019763Y022248D01*
X019355Y022010D02*
X020600Y022010D01*
X020600Y021771D02*
X019150Y021771D01*
X019150Y021533D02*
X020600Y021533D01*
X020508Y021294D02*
X019150Y021294D01*
X019150Y021056D02*
X020270Y021056D01*
X020031Y020817D02*
X019150Y020817D01*
X019150Y020579D02*
X019793Y020579D01*
X019554Y020340D02*
X019150Y020340D01*
X019150Y020102D02*
X019316Y020102D01*
X019970Y019625D02*
X024530Y019625D01*
X024768Y019386D02*
X019900Y019386D01*
X019900Y019148D02*
X020692Y019148D01*
X020785Y019240D02*
X020480Y018935D01*
X020480Y018505D01*
X020785Y018200D01*
X021215Y018200D01*
X021520Y018505D01*
X021520Y018935D01*
X021215Y019240D01*
X020785Y019240D01*
X020480Y018909D02*
X020020Y018909D01*
X020115Y018671D02*
X020480Y018671D01*
X020553Y018432D02*
X020345Y018432D01*
X021447Y018432D02*
X024730Y018432D01*
X024850Y018671D02*
X021520Y018671D01*
X021520Y018909D02*
X024850Y018909D01*
X024850Y019148D02*
X021308Y019148D01*
X020209Y019863D02*
X023622Y019863D01*
X023480Y020102D02*
X020447Y020102D01*
X020686Y020340D02*
X023480Y020340D01*
X023623Y020579D02*
X020924Y020579D01*
X021163Y020817D02*
X022168Y020817D01*
X022285Y020700D02*
X022715Y020700D01*
X023020Y021005D01*
X023020Y021435D01*
X022715Y021740D01*
X022285Y021740D01*
X021980Y021435D01*
X021980Y021005D01*
X022285Y020700D01*
X021980Y021056D02*
X021365Y021056D01*
X021400Y021294D02*
X021980Y021294D01*
X022077Y021533D02*
X021400Y021533D01*
X021400Y021771D02*
X024485Y021771D01*
X024724Y022010D02*
X021400Y022010D01*
X021400Y022248D02*
X024850Y022248D01*
X024850Y022487D02*
X021502Y022487D01*
X021520Y022725D02*
X024850Y022725D01*
X024771Y022964D02*
X021492Y022964D01*
X021253Y023202D02*
X024730Y023202D01*
X024735Y023441D02*
X020786Y023441D01*
X020747Y023202D02*
X020548Y023202D01*
X020508Y022964D02*
X020309Y022964D01*
X019500Y022720D02*
X018750Y021970D01*
X018750Y017970D01*
X017000Y016220D01*
X008000Y016220D01*
X006000Y014220D01*
X006000Y012720D01*
X006323Y012231D02*
X006677Y012231D01*
X007000Y012720D02*
X007000Y013720D01*
X008500Y015220D01*
X017330Y015220D01*
X019110Y017000D01*
X018169Y017955D02*
X002530Y017955D01*
X002530Y017717D02*
X017931Y017717D01*
X017692Y017478D02*
X002530Y017478D01*
X002530Y017240D02*
X017454Y017240D01*
X017215Y017001D02*
X002530Y017001D01*
X002530Y016763D02*
X016977Y016763D01*
X016540Y018194D02*
X016232Y018194D01*
X015768Y018194D02*
X015232Y018194D01*
X014768Y018194D02*
X013232Y018194D01*
X013503Y018432D02*
X013572Y018432D01*
X014000Y018432D02*
X014000Y018432D01*
X014428Y018432D02*
X014497Y018432D01*
X014614Y019148D02*
X014288Y019148D01*
X015386Y019148D02*
X015614Y019148D01*
X016386Y019148D02*
X016456Y019148D01*
X017544Y019148D02*
X017572Y019148D01*
X017460Y018194D02*
X017690Y018194D01*
X018310Y018194D02*
X018350Y018194D01*
X018350Y020817D02*
X017748Y020817D01*
X017691Y020760D02*
X017960Y021029D01*
X017960Y021220D01*
X017960Y021411D01*
X017691Y021680D01*
X017500Y021680D01*
X017500Y021220D01*
X017960Y021220D01*
X017500Y021220D01*
X017500Y021220D01*
X017500Y021220D01*
X017500Y020760D01*
X017691Y020760D01*
X017500Y020760D02*
X017500Y021220D01*
X017500Y021220D01*
X017500Y021220D01*
X017040Y021220D01*
X017040Y021411D01*
X017309Y021680D01*
X017500Y021680D01*
X017500Y021220D01*
X017040Y021220D01*
X017040Y021029D01*
X017309Y020760D01*
X017500Y020760D01*
X017500Y020817D02*
X017500Y020817D01*
X017500Y021056D02*
X017500Y021056D01*
X017500Y021294D02*
X017500Y021294D01*
X017500Y021533D02*
X017500Y021533D01*
X017838Y021533D02*
X018350Y021533D01*
X018350Y021771D02*
X014617Y021771D01*
X014855Y022010D02*
X018350Y022010D01*
X018462Y022248D02*
X015094Y022248D01*
X015332Y022487D02*
X017083Y022487D01*
X017040Y022529D02*
X017309Y022260D01*
X017500Y022260D01*
X017691Y022260D01*
X017960Y022529D01*
X017960Y022720D01*
X017960Y022911D01*
X017691Y023180D01*
X017500Y023180D01*
X017500Y022720D01*
X017960Y022720D01*
X017500Y022720D01*
X017500Y022720D01*
X017500Y022720D01*
X017500Y022260D01*
X017500Y022720D01*
X017500Y022720D01*
X017500Y022720D01*
X017040Y022720D01*
X017040Y022911D01*
X017309Y023180D01*
X017500Y023180D01*
X017500Y022720D01*
X017040Y022720D01*
X017040Y022529D01*
X017040Y022725D02*
X015571Y022725D01*
X015809Y022964D02*
X017093Y022964D01*
X017500Y022964D02*
X017500Y022964D01*
X017500Y022725D02*
X017500Y022725D01*
X017500Y022487D02*
X017500Y022487D01*
X017917Y022487D02*
X018701Y022487D01*
X018939Y022725D02*
X017960Y022725D01*
X017907Y022964D02*
X019008Y022964D01*
X019247Y023202D02*
X016048Y023202D01*
X015393Y023679D02*
X014900Y023679D01*
X014900Y023918D02*
X015632Y023918D01*
X015870Y024156D02*
X014900Y024156D01*
X014900Y024395D02*
X016100Y024395D01*
X016100Y024633D02*
X014900Y024633D01*
X014900Y024872D02*
X016100Y024872D01*
X016100Y025110D02*
X014900Y025110D01*
X014086Y026303D02*
X012914Y026303D01*
X012783Y024872D02*
X009414Y024872D01*
X009653Y024633D02*
X013021Y024633D01*
X012980Y024395D02*
X009891Y024395D01*
X010130Y024156D02*
X012870Y024156D01*
X012632Y023918D02*
X010368Y023918D01*
X010607Y023679D02*
X012393Y023679D01*
X012155Y023441D02*
X010903Y023441D01*
X010111Y022964D02*
X009075Y022964D01*
X009027Y023202D02*
X009952Y023202D01*
X009714Y023441D02*
X008843Y023441D01*
X009002Y023679D02*
X009475Y023679D01*
X009237Y023918D02*
X009075Y023918D01*
X009000Y024720D02*
X007750Y024720D01*
X007500Y024470D01*
X007088Y024872D02*
X005329Y024872D01*
X005677Y025110D02*
X007646Y025110D01*
X006945Y024633D02*
X002530Y024633D01*
X002530Y024395D02*
X006925Y024395D01*
X007007Y024156D02*
X002530Y024156D01*
X002530Y023918D02*
X007134Y023918D01*
X006964Y023679D02*
X002530Y023679D01*
X002530Y023441D02*
X006925Y023441D01*
X006988Y023202D02*
X002530Y023202D01*
X002530Y022964D02*
X007219Y022964D01*
X007781Y022964D02*
X007925Y022964D01*
X007979Y022725D02*
X002530Y022725D01*
X002530Y022487D02*
X004480Y022487D01*
X004241Y022248D02*
X002530Y022248D01*
X002530Y022010D02*
X004135Y022010D01*
X004090Y021771D02*
X002530Y021771D01*
X002530Y021533D02*
X004093Y021533D01*
X004192Y021294D02*
X002530Y021294D01*
X002530Y021056D02*
X004378Y021056D01*
X004802Y020817D02*
X002530Y020817D01*
X002530Y020579D02*
X005621Y020579D01*
X005488Y020817D02*
X005198Y020817D01*
X005910Y021771D02*
X005945Y021771D01*
X005520Y022487D02*
X008170Y022487D01*
X004671Y024872D02*
X002530Y024872D01*
X002530Y025110D02*
X004323Y025110D01*
X004169Y025349D02*
X002530Y025349D01*
X002530Y025587D02*
X004090Y025587D01*
X004090Y025826D02*
X002530Y025826D01*
X002530Y026064D02*
X004158Y026064D01*
X004296Y026303D02*
X002530Y026303D01*
X002530Y026541D02*
X004604Y026541D01*
X005396Y026541D02*
X005454Y026541D01*
X005553Y026780D02*
X002530Y026780D01*
X002530Y027018D02*
X005781Y027018D01*
X004980Y027495D02*
X018563Y027495D01*
X021340Y025110D02*
X021980Y025110D01*
X022113Y024872D02*
X021463Y024872D01*
X021470Y024633D02*
X027823Y024633D01*
X028177Y024633D02*
X028600Y024633D01*
X028600Y024395D02*
X021470Y024395D01*
X021470Y024156D02*
X025785Y024156D01*
X026000Y024156D02*
X026000Y024156D01*
X026215Y024156D02*
X028600Y024156D01*
X028600Y023918D02*
X026453Y023918D01*
X026460Y023679D02*
X028600Y023679D01*
X028600Y023441D02*
X026371Y023441D01*
X026253Y023202D02*
X028600Y023202D01*
X028600Y022964D02*
X026492Y022964D01*
X026520Y022725D02*
X028600Y022725D01*
X028600Y022487D02*
X026502Y022487D01*
X026263Y022248D02*
X028600Y022248D01*
X028600Y022010D02*
X025650Y022010D01*
X025650Y022248D02*
X025737Y022248D01*
X025250Y021970D02*
X025250Y023220D01*
X025526Y023679D02*
X025540Y023679D01*
X025547Y023918D02*
X021426Y023918D01*
X021249Y023679D02*
X024974Y023679D01*
X026000Y023679D02*
X026000Y023679D01*
X026000Y023441D02*
X026000Y023441D01*
X026000Y023918D02*
X026000Y023918D01*
X023613Y024872D02*
X022887Y024872D01*
X023020Y025110D02*
X023480Y025110D01*
X020890Y024440D02*
X020890Y024110D01*
X019500Y022720D01*
X019580Y023918D02*
X020132Y023918D01*
X022923Y021533D02*
X023577Y021533D01*
X023480Y021294D02*
X023020Y021294D01*
X023020Y021056D02*
X023480Y021056D01*
X023668Y020817D02*
X022832Y020817D01*
X024000Y021220D02*
X024500Y021220D01*
X025250Y021970D01*
X025601Y021771D02*
X027736Y021771D01*
X027469Y021533D02*
X025378Y021533D01*
X025477Y021631D02*
X025477Y021631D01*
X025140Y021294D02*
X027390Y021294D01*
X027408Y021056D02*
X024901Y021056D01*
X024332Y020817D02*
X027540Y020817D01*
X028264Y021771D02*
X028485Y021771D01*
X029400Y022010D02*
X029433Y022010D01*
X029400Y022248D02*
X029631Y022248D01*
X029400Y022487D02*
X030350Y022487D01*
X030439Y022725D02*
X029400Y022725D01*
X029400Y022964D02*
X030678Y022964D01*
X030916Y023202D02*
X029400Y023202D01*
X029400Y023441D02*
X031155Y023441D01*
X031393Y023679D02*
X029400Y023679D01*
X029400Y023918D02*
X031632Y023918D01*
X031870Y024156D02*
X030296Y024156D01*
X030552Y024395D02*
X032109Y024395D01*
X032347Y024633D02*
X030634Y024633D01*
X030624Y024872D02*
X032283Y024872D01*
X032044Y025110D02*
X030507Y025110D01*
X030140Y025349D02*
X031806Y025349D01*
X031567Y025587D02*
X029400Y025587D01*
X029400Y025349D02*
X029860Y025349D01*
X029493Y025110D02*
X029400Y025110D01*
X029400Y024395D02*
X029448Y024395D01*
X029400Y024156D02*
X029704Y024156D01*
X028600Y024872D02*
X028514Y024872D01*
X029389Y025826D02*
X031329Y025826D01*
X031132Y026064D02*
X029222Y026064D01*
X028983Y026303D02*
X029520Y026303D01*
X029388Y026541D02*
X028745Y026541D01*
X028243Y026780D02*
X029366Y026780D01*
X030361Y027257D02*
X030898Y027257D01*
X031100Y027018D02*
X030563Y027018D01*
X030634Y026780D02*
X031100Y026780D01*
X031100Y026541D02*
X030612Y026541D01*
X030480Y026303D02*
X031100Y026303D01*
X031500Y026220D02*
X031500Y027220D01*
X030500Y028220D01*
X028000Y028220D01*
X027000Y029220D01*
X027419Y029403D02*
X029445Y029403D01*
X029462Y029361D02*
X029641Y029182D01*
X029874Y029086D01*
X030126Y029086D01*
X030359Y029182D01*
X030538Y029361D01*
X030634Y029594D01*
X030634Y029846D01*
X030538Y030079D01*
X030359Y030258D01*
X030126Y030354D01*
X029874Y030354D01*
X029641Y030258D01*
X029462Y030079D01*
X029366Y029846D01*
X029366Y029594D01*
X029462Y029361D01*
X029683Y029165D02*
X027621Y029165D01*
X027860Y028926D02*
X033228Y028926D01*
X033467Y028688D02*
X028098Y028688D01*
X026581Y029403D02*
X025650Y029403D01*
X025650Y029165D02*
X025794Y029165D01*
X025250Y029470D02*
X025250Y028220D01*
X026000Y028449D02*
X026000Y028449D01*
X025250Y029470D02*
X024500Y030220D01*
X024000Y030220D01*
X024639Y030596D02*
X027513Y030596D01*
X027397Y030357D02*
X024929Y030357D01*
X025167Y030119D02*
X027390Y030119D01*
X027481Y029880D02*
X025406Y029880D01*
X025612Y029642D02*
X026823Y029642D01*
X027177Y029642D02*
X027803Y029642D01*
X028197Y029642D02*
X029366Y029642D01*
X029380Y029880D02*
X028519Y029880D01*
X028610Y030119D02*
X029501Y030119D01*
X028603Y030357D02*
X043023Y030357D01*
X042865Y030119D02*
X037499Y030119D01*
X037538Y030079D02*
X037359Y030258D01*
X037126Y030354D01*
X036874Y030354D01*
X036641Y030258D01*
X036462Y030079D01*
X036366Y029846D01*
X036366Y029594D01*
X036462Y029361D01*
X036641Y029182D01*
X036874Y029086D01*
X037126Y029086D01*
X037359Y029182D01*
X037538Y029361D01*
X037634Y029594D01*
X037634Y029846D01*
X037538Y030079D01*
X037620Y029880D02*
X042756Y029880D01*
X042681Y029642D02*
X037634Y029642D01*
X037555Y029403D02*
X042646Y029403D01*
X042628Y029165D02*
X037317Y029165D01*
X036683Y029165D02*
X035317Y029165D01*
X035359Y029182D02*
X035538Y029361D01*
X035634Y029594D01*
X035634Y029846D01*
X035538Y030079D01*
X035359Y030258D01*
X035126Y030354D01*
X034874Y030354D01*
X034641Y030258D01*
X034462Y030079D01*
X034366Y029846D01*
X034366Y029594D01*
X034462Y029361D01*
X034641Y029182D01*
X034874Y029086D01*
X035126Y029086D01*
X035359Y029182D01*
X035555Y029403D02*
X036445Y029403D01*
X036366Y029642D02*
X035634Y029642D01*
X035620Y029880D02*
X036380Y029880D01*
X036501Y030119D02*
X035499Y030119D01*
X034501Y030119D02*
X033499Y030119D01*
X033620Y029880D02*
X034380Y029880D01*
X034366Y029642D02*
X033644Y029642D01*
X033883Y029403D02*
X034445Y029403D01*
X034683Y029165D02*
X034121Y029165D01*
X034360Y028926D02*
X042662Y028926D01*
X042697Y028688D02*
X034593Y028688D01*
X034650Y028449D02*
X042806Y028449D01*
X042915Y028211D02*
X034650Y028211D01*
X034650Y027972D02*
X043119Y027972D01*
X043371Y027734D02*
X034650Y027734D01*
X034650Y027495D02*
X043770Y027495D01*
X043719Y027018D02*
X046212Y027018D01*
X046212Y026780D02*
X043947Y026780D01*
X043937Y026804D02*
X043725Y027015D01*
X043449Y027130D01*
X043150Y027130D01*
X042873Y027015D01*
X042661Y026804D01*
X042547Y026527D01*
X042547Y026228D01*
X042661Y025951D01*
X042873Y025740D01*
X043150Y025625D01*
X043449Y025625D01*
X043590Y025684D01*
X043590Y025539D01*
X043729Y025205D01*
X043985Y024949D01*
X044319Y024810D01*
X044681Y024810D01*
X045015Y024949D01*
X045271Y025205D01*
X045410Y025539D01*
X045410Y025901D01*
X045271Y026235D01*
X045015Y026491D01*
X044681Y026630D01*
X044319Y026630D01*
X044052Y026519D01*
X044052Y026527D01*
X043937Y026804D01*
X044046Y026541D02*
X044104Y026541D01*
X044896Y026541D02*
X046212Y026541D01*
X046212Y026303D02*
X045204Y026303D01*
X045342Y026064D02*
X046212Y026064D01*
X046212Y025826D02*
X045410Y025826D01*
X045410Y025587D02*
X046212Y025587D01*
X046212Y025349D02*
X045331Y025349D01*
X045177Y025110D02*
X046212Y025110D01*
X046212Y024872D02*
X044829Y024872D01*
X044171Y024872D02*
X041412Y024872D01*
X041488Y024796D02*
X041326Y024958D01*
X041114Y025045D01*
X040886Y025045D01*
X040674Y024958D01*
X040512Y024796D01*
X040425Y024584D01*
X040425Y024356D01*
X040512Y024144D01*
X040674Y023982D01*
X040704Y023970D01*
X040674Y023958D01*
X040512Y023796D01*
X040425Y023584D01*
X040425Y023356D01*
X040512Y023144D01*
X040674Y022982D01*
X040886Y022895D01*
X041114Y022895D01*
X041326Y022982D01*
X041425Y023081D01*
X041425Y022856D01*
X041512Y022644D01*
X041674Y022482D01*
X041886Y022395D01*
X042114Y022395D01*
X042326Y022482D01*
X042488Y022644D01*
X042575Y022856D01*
X042575Y023084D01*
X042488Y023296D01*
X042326Y023458D01*
X042296Y023470D01*
X042326Y023482D01*
X042488Y023644D01*
X042575Y023856D01*
X042575Y024084D01*
X042488Y024296D01*
X042326Y024458D01*
X042114Y024545D01*
X041886Y024545D01*
X041674Y024458D01*
X041575Y024359D01*
X041575Y024584D01*
X041488Y024796D01*
X041555Y024633D02*
X046212Y024633D01*
X046212Y024395D02*
X042389Y024395D01*
X042546Y024156D02*
X046212Y024156D01*
X046212Y023918D02*
X042575Y023918D01*
X042502Y023679D02*
X046212Y023679D01*
X046212Y023441D02*
X042343Y023441D01*
X042527Y023202D02*
X046212Y023202D01*
X046212Y022964D02*
X042575Y022964D01*
X042521Y022725D02*
X046212Y022725D01*
X046212Y022487D02*
X045020Y022487D01*
X045015Y022491D02*
X044681Y022630D01*
X044319Y022630D01*
X043985Y022491D01*
X043729Y022235D01*
X043590Y021901D01*
X043590Y021756D01*
X043449Y021815D01*
X043150Y021815D01*
X042873Y021700D01*
X042661Y021489D01*
X042547Y021212D01*
X042547Y020913D01*
X042661Y020636D01*
X042873Y020425D01*
X043150Y020310D01*
X043449Y020310D01*
X043725Y020425D01*
X043937Y020636D01*
X044052Y020913D01*
X044052Y020921D01*
X044319Y020810D01*
X044681Y020810D01*
X045015Y020949D01*
X045271Y021205D01*
X045410Y021539D01*
X045410Y021901D01*
X045271Y022235D01*
X045015Y022491D01*
X045259Y022248D02*
X046212Y022248D01*
X046212Y022010D02*
X045365Y022010D01*
X045410Y021771D02*
X046212Y021771D01*
X046212Y021533D02*
X045407Y021533D01*
X045308Y021294D02*
X046212Y021294D01*
X046212Y021056D02*
X045122Y021056D01*
X044698Y020817D02*
X046212Y020817D01*
X046212Y020579D02*
X043879Y020579D01*
X044012Y020817D02*
X044302Y020817D01*
X043521Y020340D02*
X046212Y020340D01*
X046212Y020102D02*
X039900Y020102D01*
X039900Y020340D02*
X043077Y020340D01*
X042719Y020579D02*
X039900Y020579D01*
X039900Y020817D02*
X042586Y020817D01*
X042547Y021056D02*
X039900Y021056D01*
X039900Y021294D02*
X042581Y021294D01*
X042705Y021533D02*
X039900Y021533D01*
X039900Y021771D02*
X043043Y021771D01*
X043555Y021771D02*
X043590Y021771D01*
X043635Y022010D02*
X039900Y022010D01*
X039900Y022248D02*
X043741Y022248D01*
X043980Y022487D02*
X042330Y022487D01*
X041670Y022487D02*
X039900Y022487D01*
X039900Y022725D02*
X041479Y022725D01*
X041425Y022964D02*
X041281Y022964D01*
X040719Y022964D02*
X039900Y022964D01*
X039900Y023202D02*
X040488Y023202D01*
X040425Y023441D02*
X039956Y023441D01*
X040020Y023679D02*
X040464Y023679D01*
X040634Y023918D02*
X040020Y023918D01*
X039799Y024156D02*
X040507Y024156D01*
X040425Y024395D02*
X037552Y024395D01*
X037538Y024361D02*
X037634Y024594D01*
X037634Y024846D01*
X037538Y025079D01*
X037359Y025258D01*
X037126Y025354D01*
X036874Y025354D01*
X036641Y025258D01*
X036462Y025079D01*
X036366Y024846D01*
X036366Y024594D01*
X036462Y024361D01*
X036641Y024182D01*
X036874Y024086D01*
X037126Y024086D01*
X037359Y024182D01*
X037538Y024361D01*
X037634Y024633D02*
X040445Y024633D01*
X040588Y024872D02*
X037624Y024872D01*
X037507Y025110D02*
X043823Y025110D01*
X043669Y025349D02*
X037140Y025349D01*
X036860Y025349D02*
X035140Y025349D01*
X034860Y025349D02*
X034650Y025349D01*
X034650Y025587D02*
X043590Y025587D01*
X042787Y025826D02*
X034650Y025826D01*
X034650Y026064D02*
X042615Y026064D01*
X042547Y026303D02*
X037480Y026303D01*
X037538Y026361D02*
X037634Y026594D01*
X037634Y026846D01*
X037538Y027079D01*
X037359Y027258D01*
X037126Y027354D01*
X036874Y027354D01*
X036641Y027258D01*
X036462Y027079D01*
X036366Y026846D01*
X036366Y026594D01*
X036462Y026361D01*
X036641Y026182D01*
X036874Y026086D01*
X037126Y026086D01*
X037359Y026182D01*
X037538Y026361D01*
X037612Y026541D02*
X042553Y026541D01*
X042651Y026780D02*
X037634Y026780D01*
X037563Y027018D02*
X042879Y027018D01*
X045230Y027495D02*
X046212Y027495D01*
X046212Y027257D02*
X037361Y027257D01*
X036639Y027257D02*
X035361Y027257D01*
X035563Y027018D02*
X036437Y027018D01*
X036366Y026780D02*
X035634Y026780D01*
X035612Y026541D02*
X036388Y026541D01*
X036520Y026303D02*
X035480Y026303D01*
X033850Y026541D02*
X033745Y026541D01*
X033850Y026780D02*
X033634Y026780D01*
X033563Y027018D02*
X033850Y027018D01*
X033850Y027257D02*
X033361Y027257D01*
X033850Y027495D02*
X031791Y027495D01*
X031900Y027257D02*
X032639Y027257D01*
X032437Y027018D02*
X031900Y027018D01*
X031900Y026780D02*
X032366Y026780D01*
X032388Y026541D02*
X031900Y026541D01*
X031983Y026303D02*
X032520Y026303D01*
X032222Y026064D02*
X033090Y026064D01*
X033329Y025826D02*
X032460Y025826D01*
X032699Y025587D02*
X033350Y025587D01*
X033350Y025349D02*
X033140Y025349D01*
X033000Y024720D02*
X031500Y026220D01*
X033000Y026720D02*
X033750Y025970D01*
X033750Y024470D01*
X031500Y022220D01*
X031500Y018220D01*
X033000Y016720D01*
X033750Y015970D01*
X033750Y014470D01*
X031500Y012220D01*
X031500Y008220D01*
X033000Y006720D01*
X033000Y004720D02*
X030750Y006970D01*
X030750Y012470D01*
X033000Y014720D01*
X030750Y016970D01*
X030750Y022470D01*
X033000Y024720D01*
X034250Y023970D02*
X034250Y028470D01*
X033000Y029720D01*
X032501Y030119D02*
X030499Y030119D01*
X030620Y029880D02*
X032380Y029880D01*
X032366Y029642D02*
X030634Y029642D01*
X030555Y029403D02*
X032445Y029403D01*
X032683Y029165D02*
X030317Y029165D01*
X030837Y028449D02*
X033705Y028449D01*
X033850Y028211D02*
X031075Y028211D01*
X031314Y027972D02*
X033850Y027972D01*
X033850Y027734D02*
X031552Y027734D01*
X035507Y025110D02*
X036493Y025110D01*
X036376Y024872D02*
X035624Y024872D01*
X035634Y024633D02*
X036366Y024633D01*
X036448Y024395D02*
X035552Y024395D01*
X035296Y024156D02*
X036704Y024156D01*
X037296Y024156D02*
X038201Y024156D01*
X037980Y023918D02*
X034650Y023918D01*
X034650Y024156D02*
X034704Y024156D01*
X034250Y023970D02*
X032250Y021970D01*
X032250Y020470D01*
X033000Y019720D01*
X034250Y018470D01*
X034250Y013970D01*
X032250Y011970D01*
X032250Y010470D01*
X033000Y009720D01*
X034400Y009369D02*
X034459Y009369D01*
X034400Y009131D02*
X034766Y009131D01*
X035234Y009131D02*
X036766Y009131D01*
X036459Y009369D02*
X035541Y009369D01*
X035533Y010085D02*
X036467Y010085D01*
X036798Y010323D02*
X035202Y010323D01*
X034798Y010323D02*
X034400Y010323D01*
X034400Y010085D02*
X034467Y010085D01*
X034000Y011220D02*
X033500Y011720D01*
X035750Y013970D01*
X035386Y012231D02*
X036614Y012231D01*
X036641Y012258D02*
X036462Y012079D01*
X036366Y011846D01*
X036366Y011594D01*
X036462Y011361D01*
X036641Y011182D01*
X036874Y011086D01*
X037126Y011086D01*
X037359Y011182D01*
X037538Y011361D01*
X037634Y011594D01*
X037634Y011846D01*
X037538Y012079D01*
X037359Y012258D01*
X037126Y012354D01*
X036874Y012354D01*
X036641Y012258D01*
X036426Y011993D02*
X035574Y011993D01*
X035634Y011754D02*
X036366Y011754D01*
X036398Y011516D02*
X035602Y011516D01*
X035454Y011277D02*
X036546Y011277D01*
X037454Y011277D02*
X039100Y011277D01*
X039100Y011516D02*
X037602Y011516D01*
X037634Y011754D02*
X039100Y011754D01*
X039100Y011993D02*
X037574Y011993D01*
X037386Y012231D02*
X039100Y012231D01*
X039900Y012231D02*
X046212Y012231D01*
X046212Y011993D02*
X039900Y011993D01*
X039900Y011754D02*
X046212Y011754D01*
X046212Y011516D02*
X039900Y011516D01*
X039900Y012470D02*
X042828Y012470D01*
X042873Y012425D02*
X043150Y012310D01*
X043449Y012310D01*
X043725Y012425D01*
X043937Y012636D01*
X044052Y012913D01*
X044052Y012921D01*
X044319Y012810D01*
X044681Y012810D01*
X045015Y012949D01*
X045271Y013205D01*
X045410Y013539D01*
X045410Y013901D01*
X045271Y014235D01*
X045015Y014491D01*
X044681Y014630D01*
X044319Y014630D01*
X043985Y014491D01*
X043729Y014235D01*
X043590Y013901D01*
X043590Y013756D01*
X043449Y013815D01*
X043150Y013815D01*
X042873Y013700D01*
X042661Y013489D01*
X042547Y013212D01*
X042547Y012913D01*
X042661Y012636D01*
X042873Y012425D01*
X042632Y012708D02*
X039900Y012708D01*
X039900Y012947D02*
X042547Y012947D01*
X042547Y013185D02*
X039900Y013185D01*
X039900Y013424D02*
X042634Y013424D01*
X042835Y013662D02*
X039900Y013662D01*
X039900Y013901D02*
X043590Y013901D01*
X043689Y014139D02*
X039900Y014139D01*
X039900Y014378D02*
X043871Y014378D01*
X044285Y014616D02*
X042460Y014616D01*
X042488Y014644D02*
X042575Y014856D01*
X042575Y015084D01*
X042488Y015296D01*
X042326Y015458D01*
X042296Y015470D01*
X042326Y015482D01*
X042488Y015644D01*
X042575Y015856D01*
X042575Y016084D01*
X042488Y016296D01*
X042326Y016458D01*
X042114Y016545D01*
X041886Y016545D01*
X041674Y016458D01*
X041575Y016359D01*
X041575Y016584D01*
X041488Y016796D01*
X041326Y016958D01*
X041114Y017045D01*
X040886Y017045D01*
X040674Y016958D01*
X040512Y016796D01*
X040425Y016584D01*
X040425Y016356D01*
X040512Y016144D01*
X040674Y015982D01*
X040704Y015970D01*
X040674Y015958D01*
X040512Y015796D01*
X040425Y015584D01*
X040425Y015356D01*
X040512Y015144D01*
X040674Y014982D01*
X040886Y014895D01*
X041114Y014895D01*
X041326Y014982D01*
X041425Y015081D01*
X041425Y014856D01*
X041512Y014644D01*
X041674Y014482D01*
X041886Y014395D01*
X042114Y014395D01*
X042326Y014482D01*
X042488Y014644D01*
X042575Y014855D02*
X046212Y014855D01*
X046212Y015093D02*
X042572Y015093D01*
X042452Y015332D02*
X046212Y015332D01*
X046212Y015570D02*
X042414Y015570D01*
X042556Y015809D02*
X046212Y015809D01*
X046212Y016047D02*
X042575Y016047D01*
X042492Y016286D02*
X046212Y016286D01*
X046212Y016524D02*
X042166Y016524D01*
X041834Y016524D02*
X041575Y016524D01*
X041502Y016763D02*
X046212Y016763D01*
X046212Y017001D02*
X045068Y017001D01*
X045015Y016949D02*
X045271Y017205D01*
X045410Y017539D01*
X045410Y017901D01*
X045271Y018235D01*
X045015Y018491D01*
X044681Y018630D01*
X044319Y018630D01*
X044052Y018519D01*
X044052Y018527D01*
X043937Y018804D01*
X043725Y019015D01*
X043449Y019130D01*
X043150Y019130D01*
X042873Y019015D01*
X042661Y018804D01*
X042547Y018527D01*
X042547Y018228D01*
X042661Y017951D01*
X042873Y017740D01*
X043150Y017625D01*
X043449Y017625D01*
X043590Y017684D01*
X043590Y017539D01*
X043729Y017205D01*
X043985Y016949D01*
X044319Y016810D01*
X044681Y016810D01*
X045015Y016949D01*
X045286Y017240D02*
X046212Y017240D01*
X046212Y017478D02*
X045385Y017478D01*
X045410Y017717D02*
X046212Y017717D01*
X046212Y017955D02*
X045388Y017955D01*
X045289Y018194D02*
X046212Y018194D01*
X046212Y018432D02*
X045075Y018432D01*
X043992Y018671D02*
X046212Y018671D01*
X046212Y018909D02*
X043832Y018909D01*
X042767Y018909D02*
X039900Y018909D01*
X039900Y018671D02*
X042606Y018671D01*
X042547Y018432D02*
X039900Y018432D01*
X039900Y018194D02*
X042561Y018194D01*
X042660Y017955D02*
X039900Y017955D01*
X039900Y017717D02*
X042929Y017717D01*
X043615Y017478D02*
X039900Y017478D01*
X039900Y017240D02*
X043714Y017240D01*
X043932Y017001D02*
X041221Y017001D01*
X040779Y017001D02*
X039900Y017001D01*
X039900Y016763D02*
X040498Y016763D01*
X040425Y016524D02*
X039900Y016524D01*
X039900Y016286D02*
X040454Y016286D01*
X040609Y016047D02*
X039908Y016047D01*
X040020Y015809D02*
X040525Y015809D01*
X040425Y015570D02*
X040020Y015570D01*
X039900Y015332D02*
X040435Y015332D01*
X040563Y015093D02*
X039900Y015093D01*
X039900Y014855D02*
X041425Y014855D01*
X041540Y014616D02*
X039900Y014616D01*
X039100Y015332D02*
X038847Y015332D01*
X038908Y016047D02*
X039092Y016047D01*
X039100Y016286D02*
X037463Y016286D01*
X037538Y016361D02*
X037634Y016594D01*
X037634Y016846D01*
X037538Y017079D01*
X037359Y017258D01*
X037126Y017354D01*
X036874Y017354D01*
X036641Y017258D01*
X036462Y017079D01*
X036366Y016846D01*
X036366Y016594D01*
X036462Y016361D01*
X036641Y016182D01*
X036874Y016086D01*
X037126Y016086D01*
X037359Y016182D01*
X037538Y016361D01*
X037605Y016524D02*
X039100Y016524D01*
X039100Y016763D02*
X037634Y016763D01*
X037570Y017001D02*
X039100Y017001D01*
X039100Y017240D02*
X037378Y017240D01*
X036622Y017240D02*
X036150Y017240D01*
X036150Y017478D02*
X039100Y017478D01*
X039100Y017717D02*
X036150Y017717D01*
X036150Y017955D02*
X039100Y017955D01*
X039100Y018194D02*
X036090Y018194D01*
X035854Y018432D02*
X039100Y018432D01*
X039100Y018671D02*
X035615Y018671D01*
X035377Y018909D02*
X039100Y018909D01*
X039100Y019148D02*
X037276Y019148D01*
X037359Y019182D02*
X037538Y019361D01*
X037634Y019594D01*
X037634Y019846D01*
X037538Y020079D01*
X037359Y020258D01*
X037126Y020354D01*
X036874Y020354D01*
X036641Y020258D01*
X036462Y020079D01*
X036366Y019846D01*
X036366Y019594D01*
X036462Y019361D01*
X036641Y019182D01*
X036874Y019086D01*
X037126Y019086D01*
X037359Y019182D01*
X037548Y019386D02*
X039100Y019386D01*
X039100Y019625D02*
X037634Y019625D01*
X037627Y019863D02*
X039100Y019863D01*
X039100Y020102D02*
X037516Y020102D01*
X037161Y020340D02*
X039100Y020340D01*
X039100Y020579D02*
X034400Y020579D01*
X034393Y020817D02*
X039100Y020817D01*
X039100Y021056D02*
X034230Y021056D01*
X033992Y021294D02*
X034529Y021294D01*
X034391Y021533D02*
X033753Y021533D01*
X033634Y021771D02*
X034366Y021771D01*
X035369Y022248D02*
X036631Y022248D01*
X036641Y022258D02*
X036462Y022079D01*
X036366Y021846D01*
X036366Y021594D01*
X036462Y021361D01*
X036641Y021182D01*
X036874Y021086D01*
X037126Y021086D01*
X037359Y021182D01*
X037538Y021361D01*
X037634Y021594D01*
X037634Y021846D01*
X037538Y022079D01*
X037359Y022258D01*
X037126Y022354D01*
X036874Y022354D01*
X036641Y022258D01*
X036433Y022010D02*
X035567Y022010D01*
X035634Y021771D02*
X036366Y021771D01*
X036391Y021533D02*
X035609Y021533D01*
X035471Y021294D02*
X036529Y021294D01*
X037471Y021294D02*
X039100Y021294D01*
X039100Y021533D02*
X037609Y021533D01*
X037634Y021771D02*
X039100Y021771D01*
X039100Y022010D02*
X037567Y022010D01*
X037369Y022248D02*
X039100Y022248D01*
X038283Y023202D02*
X034048Y023202D01*
X034286Y023441D02*
X038044Y023441D01*
X037980Y023679D02*
X034525Y023679D01*
X038799Y024156D02*
X039201Y024156D01*
X041575Y024395D02*
X041611Y024395D01*
X045629Y027734D02*
X046212Y027734D01*
X046212Y027972D02*
X045881Y027972D01*
X046085Y028211D02*
X046212Y028211D01*
X046194Y028449D02*
X046212Y028449D01*
X043269Y030641D02*
X043269Y030641D01*
X043230Y030596D02*
X028487Y030596D01*
X015155Y023441D02*
X014786Y023441D01*
X014916Y023202D02*
X014548Y023202D01*
X014678Y022964D02*
X014309Y022964D01*
X014439Y022725D02*
X014071Y022725D01*
X014002Y022487D02*
X014201Y022487D01*
X013962Y022248D02*
X013763Y022248D01*
X013724Y022010D02*
X013355Y022010D01*
X013485Y021771D02*
X013117Y021771D01*
X013077Y021533D02*
X012878Y021533D01*
X012980Y021294D02*
X012640Y021294D01*
X012770Y021056D02*
X012401Y021056D01*
X012400Y020817D02*
X012607Y020817D01*
X012600Y020579D02*
X012400Y020579D01*
X012400Y020340D02*
X012600Y020340D01*
X012600Y020102D02*
X012400Y020102D01*
X012400Y019863D02*
X012600Y019863D01*
X012600Y019625D02*
X012400Y019625D01*
X012400Y019386D02*
X012600Y019386D01*
X012600Y019148D02*
X012400Y019148D01*
X013000Y018720D02*
X013000Y020720D01*
X013832Y020817D02*
X017252Y020817D01*
X017040Y021056D02*
X014020Y021056D01*
X014140Y021294D02*
X017040Y021294D01*
X017162Y021533D02*
X014378Y021533D01*
X017960Y021294D02*
X018350Y021294D01*
X018350Y021056D02*
X017960Y021056D01*
X012768Y018194D02*
X012232Y018194D01*
X011768Y018194D02*
X011232Y018194D01*
X010768Y018194D02*
X010232Y018194D01*
X009768Y018194D02*
X009232Y018194D01*
X008768Y018194D02*
X008232Y018194D01*
X007768Y018194D02*
X007232Y018194D01*
X006768Y018194D02*
X006232Y018194D01*
X005768Y018194D02*
X005232Y018194D01*
X004768Y018194D02*
X004232Y018194D01*
X003768Y018194D02*
X003232Y018194D01*
X002768Y018194D02*
X002530Y018194D01*
X002530Y016524D02*
X007738Y016524D01*
X007500Y016286D02*
X002530Y016286D01*
X002530Y016047D02*
X007261Y016047D01*
X007023Y015809D02*
X002530Y015809D01*
X002530Y015570D02*
X006784Y015570D01*
X006546Y015332D02*
X002530Y015332D01*
X002530Y015093D02*
X006307Y015093D01*
X006069Y014855D02*
X002530Y014855D01*
X002530Y014616D02*
X005830Y014616D01*
X005632Y014378D02*
X002530Y014378D01*
X002530Y014139D02*
X005600Y014139D01*
X005600Y013901D02*
X002530Y013901D01*
X002530Y013662D02*
X005600Y013662D01*
X005600Y013424D02*
X002530Y013424D01*
X002530Y013185D02*
X002651Y013185D01*
X003349Y013185D02*
X003651Y013185D01*
X004349Y013185D02*
X004651Y013185D01*
X005349Y013185D02*
X005600Y013185D01*
X005677Y012231D02*
X005323Y012231D01*
X004677Y012231D02*
X004323Y012231D01*
X003677Y012231D02*
X003323Y012231D01*
X002677Y012231D02*
X002530Y012231D01*
X002530Y011993D02*
X013600Y011993D01*
X013600Y012231D02*
X013323Y012231D01*
X014000Y012720D02*
X014000Y011220D01*
X014449Y010771D01*
X014449Y010720D01*
X014449Y008271D01*
X015000Y007720D01*
X015000Y006220D01*
X014508Y005728D01*
X014508Y002710D01*
X015131Y002453D02*
X015951Y002453D01*
X015895Y002691D02*
X015182Y002691D01*
X015147Y002930D02*
X015934Y002930D01*
X016098Y003168D02*
X015003Y003168D01*
X014965Y002214D02*
X016147Y002214D01*
X016500Y002930D02*
X016516Y002930D01*
X016500Y003168D02*
X016516Y003168D01*
X016000Y005685D02*
X016000Y006220D01*
X016000Y006220D01*
X016000Y005685D01*
X016000Y005792D02*
X016000Y005792D01*
X016000Y006030D02*
X016000Y006030D01*
X016000Y006269D02*
X016000Y006269D01*
X016000Y006507D02*
X016000Y006507D01*
X016000Y006746D02*
X016000Y006746D01*
X015769Y006746D02*
X015400Y006746D01*
X015400Y006984D02*
X018530Y006984D01*
X018530Y006746D02*
X016231Y006746D01*
X016470Y006507D02*
X018562Y006507D01*
X018530Y006585D02*
X018618Y006371D01*
X018781Y006208D01*
X018995Y006120D01*
X019225Y006120D01*
X019439Y006208D01*
X019602Y006371D01*
X019690Y006585D01*
X019690Y007415D01*
X019602Y007629D01*
X019510Y007720D01*
X019510Y008164D01*
X019546Y008200D01*
X019715Y008200D01*
X020020Y008505D01*
X020020Y008935D01*
X019715Y009240D01*
X019285Y009240D01*
X018980Y008935D01*
X018980Y008766D01*
X018771Y008557D01*
X018710Y008410D01*
X018710Y007720D01*
X018618Y007629D01*
X018530Y007415D01*
X018530Y006585D01*
X018721Y006269D02*
X016535Y006269D01*
X016535Y006030D02*
X021480Y006030D01*
X021480Y006005D02*
X021785Y005700D01*
X022215Y005700D01*
X022520Y006005D01*
X022520Y006435D01*
X022215Y006740D01*
X021785Y006740D01*
X021480Y006435D01*
X021480Y006005D01*
X021480Y006269D02*
X021181Y006269D01*
X021163Y006255D02*
X021229Y006303D01*
X021287Y006361D01*
X021335Y006427D01*
X021372Y006500D01*
X021397Y006578D01*
X021410Y006659D01*
X021410Y007000D01*
X021410Y007341D01*
X021397Y007422D01*
X021372Y007500D01*
X021335Y007573D01*
X021287Y007639D01*
X021229Y007697D01*
X021163Y007745D01*
X021090Y007782D01*
X021012Y007807D01*
X020931Y007820D01*
X020890Y007820D01*
X020890Y007000D01*
X021410Y007000D01*
X020890Y007000D01*
X020890Y007000D01*
X020890Y007000D01*
X020890Y006180D01*
X020931Y006180D01*
X021012Y006193D01*
X021090Y006218D01*
X021163Y006255D01*
X020890Y006269D02*
X020890Y006269D01*
X020890Y006180D02*
X020890Y007000D01*
X020890Y007000D01*
X020890Y007000D01*
X020370Y007000D01*
X020370Y007341D01*
X020383Y007422D01*
X020408Y007500D01*
X020445Y007573D01*
X020493Y007639D01*
X020551Y007697D01*
X020617Y007745D01*
X020690Y007782D01*
X020768Y007807D01*
X020849Y007820D01*
X020890Y007820D01*
X020890Y007000D01*
X020370Y007000D01*
X020370Y006659D01*
X020383Y006578D01*
X020408Y006500D01*
X020445Y006427D01*
X020493Y006361D01*
X020551Y006303D01*
X020617Y006255D01*
X020690Y006218D01*
X020768Y006193D01*
X020849Y006180D01*
X020890Y006180D01*
X020599Y006269D02*
X019499Y006269D01*
X019658Y006507D02*
X020406Y006507D01*
X020370Y006746D02*
X019690Y006746D01*
X019690Y006984D02*
X020370Y006984D01*
X020370Y007223D02*
X019690Y007223D01*
X019671Y007461D02*
X020396Y007461D01*
X020555Y007700D02*
X019531Y007700D01*
X019510Y007938D02*
X024797Y007938D01*
X024730Y008177D02*
X019522Y008177D01*
X019110Y008330D02*
X019500Y008720D01*
X020020Y008654D02*
X024850Y008654D01*
X024850Y008892D02*
X020020Y008892D01*
X019825Y009131D02*
X024850Y009131D01*
X024785Y009369D02*
X014849Y009369D01*
X014849Y009131D02*
X019175Y009131D01*
X018980Y008892D02*
X014849Y008892D01*
X014849Y008654D02*
X018868Y008654D01*
X018712Y008415D02*
X014871Y008415D01*
X015109Y008177D02*
X018710Y008177D01*
X018710Y007938D02*
X015343Y007938D01*
X015400Y007700D02*
X018689Y007700D01*
X018549Y007461D02*
X015400Y007461D01*
X015400Y007223D02*
X018530Y007223D01*
X019110Y007000D02*
X019110Y008330D01*
X019930Y008415D02*
X024730Y008415D01*
X025250Y008220D02*
X025250Y009470D01*
X024500Y010220D01*
X024000Y010220D01*
X023639Y009846D02*
X022361Y009846D01*
X022215Y009700D02*
X022520Y010005D01*
X022520Y010435D01*
X022235Y010720D01*
X022520Y011005D01*
X022520Y011435D01*
X022215Y011740D01*
X021785Y011740D01*
X021480Y011435D01*
X021480Y011005D01*
X021765Y010720D01*
X021480Y010435D01*
X021480Y010005D01*
X021785Y009700D01*
X022215Y009700D01*
X022520Y010085D02*
X023480Y010085D01*
X023480Y010323D02*
X022520Y010323D01*
X022394Y010562D02*
X023606Y010562D01*
X023685Y010800D02*
X022315Y010800D01*
X022520Y011039D02*
X023480Y011039D01*
X023480Y011277D02*
X022520Y011277D01*
X022440Y011516D02*
X023560Y011516D01*
X024000Y011220D02*
X024500Y011220D01*
X025250Y011970D01*
X025250Y013220D01*
X026000Y013424D02*
X026000Y013424D01*
X026000Y013662D02*
X026000Y013662D01*
X026000Y013901D02*
X026000Y013901D01*
X026000Y014139D02*
X026000Y014139D01*
X026232Y014139D02*
X028600Y014139D01*
X028600Y013901D02*
X026460Y013901D01*
X026460Y013662D02*
X028600Y013662D01*
X028600Y013424D02*
X026354Y013424D01*
X026270Y013185D02*
X028600Y013185D01*
X028600Y012947D02*
X026509Y012947D01*
X026520Y012708D02*
X028600Y012708D01*
X028600Y012470D02*
X026485Y012470D01*
X026246Y012231D02*
X028600Y012231D01*
X028600Y011993D02*
X025650Y011993D01*
X025650Y012231D02*
X025754Y012231D01*
X025593Y011754D02*
X027695Y011754D01*
X027462Y011516D02*
X025361Y011516D01*
X025123Y011277D02*
X027390Y011277D01*
X027415Y011039D02*
X024884Y011039D01*
X024315Y010800D02*
X027557Y010800D01*
X027481Y010562D02*
X024721Y010562D01*
X024963Y010323D02*
X027390Y010323D01*
X027396Y010085D02*
X025201Y010085D01*
X025440Y009846D02*
X027511Y009846D01*
X028489Y009846D02*
X028600Y009846D01*
X028600Y009608D02*
X025626Y009608D01*
X025650Y009369D02*
X028600Y009369D01*
X028600Y009131D02*
X026240Y009131D01*
X026000Y009131D02*
X026000Y009131D01*
X026000Y008892D02*
X026000Y008892D01*
X026000Y008720D02*
X026000Y008260D01*
X026000Y008720D01*
X026000Y008720D01*
X026000Y008654D02*
X026000Y008654D01*
X026000Y008415D02*
X026000Y008415D01*
X026346Y008415D02*
X028600Y008415D01*
X028600Y008177D02*
X026279Y008177D01*
X026517Y007938D02*
X028600Y007938D01*
X028600Y007700D02*
X026520Y007700D01*
X026476Y007461D02*
X028600Y007461D01*
X028600Y007223D02*
X026238Y007223D01*
X025762Y007223D02*
X021410Y007223D01*
X021410Y006984D02*
X028600Y006984D01*
X028460Y006746D02*
X028325Y006746D01*
X027675Y006746D02*
X021410Y006746D01*
X021374Y006507D02*
X021552Y006507D01*
X022448Y006507D02*
X023552Y006507D01*
X023480Y006269D02*
X022520Y006269D01*
X022520Y006030D02*
X023480Y006030D01*
X023600Y005792D02*
X022307Y005792D01*
X021693Y005792D02*
X016328Y005792D01*
X015672Y005792D02*
X015413Y005792D01*
X015525Y006507D02*
X015530Y006507D01*
X014049Y008415D02*
X011110Y008415D01*
X011313Y008654D02*
X014049Y008654D01*
X014049Y008892D02*
X011412Y008892D01*
X011430Y009131D02*
X014049Y009131D01*
X014049Y009369D02*
X011403Y009369D01*
X011305Y009608D02*
X014049Y009608D01*
X014049Y009846D02*
X011089Y009846D01*
X013642Y011039D02*
X002530Y011039D01*
X002530Y011277D02*
X013600Y011277D01*
X013600Y011516D02*
X002530Y011516D01*
X002530Y011754D02*
X013600Y011754D01*
X014400Y011754D02*
X024468Y011754D01*
X021560Y011516D02*
X014400Y011516D01*
X014957Y011277D02*
X015147Y011277D01*
X015514Y011277D02*
X015589Y011277D01*
X015589Y011039D02*
X015514Y011039D01*
X015514Y010800D02*
X015589Y010800D01*
X015589Y010683D02*
X016086Y010683D01*
X016086Y010337D01*
X016071Y010281D01*
X016042Y010231D01*
X016001Y010190D01*
X015951Y010161D01*
X015895Y010146D01*
X015589Y010146D01*
X015589Y010683D01*
X015589Y010562D02*
X015514Y010562D01*
X015514Y010323D02*
X015589Y010323D01*
X016082Y010323D02*
X021480Y010323D01*
X021480Y010085D02*
X014849Y010085D01*
X014849Y009846D02*
X021639Y009846D01*
X021606Y010562D02*
X016086Y010562D01*
X016086Y010800D02*
X021685Y010800D01*
X021480Y011039D02*
X016086Y011039D01*
X015955Y011277D02*
X021480Y011277D01*
X020548Y013662D02*
X020400Y013662D01*
X024370Y014855D02*
X027503Y014855D01*
X027392Y015093D02*
X024520Y015093D01*
X024520Y015332D02*
X027390Y015332D01*
X028497Y014855D02*
X028600Y014855D01*
X028477Y016763D02*
X028284Y016763D01*
X026000Y018260D02*
X026000Y018720D01*
X026000Y018720D01*
X026000Y018260D01*
X026000Y018432D02*
X026000Y018432D01*
X026000Y018671D02*
X026000Y018671D01*
X026000Y018909D02*
X026000Y018909D01*
X028506Y019863D02*
X028600Y019863D01*
X034400Y020102D02*
X034484Y020102D01*
X034400Y020340D02*
X034839Y020340D01*
X035161Y020340D02*
X036839Y020340D01*
X036484Y020102D02*
X035516Y020102D01*
X035627Y019863D02*
X036373Y019863D01*
X036366Y019625D02*
X035634Y019625D01*
X035548Y019386D02*
X036452Y019386D01*
X036724Y019148D02*
X035276Y019148D01*
X036150Y017001D02*
X036430Y017001D01*
X036366Y016763D02*
X036150Y016763D01*
X036150Y016524D02*
X036395Y016524D01*
X036537Y016286D02*
X036150Y016286D01*
X036150Y016047D02*
X038092Y016047D01*
X037980Y015809D02*
X036150Y015809D01*
X039900Y019148D02*
X046212Y019148D01*
X046212Y019386D02*
X039900Y019386D01*
X039900Y019625D02*
X046212Y019625D01*
X046212Y019863D02*
X039900Y019863D01*
X044715Y014616D02*
X046212Y014616D01*
X046212Y014378D02*
X045129Y014378D01*
X045311Y014139D02*
X046212Y014139D01*
X046212Y013901D02*
X045410Y013901D01*
X045410Y013662D02*
X046212Y013662D01*
X046212Y013424D02*
X045362Y013424D01*
X045252Y013185D02*
X046212Y013185D01*
X046212Y012947D02*
X045010Y012947D01*
X043967Y012708D02*
X046212Y012708D01*
X046212Y012470D02*
X043770Y012470D01*
X039024Y007461D02*
X038976Y007461D01*
X039100Y007223D02*
X038738Y007223D01*
X039100Y006984D02*
X037577Y006984D01*
X037538Y007079D02*
X037359Y007258D01*
X037126Y007354D01*
X036874Y007354D01*
X036641Y007258D01*
X036462Y007079D01*
X036366Y006846D01*
X036366Y006594D01*
X036462Y006361D01*
X036641Y006182D01*
X036874Y006086D01*
X037126Y006086D01*
X037359Y006182D01*
X037538Y006361D01*
X037634Y006594D01*
X037634Y006846D01*
X037538Y007079D01*
X037395Y007223D02*
X038262Y007223D01*
X037634Y006746D02*
X039100Y006746D01*
X039100Y006507D02*
X037598Y006507D01*
X037446Y006269D02*
X039100Y006269D01*
X039100Y005076D02*
X037539Y005076D01*
X037634Y004838D02*
X039100Y004838D01*
X039100Y004599D02*
X037634Y004599D01*
X037538Y004361D02*
X039100Y004361D01*
X039100Y003884D02*
X034400Y003884D01*
X034400Y004122D02*
X034786Y004122D01*
X034462Y004361D02*
X034400Y004361D01*
X034400Y003645D02*
X039100Y003645D01*
X039100Y003407D02*
X034400Y003407D01*
X034400Y003168D02*
X039100Y003168D01*
X039100Y002930D02*
X034400Y002930D01*
X034400Y002691D02*
X038905Y002691D01*
X038667Y002453D02*
X034400Y002453D01*
X034400Y002214D02*
X034597Y002214D01*
X034419Y001976D02*
X034321Y001976D01*
X034366Y001737D02*
X034083Y001737D01*
X033844Y001499D02*
X034405Y001499D01*
X034000Y002220D02*
X033500Y001720D01*
X033000Y001720D01*
X034000Y002220D02*
X034000Y011220D01*
X033500Y011720D02*
X033000Y011720D01*
X028468Y011754D02*
X028305Y011754D01*
X024547Y009608D02*
X014849Y009608D01*
X012677Y012231D02*
X012323Y012231D01*
X011677Y012231D02*
X011323Y012231D01*
X010677Y012231D02*
X010323Y012231D01*
X009677Y012231D02*
X009323Y012231D01*
X008677Y012231D02*
X008323Y012231D01*
X007677Y012231D02*
X007323Y012231D01*
X007400Y013185D02*
X007651Y013185D01*
X008349Y013185D02*
X008651Y013185D01*
X009349Y013185D02*
X009651Y013185D01*
X010349Y013185D02*
X010651Y013185D01*
X011349Y013185D02*
X011651Y013185D01*
X012349Y013185D02*
X012651Y013185D01*
X013349Y013185D02*
X013651Y013185D01*
X014349Y013185D02*
X014651Y013185D01*
X009500Y007220D02*
X006500Y010220D01*
X005450Y010220D01*
X004983Y009846D02*
X004433Y009846D01*
X004585Y010085D02*
X004862Y010085D01*
X004855Y010323D02*
X004585Y010323D01*
X004465Y010562D02*
X004950Y010562D01*
X004050Y010562D02*
X004050Y010562D01*
X004050Y010323D02*
X004050Y010323D01*
X004050Y010085D02*
X004050Y010085D01*
X004050Y009846D02*
X004050Y009846D01*
X006378Y007700D02*
X007117Y007700D01*
X006940Y007461D02*
X006683Y007461D01*
X006846Y007223D02*
X006890Y007223D01*
X006933Y006984D02*
X006937Y006984D01*
X006964Y006746D02*
X007112Y006746D01*
X006946Y006507D02*
X009100Y006507D01*
X009100Y006269D02*
X006875Y006269D01*
X006734Y006030D02*
X009100Y006030D01*
X009100Y005792D02*
X006466Y005792D01*
X005575Y005315D02*
X009100Y005315D01*
X009100Y005553D02*
X005383Y005553D01*
X005243Y005792D02*
X004875Y005792D01*
X004852Y005792D02*
X004612Y005792D01*
X004590Y005792D02*
X003681Y005792D01*
X003663Y005785D02*
X003766Y005821D01*
X003864Y005869D01*
X003957Y005927D01*
X004042Y005995D01*
X004119Y006072D01*
X004187Y006157D01*
X004245Y006249D01*
X004292Y006348D01*
X004328Y006451D01*
X004353Y006557D01*
X004358Y006600D01*
X004341Y006507D02*
X004762Y006507D01*
X004744Y006746D02*
X003514Y006746D01*
X003514Y006600D02*
X003514Y005756D01*
X003557Y005761D01*
X003663Y005785D01*
X003514Y005792D02*
X003274Y005792D01*
X003274Y005756D02*
X003274Y006600D01*
X003514Y006600D01*
X003514Y006507D02*
X003274Y006507D01*
X003274Y006600D02*
X002530Y006600D01*
X002530Y006840D01*
X003274Y006840D01*
X003274Y006600D01*
X003274Y006746D02*
X002530Y006746D01*
X002530Y006275D02*
X002542Y006249D01*
X002600Y006157D01*
X002668Y006072D01*
X002746Y005995D01*
X002831Y005927D01*
X002923Y005869D01*
X003021Y005821D01*
X003124Y005785D01*
X003231Y005761D01*
X003274Y005756D01*
X003107Y005792D02*
X002530Y005792D01*
X002530Y006030D02*
X002710Y006030D01*
X002533Y006269D02*
X002530Y006269D01*
X003274Y006269D02*
X003514Y006269D01*
X003514Y006030D02*
X003274Y006030D01*
X004077Y006030D02*
X004975Y006030D01*
X004833Y006269D02*
X004254Y006269D01*
X003514Y006984D02*
X003274Y006984D01*
X003274Y007223D02*
X003514Y007223D01*
X003514Y007461D02*
X003274Y007461D01*
X002765Y007461D02*
X002530Y007461D01*
X002530Y007223D02*
X002562Y007223D01*
X002530Y005553D02*
X004082Y005553D01*
X003890Y005315D02*
X002530Y005315D01*
X002530Y005076D02*
X003792Y005076D01*
X003789Y004599D02*
X002530Y004599D01*
X002530Y004361D02*
X003881Y004361D01*
X004067Y004122D02*
X002530Y004122D01*
X002530Y003884D02*
X003397Y003884D01*
X003025Y003645D02*
X002530Y003645D01*
X002530Y003407D02*
X002816Y003407D01*
X002637Y003168D02*
X002530Y003168D01*
X003019Y003641D02*
X003019Y003641D01*
X002530Y004838D02*
X004612Y004838D01*
X004612Y005076D02*
X004852Y005076D01*
X004852Y004838D02*
X009100Y004838D01*
X009100Y005076D02*
X005672Y005076D01*
X005676Y004599D02*
X009100Y004599D01*
X009100Y004361D02*
X005584Y004361D01*
X005398Y004122D02*
X009100Y004122D01*
X008978Y003884D02*
X005103Y003884D01*
X004852Y005315D02*
X004612Y005315D01*
X004612Y005553D02*
X004852Y005553D01*
X007888Y006746D02*
X009100Y006746D01*
X009100Y006984D02*
X008063Y006984D01*
X008110Y007223D02*
X008932Y007223D01*
X008693Y007461D02*
X008060Y007461D01*
X007883Y007700D02*
X008455Y007700D01*
X009500Y007220D02*
X009500Y003220D01*
X010022Y003884D02*
X010062Y003884D01*
X009900Y004122D02*
X011287Y004122D01*
X010978Y003884D02*
X010938Y003884D01*
X010500Y003884D02*
X010500Y003884D01*
X010500Y003645D02*
X010500Y003645D01*
X010500Y003407D02*
X010500Y003407D01*
X010500Y003220D02*
X010500Y002340D01*
X010500Y003220D01*
X010500Y003220D01*
X010500Y003168D02*
X010500Y003168D01*
X010500Y002930D02*
X010500Y002930D01*
X010500Y002691D02*
X010500Y002691D01*
X010500Y002453D02*
X010500Y002453D01*
X010834Y002453D02*
X011075Y002453D01*
X010166Y002453D02*
X009925Y002453D01*
X020890Y006507D02*
X020890Y006507D01*
X020890Y006746D02*
X020890Y006746D01*
X020890Y006984D02*
X020890Y006984D01*
X020890Y007223D02*
X020890Y007223D01*
X020890Y007461D02*
X020890Y007461D01*
X020890Y007700D02*
X020890Y007700D01*
X021225Y007700D02*
X025480Y007700D01*
X025524Y007461D02*
X021384Y007461D01*
X024000Y006220D02*
X024000Y005220D01*
X023647Y004838D02*
X021470Y004838D01*
X021470Y004599D02*
X028600Y004599D01*
X028600Y004361D02*
X021470Y004361D01*
X021374Y005076D02*
X023480Y005076D01*
X024353Y004838D02*
X027520Y004838D01*
X027399Y005076D02*
X024520Y005076D01*
X024520Y005315D02*
X027390Y005315D01*
X027478Y005553D02*
X024402Y005553D01*
X024400Y005792D02*
X027566Y005792D01*
X027418Y006030D02*
X024520Y006030D01*
X024520Y006269D02*
X027390Y006269D01*
X027459Y006507D02*
X024448Y006507D01*
X026460Y008654D02*
X028600Y008654D01*
X028600Y008892D02*
X026460Y008892D01*
X025760Y009131D02*
X025650Y009131D01*
X028480Y004838D02*
X028600Y004838D01*
X028600Y003168D02*
X026287Y003168D01*
X026520Y002930D02*
X028600Y002930D01*
X028600Y002691D02*
X026520Y002691D01*
X026468Y002453D02*
X028600Y002453D01*
X028600Y002214D02*
X026229Y002214D01*
X025771Y002214D02*
X025650Y002214D01*
X025650Y001976D02*
X028600Y001976D01*
X027390Y001260D02*
X025106Y001260D01*
X024867Y001022D02*
X027422Y001022D01*
X027574Y000783D02*
X024298Y000783D01*
X024500Y001220D02*
X024000Y001220D01*
X024500Y001220D02*
X025250Y001970D01*
X025250Y003220D01*
X035403Y002214D02*
X036597Y002214D01*
X036419Y001976D02*
X035581Y001976D01*
X035634Y001737D02*
X036366Y001737D01*
X036405Y001499D02*
X035595Y001499D01*
X037403Y002214D02*
X038428Y002214D01*
X038190Y001976D02*
X037581Y001976D01*
X037634Y001737D02*
X037951Y001737D01*
X037713Y001499D02*
X037595Y001499D01*
X036554Y006269D02*
X035446Y006269D01*
X035598Y006507D02*
X036402Y006507D01*
X036366Y006746D02*
X035634Y006746D01*
X035577Y006984D02*
X036423Y006984D01*
X036605Y007223D02*
X035395Y007223D01*
X045725Y003645D02*
X046212Y003645D01*
X046212Y003407D02*
X045934Y003407D01*
X046113Y003168D02*
X046212Y003168D01*
D26*
X010500Y023220D03*
X027000Y029220D03*
M02*
