G75*
%MOIN*%
%OFA0B0*%
%FSLAX24Y24*%
%IPPOS*%
%LPD*%
%AMOC8*
5,1,8,0,0,1.08239X$1,22.5*
%
%ADD10C,0.0660*%
%ADD11OC8,0.0480*%
%ADD12C,0.0945*%
%ADD13C,0.0591*%
%ADD14C,0.0709*%
%ADD15C,0.0600*%
%ADD16OC8,0.0850*%
%ADD17C,0.0660*%
%ADD18OC8,0.0630*%
%ADD19C,0.0630*%
%ADD20C,0.0787*%
%ADD21R,0.0591X0.0591*%
%ADD22C,0.1660*%
%ADD23C,0.1502*%
%ADD24C,0.0240*%
%ADD25C,0.0354*%
D10*
X007500Y003220D03*
X007500Y007220D03*
X028000Y006220D03*
X028000Y005220D03*
X028000Y001220D03*
X028000Y010220D03*
X028000Y011220D03*
X028000Y015220D03*
X028000Y016220D03*
X028000Y020220D03*
X028000Y021220D03*
X028000Y025220D03*
X028000Y026220D03*
X028000Y030220D03*
D11*
X026000Y028720D03*
X025250Y028220D03*
X026000Y027720D03*
X024000Y026220D03*
X024000Y025220D03*
X022500Y025220D03*
X025250Y023220D03*
X026000Y022720D03*
X026000Y023720D03*
X024000Y021220D03*
X022500Y021220D03*
X024000Y020220D03*
X026000Y018720D03*
X025250Y018220D03*
X026000Y017720D03*
X024000Y016220D03*
X024000Y015220D03*
X022000Y015220D03*
X025250Y013220D03*
X026000Y012720D03*
X026000Y013720D03*
X024000Y011220D03*
X024000Y010220D03*
X022000Y010220D03*
X022000Y011220D03*
X019500Y012720D03*
X019500Y008720D03*
X022000Y006220D03*
X024000Y006220D03*
X024000Y005220D03*
X026000Y003720D03*
X025250Y003220D03*
X026000Y002720D03*
X024000Y001220D03*
X026000Y007720D03*
X025250Y008220D03*
X026000Y008720D03*
X038500Y007720D03*
X039500Y007720D03*
X039500Y015720D03*
X038500Y015720D03*
X038500Y023720D03*
X039500Y023720D03*
X024000Y030220D03*
X017500Y024220D03*
X017500Y022720D03*
X017500Y021220D03*
X019500Y022720D03*
X021000Y022720D03*
X021000Y018720D03*
X019500Y018720D03*
X013500Y021220D03*
X013500Y022720D03*
X013500Y024220D03*
D12*
X006201Y026377D03*
X006201Y021063D03*
X043299Y021063D03*
X043299Y018377D03*
X043299Y013063D03*
X043299Y010377D03*
X043299Y005063D03*
X043299Y026377D03*
D13*
X041000Y024470D03*
X042000Y023970D03*
X041000Y023470D03*
X042000Y022970D03*
X041000Y016470D03*
X042000Y015970D03*
X041000Y015470D03*
X042000Y014970D03*
X041000Y008470D03*
X042000Y007970D03*
X041000Y007470D03*
X042000Y006970D03*
X017000Y012720D03*
X016000Y012720D03*
X015000Y012720D03*
X014000Y012720D03*
X013000Y012720D03*
X012000Y012720D03*
X011000Y012720D03*
X010000Y012720D03*
X009000Y012720D03*
X008000Y012720D03*
X007000Y012720D03*
X006000Y012720D03*
X005000Y012720D03*
X004000Y012720D03*
X003000Y012720D03*
X003000Y018720D03*
X004000Y018720D03*
X005000Y018720D03*
X006000Y018720D03*
X007000Y018720D03*
X008000Y018720D03*
X009000Y018720D03*
X010000Y018720D03*
X011000Y018720D03*
X012000Y018720D03*
X013000Y018720D03*
X014000Y018720D03*
X015000Y018720D03*
X016000Y018720D03*
X008500Y022970D03*
X007500Y023470D03*
X008500Y023970D03*
X007500Y024470D03*
D14*
X030000Y024720D03*
X030000Y026720D03*
X033000Y026720D03*
X035000Y026720D03*
X037000Y026720D03*
X037000Y024720D03*
X035000Y024720D03*
X033000Y024720D03*
X033000Y021720D03*
X035000Y021720D03*
X037000Y021720D03*
X037000Y019720D03*
X035000Y019720D03*
X033000Y019720D03*
X030000Y019720D03*
X030000Y021720D03*
X030000Y016720D03*
X030000Y014720D03*
X033000Y014720D03*
X035000Y014720D03*
X037000Y014720D03*
X037000Y016720D03*
X035000Y016720D03*
X033000Y016720D03*
X033000Y011720D03*
X035000Y011720D03*
X037000Y011720D03*
X037000Y009720D03*
X035000Y009720D03*
X033000Y009720D03*
X030000Y009720D03*
X030000Y011720D03*
X030000Y006720D03*
X030000Y004720D03*
X033000Y004720D03*
X035000Y004720D03*
X037000Y004720D03*
X037000Y006720D03*
X035000Y006720D03*
X033000Y006720D03*
X033000Y001720D03*
X035000Y001720D03*
X037000Y001720D03*
X030000Y001720D03*
X030000Y029720D03*
X033000Y029720D03*
X035000Y029720D03*
X037000Y029720D03*
D15*
X020890Y027300D02*
X020890Y026700D01*
X019110Y026700D02*
X019110Y027300D01*
X019110Y024740D02*
X019110Y024140D01*
X020890Y024140D02*
X020890Y024740D01*
X020890Y017300D02*
X020890Y016700D01*
X019110Y016700D02*
X019110Y017300D01*
X019110Y014740D02*
X019110Y014140D01*
X020890Y014140D02*
X020890Y014740D01*
X020890Y007300D02*
X020890Y006700D01*
X019110Y006700D02*
X019110Y007300D01*
X019110Y004740D02*
X019110Y004140D01*
X020890Y004140D02*
X020890Y004740D01*
D16*
X016500Y025720D03*
X014500Y025720D03*
X012500Y025720D03*
D17*
X011500Y003550D02*
X011500Y002890D01*
X010500Y002890D02*
X010500Y003550D01*
X009500Y003550D02*
X009500Y002890D01*
D18*
X016000Y006220D03*
X004050Y010220D03*
D19*
X005450Y010220D03*
X015000Y006220D03*
D20*
X014508Y002710D03*
X016508Y002710D03*
D21*
X017000Y018720D03*
D22*
X005854Y006720D03*
D23*
X003394Y006720D03*
X004732Y004830D03*
D24*
X002530Y006275D02*
X002530Y002933D01*
X002668Y003236D01*
X002668Y003236D01*
X003019Y003641D01*
X003019Y003641D01*
X003469Y003930D01*
X003469Y003930D01*
X003982Y004081D01*
X004114Y004081D01*
X004084Y004105D01*
X004007Y004182D01*
X003939Y004267D01*
X003881Y004360D01*
X003834Y004458D01*
X003798Y004561D01*
X003773Y004667D01*
X003768Y004710D01*
X004612Y004710D01*
X004612Y004950D01*
X003768Y004950D01*
X003773Y004993D01*
X003798Y005100D01*
X003834Y005202D01*
X003881Y005301D01*
X003939Y005393D01*
X004007Y005478D01*
X004084Y005556D01*
X004169Y005624D01*
X004262Y005682D01*
X004360Y005729D01*
X004463Y005765D01*
X004569Y005789D01*
X004612Y005794D01*
X004612Y004950D01*
X004852Y004950D01*
X004852Y005794D01*
X004895Y005789D01*
X005002Y005765D01*
X005105Y005729D01*
X005203Y005682D01*
X005295Y005624D01*
X005380Y005556D01*
X005458Y005478D01*
X005526Y005393D01*
X005584Y005301D01*
X005631Y005202D01*
X005667Y005100D01*
X005691Y004993D01*
X005696Y004950D01*
X004852Y004950D01*
X004852Y004710D01*
X005696Y004710D01*
X005691Y004667D01*
X005667Y004561D01*
X005631Y004458D01*
X005584Y004360D01*
X005526Y004267D01*
X005458Y004182D01*
X005380Y004105D01*
X005295Y004037D01*
X005203Y003979D01*
X005105Y003932D01*
X005055Y003914D01*
X005481Y003641D01*
X005481Y003641D01*
X005832Y003236D01*
X005832Y003236D01*
X006054Y002750D01*
X006054Y002750D01*
X006130Y002220D01*
X006054Y001690D01*
X006054Y001690D01*
X005832Y001204D01*
X005832Y001204D01*
X005481Y000799D01*
X005481Y000799D01*
X005481Y000799D01*
X005031Y000510D01*
X005031Y000510D01*
X004997Y000500D01*
X043753Y000500D01*
X043719Y000510D01*
X043719Y000510D01*
X043269Y000799D01*
X043269Y000799D01*
X042918Y001204D01*
X042918Y001204D01*
X042696Y001690D01*
X042696Y001690D01*
X042620Y002220D01*
X042620Y002220D01*
X042696Y002750D01*
X042696Y002750D01*
X042918Y003236D01*
X042918Y003236D01*
X043269Y003641D01*
X043269Y003641D01*
X043719Y003930D01*
X044232Y004081D01*
X044768Y004081D01*
X045281Y003930D01*
X045731Y003641D01*
X045731Y003641D01*
X046082Y003236D01*
X046082Y003236D01*
X046212Y002950D01*
X046212Y028490D01*
X046082Y028204D01*
X046082Y028204D01*
X045731Y027799D01*
X045731Y027799D01*
X045731Y027799D01*
X045281Y027510D01*
X045281Y027510D01*
X044768Y027359D01*
X044232Y027359D01*
X043719Y027510D01*
X043719Y027510D01*
X043269Y027799D01*
X043269Y027799D01*
X042918Y028204D01*
X042918Y028204D01*
X042696Y028690D01*
X042696Y028690D01*
X042620Y029220D01*
X042620Y029220D01*
X042696Y029750D01*
X042696Y029750D01*
X042918Y030236D01*
X042918Y030236D01*
X043269Y030641D01*
X043269Y030641D01*
X043532Y030810D01*
X028169Y030810D01*
X028346Y030737D01*
X028463Y030620D01*
X029580Y030620D01*
X029727Y030559D01*
X029931Y030354D01*
X030126Y030354D01*
X030359Y030258D01*
X030538Y030079D01*
X030634Y029846D01*
X030634Y029594D01*
X030538Y029361D01*
X030359Y029182D01*
X030126Y029086D01*
X029874Y029086D01*
X029641Y029182D01*
X029462Y029361D01*
X029366Y029594D01*
X029366Y029789D01*
X029334Y029820D01*
X028463Y029820D01*
X028400Y029757D01*
X028400Y028862D01*
X028420Y028870D01*
X031330Y028870D01*
X031477Y028809D01*
X031589Y028697D01*
X032931Y027354D01*
X033126Y027354D01*
X033359Y027258D01*
X033538Y027079D01*
X033634Y026846D01*
X033634Y026594D01*
X033538Y026361D01*
X033359Y026182D01*
X033209Y026120D01*
X034791Y026120D01*
X034641Y026182D01*
X034462Y026361D01*
X034366Y026594D01*
X034366Y026846D01*
X034462Y027079D01*
X034641Y027258D01*
X034874Y027354D01*
X035126Y027354D01*
X035359Y027258D01*
X035538Y027079D01*
X035634Y026846D01*
X035634Y026594D01*
X035538Y026361D01*
X035359Y026182D01*
X035209Y026120D01*
X036791Y026120D01*
X036641Y026182D01*
X036462Y026361D01*
X036366Y026594D01*
X036366Y026846D01*
X036462Y027079D01*
X036641Y027258D01*
X036874Y027354D01*
X037126Y027354D01*
X037359Y027258D01*
X037497Y027120D01*
X037830Y027120D01*
X037977Y027059D01*
X038089Y026947D01*
X040432Y024603D01*
X040512Y024796D01*
X040600Y024884D01*
X040600Y025554D01*
X037069Y029086D01*
X036874Y029086D01*
X036641Y029182D01*
X036462Y029361D01*
X036366Y029594D01*
X036366Y029846D01*
X036462Y030079D01*
X036641Y030258D01*
X036874Y030354D01*
X037126Y030354D01*
X037359Y030258D01*
X037538Y030079D01*
X037634Y029846D01*
X037634Y029651D01*
X041227Y026059D01*
X041227Y026059D01*
X041339Y025947D01*
X041400Y025800D01*
X041400Y024884D01*
X041488Y024796D01*
X041575Y024584D01*
X041575Y024370D01*
X041586Y024370D01*
X041674Y024458D01*
X041886Y024545D01*
X042114Y024545D01*
X042326Y024458D01*
X042488Y024296D01*
X042575Y024084D01*
X042575Y023856D01*
X042488Y023644D01*
X042326Y023482D01*
X042296Y023470D01*
X042326Y023458D01*
X042488Y023296D01*
X042575Y023084D01*
X042575Y022856D01*
X042488Y022644D01*
X042326Y022482D01*
X042114Y022395D01*
X041990Y022395D01*
X040977Y021381D01*
X040830Y021320D01*
X037497Y021320D01*
X037359Y021182D01*
X037126Y021086D01*
X036874Y021086D01*
X036641Y021182D01*
X036462Y021361D01*
X036366Y021594D01*
X036366Y021846D01*
X036462Y022079D01*
X036641Y022258D01*
X036874Y022354D01*
X037126Y022354D01*
X037359Y022258D01*
X037497Y022120D01*
X040584Y022120D01*
X041425Y022960D01*
X041425Y023081D01*
X041326Y022982D01*
X041114Y022895D01*
X040990Y022895D01*
X040839Y022743D01*
X040727Y022631D01*
X040580Y022570D01*
X037420Y022570D01*
X037273Y022631D01*
X036773Y023131D01*
X036661Y023243D01*
X036600Y023390D01*
X036600Y024223D01*
X036462Y024361D01*
X036366Y024594D01*
X036366Y024846D01*
X036462Y025079D01*
X036641Y025258D01*
X036791Y025320D01*
X035209Y025320D01*
X035359Y025258D01*
X035538Y025079D01*
X035634Y024846D01*
X035634Y024594D01*
X035538Y024361D01*
X035359Y024182D01*
X035126Y024086D01*
X034874Y024086D01*
X034641Y024182D01*
X034462Y024361D01*
X034366Y024594D01*
X034366Y024846D01*
X034462Y025079D01*
X034641Y025258D01*
X034791Y025320D01*
X033209Y025320D01*
X033359Y025258D01*
X033538Y025079D01*
X033634Y024846D01*
X033634Y024594D01*
X033538Y024361D01*
X033359Y024182D01*
X033126Y024086D01*
X032874Y024086D01*
X032641Y024182D01*
X032462Y024361D01*
X032366Y024594D01*
X032366Y024846D01*
X032462Y025079D01*
X032641Y025258D01*
X032791Y025320D01*
X032420Y025320D01*
X032273Y025381D01*
X030584Y027070D01*
X030542Y027070D01*
X030634Y026846D01*
X030634Y026594D01*
X030538Y026361D01*
X030359Y026182D01*
X030126Y026086D01*
X029931Y026086D01*
X029727Y025881D01*
X029580Y025820D01*
X028463Y025820D01*
X028363Y025720D01*
X028463Y025620D01*
X029580Y025620D01*
X029727Y025559D01*
X029931Y025354D01*
X030126Y025354D01*
X030359Y025258D01*
X030538Y025079D01*
X030634Y024846D01*
X030634Y024594D01*
X030538Y024361D01*
X030359Y024182D01*
X030126Y024086D01*
X029874Y024086D01*
X029641Y024182D01*
X029462Y024361D01*
X029366Y024594D01*
X029366Y024789D01*
X029334Y024820D01*
X028463Y024820D01*
X028400Y024757D01*
X028400Y023640D01*
X028392Y023620D01*
X031580Y023620D01*
X031727Y023559D01*
X031839Y023447D01*
X032931Y022354D01*
X033126Y022354D01*
X033359Y022258D01*
X033538Y022079D01*
X033634Y021846D01*
X033634Y021594D01*
X033538Y021361D01*
X033359Y021182D01*
X033126Y021086D01*
X032874Y021086D01*
X032641Y021182D01*
X032462Y021361D01*
X032366Y021594D01*
X032366Y021789D01*
X031334Y022820D01*
X030450Y022820D01*
X030477Y022809D01*
X032931Y020354D01*
X033126Y020354D01*
X033359Y020258D01*
X033538Y020079D01*
X033634Y019846D01*
X033634Y019594D01*
X033538Y019361D01*
X033359Y019182D01*
X033126Y019086D01*
X032874Y019086D01*
X032641Y019182D01*
X032462Y019361D01*
X032366Y019594D01*
X032366Y019789D01*
X030613Y021542D01*
X030538Y021361D01*
X030359Y021182D01*
X030126Y021086D01*
X029931Y021086D01*
X029727Y020881D01*
X029580Y020820D01*
X028463Y020820D01*
X028363Y020720D01*
X028463Y020620D01*
X029580Y020620D01*
X029727Y020559D01*
X029931Y020354D01*
X030126Y020354D01*
X030359Y020258D01*
X030538Y020079D01*
X030634Y019846D01*
X030634Y019594D01*
X030538Y019361D01*
X030359Y019182D01*
X030126Y019086D01*
X029874Y019086D01*
X029641Y019182D01*
X029462Y019361D01*
X029366Y019594D01*
X029366Y019789D01*
X029334Y019820D01*
X028463Y019820D01*
X028400Y019757D01*
X028400Y018640D01*
X028339Y018493D01*
X028227Y018381D01*
X027227Y017381D01*
X027080Y017320D01*
X026335Y017320D01*
X026215Y017200D01*
X025785Y017200D01*
X025480Y017505D01*
X025480Y017715D01*
X025465Y017700D01*
X025035Y017700D01*
X024730Y018005D01*
X024730Y018435D01*
X025035Y018740D01*
X025465Y018740D01*
X025540Y018665D01*
X025540Y018720D01*
X026000Y018720D01*
X022500Y018720D01*
X020890Y017110D01*
X020890Y017000D01*
X021410Y017000D01*
X021410Y017341D01*
X021397Y017422D01*
X021372Y017500D01*
X021335Y017573D01*
X021287Y017639D01*
X021229Y017697D01*
X021163Y017745D01*
X021090Y017782D01*
X021012Y017807D01*
X020931Y017820D01*
X020890Y017820D01*
X020890Y017000D01*
X020890Y017000D01*
X020890Y017000D01*
X021410Y017000D01*
X021410Y016659D01*
X021397Y016578D01*
X021372Y016500D01*
X021335Y016427D01*
X021287Y016361D01*
X021229Y016303D01*
X021163Y016255D01*
X021090Y016218D01*
X021012Y016193D01*
X020931Y016180D01*
X020890Y016180D01*
X020890Y017000D01*
X020890Y017000D01*
X020890Y017000D01*
X020370Y017000D01*
X020370Y017341D01*
X020383Y017422D01*
X020408Y017500D01*
X020445Y017573D01*
X020493Y017639D01*
X020551Y017697D01*
X020617Y017745D01*
X020690Y017782D01*
X020768Y017807D01*
X020849Y017820D01*
X020890Y017820D01*
X020890Y017000D01*
X020890Y016180D01*
X020849Y016180D01*
X020768Y016193D01*
X020690Y016218D01*
X020617Y016255D01*
X020551Y016303D01*
X020493Y016361D01*
X020445Y016427D01*
X020408Y016500D01*
X020383Y016578D01*
X020370Y016659D01*
X020370Y017000D01*
X020890Y017000D01*
X020890Y017001D02*
X020890Y017001D01*
X020890Y016763D02*
X020890Y016763D01*
X020890Y016524D02*
X020890Y016524D01*
X020890Y016286D02*
X020890Y016286D01*
X021204Y016286D02*
X021500Y016286D01*
X021661Y016447D02*
X021334Y016120D01*
X018666Y016120D01*
X017227Y017559D01*
X017080Y017620D01*
X012666Y017620D01*
X012400Y017886D01*
X012400Y018306D01*
X012488Y018394D01*
X012500Y018424D01*
X012512Y018394D01*
X012674Y018232D01*
X012886Y018145D01*
X013114Y018145D01*
X013326Y018232D01*
X013488Y018394D01*
X013533Y018502D01*
X013559Y018450D01*
X013607Y018384D01*
X013664Y018327D01*
X013730Y018279D01*
X013802Y018242D01*
X013879Y018217D01*
X013959Y018205D01*
X014000Y018205D01*
X014041Y018205D01*
X014121Y018217D01*
X014198Y018242D01*
X014270Y018279D01*
X014336Y018327D01*
X014393Y018384D01*
X014441Y018450D01*
X014467Y018502D01*
X014512Y018394D01*
X014674Y018232D01*
X014886Y018145D01*
X015114Y018145D01*
X015326Y018232D01*
X015488Y018394D01*
X015500Y018424D01*
X015512Y018394D01*
X015674Y018232D01*
X015886Y018145D01*
X016114Y018145D01*
X016326Y018232D01*
X016436Y018342D01*
X016467Y018266D01*
X016546Y018187D01*
X016649Y018145D01*
X017351Y018145D01*
X017454Y018187D01*
X017533Y018266D01*
X017552Y018313D01*
X017657Y018207D01*
X017880Y018115D01*
X018120Y018115D01*
X018343Y018207D01*
X018513Y018377D01*
X018605Y018600D01*
X018605Y018840D01*
X018513Y019063D01*
X018343Y019233D01*
X018120Y019325D01*
X017880Y019325D01*
X017657Y019233D01*
X017552Y019127D01*
X017533Y019174D01*
X017454Y019253D01*
X017351Y019295D01*
X016649Y019295D01*
X016546Y019253D01*
X016467Y019174D01*
X016436Y019098D01*
X016326Y019208D01*
X016114Y019295D01*
X015886Y019295D01*
X015674Y019208D01*
X015512Y019046D01*
X015500Y019016D01*
X015488Y019046D01*
X015326Y019208D01*
X015114Y019295D01*
X014886Y019295D01*
X014674Y019208D01*
X014512Y019046D01*
X014467Y018938D01*
X014441Y018990D01*
X014393Y019056D01*
X014336Y019113D01*
X014270Y019161D01*
X014198Y019198D01*
X014121Y019223D01*
X014041Y019235D01*
X014000Y019235D01*
X013959Y019235D01*
X013879Y019223D01*
X013802Y019198D01*
X013730Y019161D01*
X013664Y019113D01*
X013607Y019056D01*
X013559Y018990D01*
X013533Y018938D01*
X013488Y019046D01*
X013326Y019208D01*
X013114Y019295D01*
X012886Y019295D01*
X012674Y019208D01*
X012512Y019046D01*
X012500Y019016D01*
X012488Y019046D01*
X012326Y019208D01*
X012114Y019295D01*
X011886Y019295D01*
X011674Y019208D01*
X011512Y019046D01*
X011500Y019016D01*
X011488Y019046D01*
X011326Y019208D01*
X011114Y019295D01*
X010886Y019295D01*
X010674Y019208D01*
X010512Y019046D01*
X010500Y019016D01*
X010488Y019046D01*
X010400Y019134D01*
X010400Y019554D01*
X012166Y021320D01*
X012980Y021320D01*
X012980Y021005D01*
X013285Y020700D01*
X013715Y020700D01*
X014020Y021005D01*
X014020Y021320D01*
X017040Y021320D01*
X017040Y021220D01*
X017500Y021220D01*
X020000Y021220D01*
X022500Y018720D01*
X021520Y018671D02*
X024965Y018671D01*
X024730Y018432D02*
X021447Y018432D01*
X021520Y018505D02*
X021215Y018200D01*
X021046Y018200D01*
X019690Y016844D01*
X019690Y016585D01*
X019602Y016371D01*
X019439Y016208D01*
X019225Y016120D01*
X018995Y016120D01*
X018781Y016208D01*
X018618Y016371D01*
X018530Y016585D01*
X018530Y017415D01*
X018618Y017629D01*
X018781Y017792D01*
X018995Y017880D01*
X019225Y017880D01*
X019439Y017792D01*
X019472Y017758D01*
X020480Y018766D01*
X020480Y018935D01*
X020785Y019240D01*
X021215Y019240D01*
X021520Y018935D01*
X021520Y018505D01*
X021520Y018909D02*
X025540Y018909D01*
X025540Y018911D02*
X025540Y018720D01*
X026000Y018720D01*
X026000Y018720D01*
X026000Y019180D01*
X026191Y019180D01*
X026460Y018911D01*
X026460Y018720D01*
X026000Y018720D01*
X026000Y018720D01*
X026000Y018720D01*
X026000Y019180D01*
X025809Y019180D01*
X025540Y018911D01*
X025535Y018671D02*
X025540Y018671D01*
X025770Y018299D02*
X025809Y018260D01*
X026000Y018260D01*
X026191Y018260D01*
X026460Y018529D01*
X026460Y018720D01*
X026000Y018720D01*
X026000Y018260D01*
X026000Y018720D01*
X026000Y018720D01*
X026000Y018671D02*
X026000Y018671D01*
X026000Y018909D02*
X026000Y018909D01*
X026000Y019148D02*
X026000Y019148D01*
X026223Y019148D02*
X027600Y019148D01*
X027600Y019386D02*
X010400Y019386D01*
X010400Y019148D02*
X010614Y019148D01*
X010470Y019625D02*
X027600Y019625D01*
X027600Y019757D02*
X027600Y018886D01*
X026834Y018120D01*
X026335Y018120D01*
X026215Y018240D01*
X025785Y018240D01*
X025770Y018225D01*
X025770Y018299D01*
X026000Y018432D02*
X026000Y018432D01*
X026262Y018194D02*
X026908Y018194D01*
X027146Y018432D02*
X026363Y018432D01*
X026460Y018671D02*
X027385Y018671D01*
X027600Y018909D02*
X026460Y018909D01*
X025777Y019148D02*
X021308Y019148D01*
X021000Y018720D02*
X019280Y017000D01*
X019110Y017000D01*
X019690Y016763D02*
X020370Y016763D01*
X020370Y017001D02*
X019847Y017001D01*
X020085Y017240D02*
X020370Y017240D01*
X020401Y017478D02*
X020324Y017478D01*
X020562Y017717D02*
X020579Y017717D01*
X020890Y017717D02*
X020890Y017717D01*
X020890Y017478D02*
X020890Y017478D01*
X020890Y017240D02*
X020890Y017240D01*
X021410Y017240D02*
X025745Y017240D01*
X025507Y017478D02*
X021379Y017478D01*
X021201Y017717D02*
X025018Y017717D01*
X024780Y017955D02*
X020801Y017955D01*
X021039Y018194D02*
X024730Y018194D01*
X026000Y017720D02*
X027000Y017720D01*
X028000Y018720D01*
X028000Y020220D01*
X029500Y020220D01*
X030000Y019720D01*
X030516Y020102D02*
X032053Y020102D01*
X031814Y020340D02*
X030161Y020340D01*
X029680Y020579D02*
X031576Y020579D01*
X031337Y020817D02*
X028460Y020817D01*
X028000Y021220D02*
X029500Y021220D01*
X030000Y021720D01*
X030471Y021294D02*
X030860Y021294D01*
X030622Y021533D02*
X030609Y021533D01*
X031099Y021056D02*
X029901Y021056D01*
X031276Y022010D02*
X032145Y022010D01*
X032366Y021771D02*
X031515Y021771D01*
X031753Y021533D02*
X032391Y021533D01*
X032529Y021294D02*
X031992Y021294D01*
X032230Y021056D02*
X042547Y021056D01*
X042547Y020913D02*
X042661Y020636D01*
X042873Y020425D01*
X043150Y020310D01*
X043449Y020310D01*
X043725Y020425D01*
X043937Y020636D01*
X044052Y020913D01*
X044052Y020921D01*
X044319Y020810D01*
X044681Y020810D01*
X045015Y020949D01*
X045271Y021205D01*
X045410Y021539D01*
X045410Y021901D01*
X045271Y022235D01*
X045015Y022491D01*
X044681Y022630D01*
X044319Y022630D01*
X043985Y022491D01*
X043729Y022235D01*
X043590Y021901D01*
X043590Y021756D01*
X043449Y021815D01*
X043150Y021815D01*
X042873Y021700D01*
X042661Y021489D01*
X042547Y021212D01*
X042547Y020913D01*
X042586Y020817D02*
X032469Y020817D01*
X032707Y020579D02*
X042719Y020579D01*
X043077Y020340D02*
X037161Y020340D01*
X037126Y020354D02*
X037359Y020258D01*
X037497Y020120D01*
X037830Y020120D01*
X037977Y020059D01*
X038089Y019947D01*
X038089Y019947D01*
X040990Y017045D01*
X041114Y017045D01*
X041326Y016958D01*
X041488Y016796D01*
X041575Y016584D01*
X041575Y016370D01*
X041586Y016370D01*
X041674Y016458D01*
X041886Y016545D01*
X042114Y016545D01*
X042326Y016458D01*
X042488Y016296D01*
X042575Y016084D01*
X042575Y015856D01*
X042488Y015644D01*
X042326Y015482D01*
X042296Y015470D01*
X042326Y015458D01*
X042488Y015296D01*
X042575Y015084D01*
X042575Y014856D01*
X042488Y014644D01*
X042326Y014482D01*
X042114Y014395D01*
X041990Y014395D01*
X038977Y011381D01*
X038830Y011320D01*
X037497Y011320D01*
X037359Y011182D01*
X037126Y011086D01*
X036874Y011086D01*
X036641Y011182D01*
X036462Y011361D01*
X036366Y011594D01*
X036366Y011846D01*
X036462Y012079D01*
X036641Y012258D01*
X036874Y012354D01*
X037126Y012354D01*
X037359Y012258D01*
X037497Y012120D01*
X038584Y012120D01*
X041425Y014960D01*
X041425Y015081D01*
X041326Y014982D01*
X041114Y014895D01*
X040990Y014895D01*
X040477Y014381D01*
X040330Y014320D01*
X037497Y014320D01*
X037359Y014182D01*
X037126Y014086D01*
X036874Y014086D01*
X036641Y014182D01*
X036462Y014361D01*
X036366Y014594D01*
X036366Y014846D01*
X036462Y015079D01*
X036641Y015258D01*
X036791Y015320D01*
X035209Y015320D01*
X035359Y015258D01*
X035538Y015079D01*
X035634Y014846D01*
X035634Y014594D01*
X035538Y014361D01*
X035359Y014182D01*
X035126Y014086D01*
X034874Y014086D01*
X034641Y014182D01*
X034462Y014361D01*
X034366Y014594D01*
X034366Y014846D01*
X034462Y015079D01*
X034641Y015258D01*
X034791Y015320D01*
X033209Y015320D01*
X033359Y015258D01*
X033538Y015079D01*
X033634Y014846D01*
X033634Y014594D01*
X033538Y014361D01*
X033359Y014182D01*
X033126Y014086D01*
X032874Y014086D01*
X032641Y014182D01*
X032462Y014361D01*
X032366Y014594D01*
X032366Y014846D01*
X032462Y015079D01*
X032641Y015258D01*
X032791Y015320D01*
X032420Y015320D01*
X032273Y015381D01*
X030584Y017070D01*
X030542Y017070D01*
X030634Y016846D01*
X030634Y016594D01*
X030538Y016361D01*
X030359Y016182D01*
X030126Y016086D01*
X029931Y016086D01*
X029727Y015881D01*
X029580Y015820D01*
X028463Y015820D01*
X028363Y015720D01*
X028463Y015620D01*
X029580Y015620D01*
X029727Y015559D01*
X029931Y015354D01*
X030126Y015354D01*
X030359Y015258D01*
X030538Y015079D01*
X030634Y014846D01*
X030634Y014594D01*
X030538Y014361D01*
X030359Y014182D01*
X030126Y014086D01*
X029874Y014086D01*
X029641Y014182D01*
X029462Y014361D01*
X029366Y014594D01*
X029366Y014789D01*
X029334Y014820D01*
X028463Y014820D01*
X028400Y014757D01*
X028400Y013640D01*
X028339Y013493D01*
X028227Y013381D01*
X027227Y012381D01*
X027080Y012320D01*
X026335Y012320D01*
X026215Y012200D01*
X025785Y012200D01*
X025480Y012505D01*
X025480Y012715D01*
X025465Y012700D01*
X025086Y012700D01*
X026166Y011620D01*
X027537Y011620D01*
X027654Y011737D01*
X027879Y011830D01*
X028121Y011830D01*
X028346Y011737D01*
X028463Y011620D01*
X029334Y011620D01*
X029366Y011651D01*
X029366Y011846D01*
X029462Y012079D01*
X029641Y012258D01*
X029874Y012354D01*
X030126Y012354D01*
X030359Y012258D01*
X030538Y012079D01*
X030634Y011846D01*
X030634Y011594D01*
X030538Y011361D01*
X030359Y011182D01*
X030126Y011086D01*
X029931Y011086D01*
X029727Y010881D01*
X029580Y010820D01*
X028463Y010820D01*
X028363Y010720D01*
X028463Y010620D01*
X029580Y010620D01*
X029727Y010559D01*
X029931Y010354D01*
X030126Y010354D01*
X030359Y010258D01*
X030538Y010079D01*
X030634Y009846D01*
X032366Y009846D01*
X032366Y009594D01*
X032462Y009361D01*
X032641Y009182D01*
X032874Y009086D01*
X033126Y009086D01*
X033359Y009182D01*
X033538Y009361D01*
X033634Y009594D01*
X033634Y009846D01*
X034366Y009846D01*
X034366Y009594D01*
X034462Y009361D01*
X034641Y009182D01*
X034874Y009086D01*
X035126Y009086D01*
X035359Y009182D01*
X035538Y009361D01*
X035634Y009594D01*
X035634Y009846D01*
X036366Y009846D01*
X036366Y009594D01*
X036462Y009361D01*
X036641Y009182D01*
X036874Y009086D01*
X037126Y009086D01*
X037359Y009182D01*
X037497Y009320D01*
X039584Y009320D01*
X040425Y008480D01*
X040425Y008370D01*
X040416Y008370D01*
X040089Y008697D01*
X039977Y008809D01*
X039830Y008870D01*
X037420Y008870D01*
X037273Y008809D01*
X036773Y008309D01*
X036661Y008197D01*
X036600Y008050D01*
X036600Y007217D01*
X036462Y007079D01*
X036366Y006846D01*
X036366Y006594D01*
X036462Y006361D01*
X036641Y006182D01*
X036791Y006120D01*
X035209Y006120D01*
X035359Y006182D01*
X035538Y006361D01*
X035634Y006594D01*
X035634Y006846D01*
X035538Y007079D01*
X035359Y007258D01*
X035126Y007354D01*
X034874Y007354D01*
X034641Y007258D01*
X034462Y007079D01*
X034366Y006846D01*
X034366Y006594D01*
X034462Y006361D01*
X034641Y006182D01*
X034791Y006120D01*
X033209Y006120D01*
X033359Y006182D01*
X033538Y006361D01*
X033634Y006594D01*
X033634Y006846D01*
X033538Y007079D01*
X033359Y007258D01*
X033126Y007354D01*
X032874Y007354D01*
X032641Y007258D01*
X032462Y007079D01*
X032366Y006846D01*
X032366Y006594D01*
X032462Y006361D01*
X032641Y006182D01*
X032791Y006120D01*
X032666Y006120D01*
X031089Y007697D01*
X030977Y007809D01*
X030830Y007870D01*
X027716Y007870D01*
X028227Y008381D01*
X028339Y008493D01*
X028400Y008640D01*
X028400Y009757D01*
X028463Y009820D01*
X029334Y009820D01*
X029366Y009789D01*
X029366Y009594D01*
X029462Y009361D01*
X029641Y009182D01*
X029874Y009086D01*
X030126Y009086D01*
X030359Y009182D01*
X030538Y009361D01*
X030634Y009594D01*
X030634Y009846D01*
X030634Y009608D02*
X032366Y009608D01*
X032366Y009846D02*
X032462Y010079D01*
X032641Y010258D01*
X032874Y010354D01*
X033126Y010354D01*
X033359Y010258D01*
X033538Y010079D01*
X033634Y009846D01*
X033634Y009608D02*
X034366Y009608D01*
X034366Y009846D02*
X034462Y010079D01*
X034641Y010258D01*
X034874Y010354D01*
X035126Y010354D01*
X035359Y010258D01*
X035538Y010079D01*
X035634Y009846D01*
X035634Y009608D02*
X036366Y009608D01*
X036366Y009846D02*
X036462Y010079D01*
X036641Y010258D01*
X036874Y010354D01*
X037126Y010354D01*
X037359Y010258D01*
X037497Y010120D01*
X039830Y010120D01*
X039977Y010059D01*
X040990Y009045D01*
X041114Y009045D01*
X041326Y008958D01*
X041488Y008796D01*
X041575Y008584D01*
X041575Y008370D01*
X041586Y008370D01*
X041674Y008458D01*
X041886Y008545D01*
X042114Y008545D01*
X042326Y008458D01*
X042488Y008296D01*
X042575Y008084D01*
X042575Y007856D01*
X042488Y007644D01*
X042326Y007482D01*
X042296Y007470D01*
X042326Y007458D01*
X042488Y007296D01*
X042575Y007084D01*
X042575Y006856D01*
X042488Y006644D01*
X042400Y006556D01*
X042400Y005890D01*
X042339Y005743D01*
X038089Y001493D01*
X037977Y001381D01*
X037830Y001320D01*
X037497Y001320D01*
X037359Y001182D01*
X037126Y001086D01*
X036874Y001086D01*
X036641Y001182D01*
X036462Y001361D01*
X036366Y001594D01*
X036366Y001846D01*
X036462Y002079D01*
X036641Y002258D01*
X036874Y002354D01*
X037126Y002354D01*
X037359Y002258D01*
X037497Y002120D01*
X037584Y002120D01*
X041600Y006136D01*
X041600Y006556D01*
X041512Y006644D01*
X041425Y006856D01*
X041425Y007081D01*
X041326Y006982D01*
X041114Y006895D01*
X040886Y006895D01*
X040674Y006982D01*
X040626Y007030D01*
X038089Y004493D01*
X037977Y004381D01*
X037830Y004320D01*
X037497Y004320D01*
X037359Y004182D01*
X037126Y004086D01*
X036874Y004086D01*
X036641Y004182D01*
X036462Y004361D01*
X036366Y004594D01*
X036366Y004846D01*
X036462Y005079D01*
X036641Y005258D01*
X036791Y005320D01*
X035209Y005320D01*
X035359Y005258D01*
X035538Y005079D01*
X035634Y004846D01*
X035634Y004594D01*
X035538Y004361D01*
X035359Y004182D01*
X035126Y004086D01*
X034874Y004086D01*
X034641Y004182D01*
X034462Y004361D01*
X034366Y004594D01*
X034366Y004846D01*
X034462Y005079D01*
X034641Y005258D01*
X034791Y005320D01*
X033209Y005320D01*
X033359Y005258D01*
X033538Y005079D01*
X033634Y004846D01*
X033634Y004594D01*
X033538Y004361D01*
X033359Y004182D01*
X033126Y004086D01*
X032874Y004086D01*
X032641Y004182D01*
X032462Y004361D01*
X032366Y004594D01*
X032366Y004846D01*
X032462Y005079D01*
X032641Y005258D01*
X032791Y005320D01*
X032420Y005320D01*
X032273Y005381D01*
X030584Y007070D01*
X030542Y007070D01*
X030634Y006846D01*
X030634Y006594D01*
X030538Y006361D01*
X030359Y006182D01*
X030126Y006086D01*
X029931Y006086D01*
X029727Y005881D01*
X029580Y005820D01*
X028463Y005820D01*
X028363Y005720D01*
X028463Y005620D01*
X029580Y005620D01*
X029727Y005559D01*
X029931Y005354D01*
X030126Y005354D01*
X030359Y005258D01*
X030538Y005079D01*
X030634Y004846D01*
X030634Y004594D01*
X030538Y004361D01*
X030359Y004182D01*
X030126Y004086D01*
X029874Y004086D01*
X029641Y004182D01*
X029462Y004361D01*
X029366Y004594D01*
X029366Y004789D01*
X029334Y004820D01*
X028463Y004820D01*
X028400Y004757D01*
X028400Y003640D01*
X028339Y003493D01*
X028227Y003381D01*
X027227Y002381D01*
X027200Y002370D01*
X027330Y002370D01*
X027477Y002309D01*
X027589Y002197D01*
X027956Y001830D01*
X028121Y001830D01*
X028346Y001737D01*
X029366Y001737D01*
X029366Y001651D02*
X029334Y001620D01*
X028463Y001620D01*
X028346Y001737D01*
X027810Y001976D02*
X029419Y001976D01*
X029462Y002079D02*
X029366Y001846D01*
X029366Y001651D01*
X029462Y002079D02*
X029641Y002258D01*
X029874Y002354D01*
X030126Y002354D01*
X030359Y002258D01*
X030538Y002079D01*
X030634Y001846D01*
X030634Y001594D01*
X030538Y001361D01*
X030359Y001182D01*
X030126Y001086D01*
X029931Y001086D01*
X029727Y000881D01*
X029580Y000820D01*
X028463Y000820D01*
X028346Y000703D01*
X028121Y000610D01*
X027879Y000610D01*
X027654Y000703D01*
X027483Y000874D01*
X027390Y001099D01*
X027390Y001264D01*
X027084Y001570D01*
X024385Y001570D01*
X024520Y001435D01*
X024520Y001005D01*
X024215Y000700D01*
X023785Y000700D01*
X023480Y001005D01*
X023480Y001435D01*
X023615Y001570D01*
X015170Y001570D01*
X015023Y001631D01*
X014911Y001743D01*
X014618Y002036D01*
X014374Y002036D01*
X014127Y002139D01*
X013937Y002329D01*
X013835Y002576D01*
X013835Y002820D01*
X013834Y002820D01*
X012110Y002820D01*
X012110Y002769D01*
X012017Y002544D01*
X011846Y002373D01*
X011621Y002280D01*
X011379Y002280D01*
X011154Y002373D01*
X010983Y002544D01*
X010963Y002592D01*
X010920Y002532D01*
X010858Y002470D01*
X010788Y002420D01*
X010711Y002380D01*
X010629Y002354D01*
X010543Y002340D01*
X010500Y002340D01*
X010500Y003220D01*
X010500Y004220D01*
X011000Y004720D01*
X015500Y004720D01*
X016000Y005220D01*
X016000Y006220D01*
X018000Y006220D01*
X018500Y005720D01*
X020500Y005720D01*
X020890Y006110D01*
X020890Y007000D01*
X020890Y006080D01*
X022750Y004220D01*
X025500Y004220D01*
X026000Y003720D01*
X026000Y003720D01*
X026000Y004180D01*
X026191Y004180D01*
X026460Y003911D01*
X026460Y003720D01*
X026000Y003720D01*
X026000Y003720D01*
X026000Y003720D01*
X025540Y003720D01*
X025540Y003911D01*
X025809Y004180D01*
X026000Y004180D01*
X026000Y003720D01*
X026460Y003720D01*
X026460Y003529D01*
X026191Y003260D01*
X026000Y003260D01*
X026000Y003720D01*
X026000Y003720D01*
X025540Y003720D01*
X025540Y003665D01*
X025465Y003740D01*
X025035Y003740D01*
X024730Y003435D01*
X024730Y003005D01*
X025035Y002700D01*
X025465Y002700D01*
X025480Y002715D01*
X025480Y002505D01*
X025615Y002370D01*
X017020Y002370D01*
X017033Y002389D01*
X017077Y002475D01*
X017107Y002566D01*
X017122Y002662D01*
X017122Y002702D01*
X016516Y002702D01*
X016516Y002718D01*
X016500Y002718D01*
X016500Y002702D01*
X015895Y002702D01*
X015895Y002662D01*
X015910Y002566D01*
X015940Y002475D01*
X015983Y002389D01*
X015997Y002370D01*
X015416Y002370D01*
X015182Y002604D01*
X015182Y002844D01*
X015079Y003092D01*
X014890Y003281D01*
X014642Y003384D01*
X014402Y003384D01*
X014339Y003447D01*
X014227Y003559D01*
X014080Y003620D01*
X012110Y003620D01*
X012110Y003671D01*
X012017Y003896D01*
X011846Y004067D01*
X011621Y004160D01*
X011379Y004160D01*
X011154Y004067D01*
X010983Y003896D01*
X010963Y003848D01*
X010920Y003908D01*
X010858Y003970D01*
X010788Y004020D01*
X010711Y004060D01*
X010629Y004086D01*
X010543Y004100D01*
X010500Y004100D01*
X010500Y003220D01*
X010500Y003220D01*
X010500Y003220D01*
X010500Y004100D01*
X010457Y004100D01*
X010371Y004086D01*
X010289Y004060D01*
X010212Y004020D01*
X010142Y003970D01*
X010080Y003908D01*
X010037Y003848D01*
X010017Y003896D01*
X009846Y004067D01*
X009621Y004160D01*
X009379Y004160D01*
X009154Y004067D01*
X008983Y003896D01*
X008890Y003671D01*
X008890Y003620D01*
X007963Y003620D01*
X007846Y003737D01*
X007621Y003830D01*
X007379Y003830D01*
X007154Y003737D01*
X006983Y003566D01*
X006890Y003341D01*
X006890Y003099D01*
X006983Y002874D01*
X007154Y002703D01*
X007379Y002610D01*
X007621Y002610D01*
X007846Y002703D01*
X007963Y002820D01*
X008890Y002820D01*
X008890Y002769D01*
X008983Y002544D01*
X009154Y002373D01*
X009379Y002280D01*
X009621Y002280D01*
X009846Y002373D01*
X010017Y002544D01*
X010037Y002592D01*
X010080Y002532D01*
X010142Y002470D01*
X010212Y002420D01*
X010289Y002380D01*
X010371Y002354D01*
X010457Y002340D01*
X010500Y002340D01*
X010500Y003220D01*
X010500Y003168D02*
X010500Y003168D01*
X010500Y002930D02*
X010500Y002930D01*
X010500Y002691D02*
X010500Y002691D01*
X010500Y002453D02*
X010500Y002453D01*
X010834Y002453D02*
X011075Y002453D01*
X011925Y002453D02*
X013886Y002453D01*
X013835Y002691D02*
X012078Y002691D01*
X011500Y003220D02*
X014000Y003220D01*
X014510Y002710D01*
X015250Y001970D01*
X027250Y001970D01*
X028000Y001220D01*
X029500Y001220D01*
X030000Y001720D01*
X030581Y001976D02*
X032419Y001976D01*
X032462Y002079D02*
X032366Y001846D01*
X032366Y001594D01*
X032462Y001361D01*
X032641Y001182D01*
X032874Y001086D01*
X033126Y001086D01*
X033359Y001182D01*
X033538Y001361D01*
X033634Y001594D01*
X033634Y001846D01*
X033538Y002079D01*
X033359Y002258D01*
X033126Y002354D01*
X032874Y002354D01*
X032641Y002258D01*
X032462Y002079D01*
X032597Y002214D02*
X030403Y002214D01*
X030634Y001737D02*
X032366Y001737D01*
X032405Y001499D02*
X030595Y001499D01*
X030437Y001260D02*
X032563Y001260D01*
X033437Y001260D02*
X034563Y001260D01*
X034641Y001182D02*
X034462Y001361D01*
X034366Y001594D01*
X034366Y001846D01*
X034462Y002079D01*
X034641Y002258D01*
X034874Y002354D01*
X035126Y002354D01*
X035359Y002258D01*
X035538Y002079D01*
X035634Y001846D01*
X035634Y001594D01*
X035538Y001361D01*
X035359Y001182D01*
X035126Y001086D01*
X034874Y001086D01*
X034641Y001182D01*
X034405Y001499D02*
X033595Y001499D01*
X033634Y001737D02*
X034366Y001737D01*
X034419Y001976D02*
X033581Y001976D01*
X033403Y002214D02*
X034597Y002214D01*
X035403Y002214D02*
X036597Y002214D01*
X036419Y001976D02*
X035581Y001976D01*
X035634Y001737D02*
X036366Y001737D01*
X036405Y001499D02*
X035595Y001499D01*
X035437Y001260D02*
X036563Y001260D01*
X037000Y001720D02*
X037750Y001720D01*
X042000Y005970D01*
X042000Y006970D01*
X041470Y006746D02*
X040341Y006746D01*
X040580Y006984D02*
X040672Y006984D01*
X040500Y007470D02*
X037750Y004720D01*
X037000Y004720D01*
X036366Y004838D02*
X035634Y004838D01*
X035634Y004599D02*
X036366Y004599D01*
X036462Y004361D02*
X035538Y004361D01*
X035214Y004122D02*
X036786Y004122D01*
X037214Y004122D02*
X039586Y004122D01*
X039348Y003884D02*
X028400Y003884D01*
X028400Y004122D02*
X029786Y004122D01*
X029462Y004361D02*
X028400Y004361D01*
X028400Y004599D02*
X029366Y004599D01*
X029500Y005220D02*
X030000Y004720D01*
X030634Y004838D02*
X032366Y004838D01*
X032366Y004599D02*
X030634Y004599D01*
X030538Y004361D02*
X032462Y004361D01*
X032786Y004122D02*
X030214Y004122D01*
X030539Y005076D02*
X032461Y005076D01*
X032778Y005315D02*
X030222Y005315D01*
X029733Y005553D02*
X032101Y005553D01*
X031863Y005792D02*
X028434Y005792D01*
X028000Y006220D02*
X029500Y006220D01*
X030000Y006720D01*
X030446Y006269D02*
X031386Y006269D01*
X031147Y006507D02*
X030598Y006507D01*
X030634Y006746D02*
X030909Y006746D01*
X030670Y006984D02*
X030577Y006984D01*
X030750Y007470D02*
X027750Y007470D01*
X026000Y005720D01*
X022500Y005720D01*
X022000Y006220D01*
X022520Y006266D02*
X022520Y006435D01*
X022215Y006740D01*
X021785Y006740D01*
X021480Y006435D01*
X021480Y006005D01*
X021785Y005700D01*
X021954Y005700D01*
X022273Y005381D01*
X022420Y005320D01*
X023480Y005320D01*
X023480Y005005D01*
X023785Y004700D01*
X024215Y004700D01*
X024520Y005005D01*
X024520Y005320D01*
X026080Y005320D01*
X026227Y005381D01*
X026339Y005493D01*
X027916Y007070D01*
X029458Y007070D01*
X029366Y006846D01*
X029366Y006651D01*
X029334Y006620D01*
X028463Y006620D01*
X028346Y006737D01*
X028121Y006830D01*
X027879Y006830D01*
X027654Y006737D01*
X027483Y006566D01*
X027390Y006341D01*
X027390Y006099D01*
X027483Y005874D01*
X027637Y005720D01*
X027483Y005566D01*
X027390Y005341D01*
X027390Y005099D01*
X027483Y004874D01*
X027600Y004757D01*
X027600Y003886D01*
X026834Y003120D01*
X026335Y003120D01*
X026215Y003240D01*
X025785Y003240D01*
X025770Y003225D01*
X025770Y003299D01*
X025809Y003260D01*
X026000Y003260D01*
X026000Y003720D01*
X026000Y003645D02*
X026000Y003645D01*
X026000Y003407D02*
X026000Y003407D01*
X026337Y003407D02*
X027121Y003407D01*
X027359Y003645D02*
X026460Y003645D01*
X026460Y003884D02*
X027598Y003884D01*
X027600Y004122D02*
X026249Y004122D01*
X026000Y004122D02*
X026000Y004122D01*
X026000Y003884D02*
X026000Y003884D01*
X025751Y004122D02*
X021470Y004122D01*
X021470Y004025D02*
X021470Y004855D01*
X021382Y005069D01*
X021219Y005232D01*
X021005Y005320D01*
X020775Y005320D01*
X020561Y005232D01*
X020398Y005069D01*
X020310Y004855D01*
X020310Y004025D01*
X020398Y003811D01*
X020561Y003648D01*
X020775Y003560D01*
X021005Y003560D01*
X021219Y003648D01*
X021382Y003811D01*
X021470Y004025D01*
X021412Y003884D02*
X025540Y003884D01*
X024940Y003645D02*
X021211Y003645D01*
X020569Y003645D02*
X019431Y003645D01*
X019439Y003648D02*
X019602Y003811D01*
X019690Y004025D01*
X019690Y004855D01*
X019602Y005069D01*
X019439Y005232D01*
X019225Y005320D01*
X018995Y005320D01*
X018781Y005232D01*
X018618Y005069D01*
X018530Y004855D01*
X018530Y004025D01*
X018618Y003811D01*
X018781Y003648D01*
X018995Y003560D01*
X019225Y003560D01*
X019439Y003648D01*
X019632Y003884D02*
X020368Y003884D01*
X020310Y004122D02*
X019690Y004122D01*
X019690Y004361D02*
X020310Y004361D01*
X020310Y004599D02*
X019690Y004599D01*
X019690Y004838D02*
X020310Y004838D01*
X020406Y005076D02*
X019594Y005076D01*
X019239Y005315D02*
X020761Y005315D01*
X021019Y005315D02*
X023480Y005315D01*
X023480Y005076D02*
X021374Y005076D01*
X021470Y004838D02*
X023647Y004838D01*
X024353Y004838D02*
X027520Y004838D01*
X027600Y004599D02*
X021470Y004599D01*
X021470Y004361D02*
X027600Y004361D01*
X028000Y003720D02*
X028000Y005220D01*
X029500Y005220D01*
X029876Y006030D02*
X031624Y006030D01*
X032279Y006507D02*
X032402Y006507D01*
X032366Y006746D02*
X032040Y006746D01*
X031802Y006984D02*
X032423Y006984D01*
X032605Y007223D02*
X031563Y007223D01*
X031325Y007461D02*
X036600Y007461D01*
X036600Y007223D02*
X035395Y007223D01*
X035577Y006984D02*
X036423Y006984D01*
X036366Y006746D02*
X035634Y006746D01*
X035598Y006507D02*
X036402Y006507D01*
X036554Y006269D02*
X035446Y006269D01*
X034554Y006269D02*
X033446Y006269D01*
X033598Y006507D02*
X034402Y006507D01*
X034366Y006746D02*
X033634Y006746D01*
X033577Y006984D02*
X034423Y006984D01*
X034605Y007223D02*
X033395Y007223D01*
X032554Y006269D02*
X032517Y006269D01*
X032500Y005720D02*
X030750Y007470D01*
X031086Y007700D02*
X036600Y007700D01*
X036600Y007938D02*
X027784Y007938D01*
X028022Y008177D02*
X036653Y008177D01*
X036879Y008415D02*
X028261Y008415D01*
X028400Y008654D02*
X037118Y008654D01*
X037500Y008470D02*
X037000Y007970D01*
X037000Y006720D01*
X037500Y005720D02*
X038500Y006720D01*
X038500Y007720D01*
X037500Y008470D02*
X039750Y008470D01*
X040250Y007970D01*
X042000Y007970D01*
X041631Y008415D02*
X041575Y008415D01*
X041547Y008654D02*
X046212Y008654D01*
X046212Y008892D02*
X044879Y008892D01*
X045015Y008949D02*
X044681Y008810D01*
X044319Y008810D01*
X043985Y008949D01*
X043729Y009205D01*
X043590Y009539D01*
X043590Y009684D01*
X043449Y009625D01*
X043150Y009625D01*
X042873Y009740D01*
X042661Y009951D01*
X042547Y010228D01*
X042547Y010527D01*
X042661Y010804D01*
X042873Y011015D01*
X043150Y011130D01*
X043449Y011130D01*
X043725Y011015D01*
X043937Y010804D01*
X044052Y010527D01*
X044052Y010519D01*
X044319Y010630D01*
X044681Y010630D01*
X045015Y010491D01*
X045271Y010235D01*
X045410Y009901D01*
X045410Y009539D01*
X045271Y009205D01*
X045015Y008949D01*
X045197Y009131D02*
X046212Y009131D01*
X046212Y009369D02*
X045340Y009369D01*
X045410Y009608D02*
X046212Y009608D01*
X046212Y009846D02*
X045410Y009846D01*
X045334Y010085D02*
X046212Y010085D01*
X046212Y010323D02*
X045184Y010323D01*
X044846Y010562D02*
X046212Y010562D01*
X046212Y010800D02*
X043939Y010800D01*
X044037Y010562D02*
X044154Y010562D01*
X043670Y011039D02*
X046212Y011039D01*
X046212Y011277D02*
X037454Y011277D01*
X037000Y011720D02*
X038750Y011720D01*
X042000Y014970D01*
X042460Y014616D02*
X044285Y014616D01*
X044319Y014630D02*
X043985Y014491D01*
X043729Y014235D01*
X043590Y013901D01*
X043590Y013756D01*
X043449Y013815D01*
X043150Y013815D01*
X042873Y013700D01*
X042661Y013489D01*
X042547Y013212D01*
X042547Y012913D01*
X042661Y012636D01*
X042873Y012425D01*
X043150Y012310D01*
X043449Y012310D01*
X043725Y012425D01*
X043937Y012636D01*
X044052Y012913D01*
X044052Y012921D01*
X044319Y012810D01*
X044681Y012810D01*
X045015Y012949D01*
X045271Y013205D01*
X045410Y013539D01*
X045410Y013901D01*
X045271Y014235D01*
X045015Y014491D01*
X044681Y014630D01*
X044319Y014630D01*
X044715Y014616D02*
X046212Y014616D01*
X046212Y014378D02*
X045129Y014378D01*
X045311Y014139D02*
X046212Y014139D01*
X046212Y013901D02*
X045410Y013901D01*
X045410Y013662D02*
X046212Y013662D01*
X046212Y013424D02*
X045362Y013424D01*
X045252Y013185D02*
X046212Y013185D01*
X046212Y012947D02*
X045010Y012947D01*
X043967Y012708D02*
X046212Y012708D01*
X046212Y012470D02*
X043770Y012470D01*
X042828Y012470D02*
X040065Y012470D01*
X040304Y012708D02*
X042632Y012708D01*
X042547Y012947D02*
X040542Y012947D01*
X040781Y013185D02*
X042547Y013185D01*
X042634Y013424D02*
X041019Y013424D01*
X041258Y013662D02*
X042835Y013662D01*
X043590Y013901D02*
X041496Y013901D01*
X041735Y014139D02*
X043689Y014139D01*
X043871Y014378D02*
X041973Y014378D01*
X041319Y014855D02*
X040950Y014855D01*
X041080Y014616D02*
X040712Y014616D01*
X040842Y014378D02*
X040468Y014378D01*
X040603Y014139D02*
X037255Y014139D01*
X036745Y014139D02*
X035255Y014139D01*
X035545Y014378D02*
X036455Y014378D01*
X036366Y014616D02*
X035634Y014616D01*
X035631Y014855D02*
X036369Y014855D01*
X036476Y015093D02*
X035524Y015093D01*
X034476Y015093D02*
X033524Y015093D01*
X033631Y014855D02*
X034369Y014855D01*
X034366Y014616D02*
X033634Y014616D01*
X033545Y014378D02*
X034455Y014378D01*
X034745Y014139D02*
X033255Y014139D01*
X032745Y014139D02*
X030255Y014139D01*
X030545Y014378D02*
X032455Y014378D01*
X032366Y014616D02*
X030634Y014616D01*
X030631Y014855D02*
X032369Y014855D01*
X032476Y015093D02*
X030524Y015093D01*
X030181Y015332D02*
X032393Y015332D01*
X032084Y015570D02*
X029700Y015570D01*
X029500Y015220D02*
X030000Y014720D01*
X029366Y014616D02*
X028400Y014616D01*
X028400Y014378D02*
X029455Y014378D01*
X029745Y014139D02*
X028400Y014139D01*
X028400Y013901D02*
X040365Y013901D01*
X040126Y013662D02*
X028400Y013662D01*
X028269Y013424D02*
X039888Y013424D01*
X039649Y013185D02*
X028031Y013185D01*
X027792Y012947D02*
X039411Y012947D01*
X039172Y012708D02*
X027554Y012708D01*
X027315Y012470D02*
X038934Y012470D01*
X038695Y012231D02*
X037386Y012231D01*
X036614Y012231D02*
X035386Y012231D01*
X035359Y012258D02*
X035126Y012354D01*
X034874Y012354D01*
X034641Y012258D01*
X034462Y012079D01*
X034366Y011846D01*
X034366Y011594D01*
X034462Y011361D01*
X034641Y011182D01*
X034874Y011086D01*
X035126Y011086D01*
X035359Y011182D01*
X035538Y011361D01*
X035634Y011594D01*
X035634Y011846D01*
X035538Y012079D01*
X035359Y012258D01*
X035574Y011993D02*
X036426Y011993D01*
X036366Y011754D02*
X035634Y011754D01*
X035602Y011516D02*
X036398Y011516D01*
X036546Y011277D02*
X035454Y011277D01*
X034546Y011277D02*
X033454Y011277D01*
X033538Y011361D02*
X033634Y011594D01*
X033634Y011846D01*
X033538Y012079D01*
X033359Y012258D01*
X033126Y012354D01*
X032874Y012354D01*
X032641Y012258D01*
X032462Y012079D01*
X032366Y011846D01*
X032366Y011594D01*
X032462Y011361D01*
X032641Y011182D01*
X032874Y011086D01*
X033126Y011086D01*
X033359Y011182D01*
X033538Y011361D01*
X033602Y011516D02*
X034398Y011516D01*
X034366Y011754D02*
X033634Y011754D01*
X033574Y011993D02*
X034426Y011993D01*
X034614Y012231D02*
X033386Y012231D01*
X032614Y012231D02*
X030386Y012231D01*
X030574Y011993D02*
X032426Y011993D01*
X032366Y011754D02*
X030634Y011754D01*
X030602Y011516D02*
X032398Y011516D01*
X032546Y011277D02*
X030454Y011277D01*
X029884Y011039D02*
X042929Y011039D01*
X042660Y010800D02*
X028443Y010800D01*
X028000Y011220D02*
X026000Y011220D01*
X024500Y012720D01*
X019500Y012720D01*
X018750Y012470D02*
X019250Y011970D01*
X022250Y011970D01*
X023000Y011220D01*
X023000Y007220D01*
X024000Y006220D01*
X023480Y006174D02*
X023480Y006120D01*
X022666Y006120D01*
X022520Y006266D01*
X022520Y006269D02*
X023386Y006269D01*
X023480Y006174D02*
X022661Y006993D01*
X022600Y007140D01*
X022600Y011054D01*
X022520Y011134D01*
X022520Y011005D01*
X022235Y010720D01*
X022520Y010435D01*
X022520Y010005D01*
X022215Y009700D01*
X021785Y009700D01*
X021665Y009820D01*
X018950Y009820D01*
X018977Y009809D01*
X019546Y009240D01*
X019715Y009240D01*
X020020Y008935D01*
X020020Y008505D01*
X019715Y008200D01*
X019285Y008200D01*
X018980Y008505D01*
X018980Y008674D01*
X018584Y009070D01*
X013920Y009070D01*
X013773Y009131D01*
X013661Y009243D01*
X012584Y010320D01*
X010967Y010320D01*
X010994Y010313D01*
X011286Y010144D01*
X011524Y009906D01*
X011693Y009614D01*
X011780Y009289D01*
X011780Y008951D01*
X011693Y008626D01*
X011524Y008334D01*
X011286Y008096D01*
X010994Y007927D01*
X010669Y007840D01*
X010331Y007840D01*
X010006Y007927D01*
X009714Y008096D01*
X009476Y008334D01*
X009307Y008626D01*
X009220Y008951D01*
X009220Y009289D01*
X009307Y009614D01*
X009476Y009906D01*
X009714Y010144D01*
X010006Y010313D01*
X010033Y010320D01*
X008920Y010320D01*
X008773Y010381D01*
X008661Y010493D01*
X007661Y011493D01*
X007600Y011640D01*
X007600Y012306D01*
X007512Y012394D01*
X007500Y012424D01*
X007488Y012394D01*
X007326Y012232D01*
X007114Y012145D01*
X006886Y012145D01*
X006674Y012232D01*
X006512Y012394D01*
X006500Y012424D01*
X006488Y012394D01*
X006326Y012232D01*
X006114Y012145D01*
X005886Y012145D01*
X005674Y012232D01*
X005512Y012394D01*
X005500Y012424D01*
X005488Y012394D01*
X005326Y012232D01*
X005114Y012145D01*
X004886Y012145D01*
X004674Y012232D01*
X004512Y012394D01*
X004500Y012424D01*
X004488Y012394D01*
X004326Y012232D01*
X004114Y012145D01*
X003886Y012145D01*
X003674Y012232D01*
X003512Y012394D01*
X003500Y012424D01*
X003488Y012394D01*
X003326Y012232D01*
X003114Y012145D01*
X002886Y012145D01*
X002674Y012232D01*
X002530Y012376D01*
X002530Y007165D01*
X002542Y007191D01*
X002600Y007283D01*
X002668Y007368D01*
X002746Y007445D01*
X002831Y007513D01*
X002923Y007571D01*
X003021Y007619D01*
X003124Y007655D01*
X003231Y007679D01*
X003274Y007684D01*
X003274Y006840D01*
X003514Y006840D01*
X004358Y006840D01*
X004353Y006883D01*
X004328Y006989D01*
X004292Y007092D01*
X004245Y007191D01*
X004187Y007283D01*
X004119Y007368D01*
X004042Y007445D01*
X003957Y007513D01*
X003864Y007571D01*
X003766Y007619D01*
X003663Y007655D01*
X003557Y007679D01*
X003514Y007684D01*
X003514Y006840D01*
X003514Y006600D01*
X004358Y006600D01*
X004353Y006557D01*
X004328Y006451D01*
X004292Y006348D01*
X004245Y006249D01*
X004187Y006157D01*
X004119Y006072D01*
X004042Y005995D01*
X003957Y005927D01*
X003864Y005869D01*
X003766Y005821D01*
X003663Y005785D01*
X003557Y005761D01*
X003514Y005756D01*
X003514Y006600D01*
X003274Y006600D01*
X003274Y005756D01*
X003231Y005761D01*
X003124Y005785D01*
X003021Y005821D01*
X002923Y005869D01*
X002831Y005927D01*
X002746Y005995D01*
X002668Y006072D01*
X002600Y006157D01*
X002542Y006249D01*
X002530Y006275D01*
X002530Y006269D02*
X002533Y006269D01*
X002530Y006030D02*
X002710Y006030D01*
X002530Y005792D02*
X003107Y005792D01*
X003274Y005792D02*
X003514Y005792D01*
X003681Y005792D02*
X004590Y005792D01*
X004612Y005792D02*
X004852Y005792D01*
X004875Y005792D02*
X005243Y005792D01*
X005173Y005832D02*
X005426Y005686D01*
X005708Y005610D01*
X006000Y005610D01*
X006283Y005686D01*
X006536Y005832D01*
X006742Y006038D01*
X006889Y006292D01*
X006896Y006320D01*
X007080Y006320D01*
X007227Y006381D01*
X007456Y006610D01*
X007621Y006610D01*
X007846Y006703D01*
X008017Y006874D01*
X008110Y007099D01*
X008110Y007341D01*
X008017Y007566D01*
X007846Y007737D01*
X007621Y007830D01*
X007379Y007830D01*
X007154Y007737D01*
X006983Y007566D01*
X006890Y007341D01*
X006890Y007176D01*
X006879Y007165D01*
X006742Y007402D01*
X006536Y007608D01*
X006283Y007754D01*
X006000Y007830D01*
X005708Y007830D01*
X005426Y007754D01*
X005173Y007608D01*
X004966Y007402D01*
X004820Y007148D01*
X004744Y006866D01*
X004744Y006574D01*
X004820Y006292D01*
X004966Y006038D01*
X005173Y005832D01*
X004975Y006030D02*
X004077Y006030D01*
X004254Y006269D02*
X004833Y006269D01*
X004762Y006507D02*
X004341Y006507D01*
X004744Y006746D02*
X003514Y006746D01*
X003394Y006720D02*
X003394Y008114D01*
X004050Y008770D01*
X004050Y010220D01*
X004585Y010220D01*
X004585Y010442D01*
X004272Y010755D01*
X004050Y010755D01*
X004050Y010220D01*
X004050Y010220D01*
X004050Y010220D01*
X004585Y010220D01*
X004585Y009998D01*
X004272Y009685D01*
X004050Y009685D01*
X004050Y010220D01*
X004050Y010220D01*
X004050Y010220D01*
X003515Y010220D01*
X003515Y010442D01*
X003828Y010755D01*
X004050Y010755D01*
X004050Y010220D01*
X004050Y009685D01*
X003828Y009685D01*
X003515Y009998D01*
X003515Y010220D01*
X004050Y010220D01*
X004050Y010323D02*
X004050Y010323D01*
X004050Y010085D02*
X004050Y010085D01*
X004050Y009846D02*
X004050Y009846D01*
X004433Y009846D02*
X004983Y009846D01*
X004946Y009883D02*
X005113Y009716D01*
X005332Y009625D01*
X005568Y009625D01*
X005787Y009716D01*
X005954Y009883D01*
X006045Y010102D01*
X006045Y010338D01*
X005954Y010557D01*
X005787Y010724D01*
X005568Y010815D01*
X005332Y010815D01*
X005113Y010724D01*
X004946Y010557D01*
X004855Y010338D01*
X004855Y010102D01*
X004946Y009883D01*
X004862Y010085D02*
X004585Y010085D01*
X004585Y010323D02*
X004855Y010323D01*
X004950Y010562D02*
X004465Y010562D01*
X004050Y010562D02*
X004050Y010562D01*
X003635Y010562D02*
X002530Y010562D01*
X002530Y010800D02*
X005295Y010800D01*
X005605Y010800D02*
X008354Y010800D01*
X008116Y011039D02*
X002530Y011039D01*
X002530Y011277D02*
X007877Y011277D01*
X007652Y011516D02*
X002530Y011516D01*
X002530Y011754D02*
X007600Y011754D01*
X007600Y011993D02*
X002530Y011993D01*
X002530Y012231D02*
X002677Y012231D01*
X003323Y012231D02*
X003677Y012231D01*
X004323Y012231D02*
X004677Y012231D01*
X005323Y012231D02*
X005677Y012231D01*
X006323Y012231D02*
X006677Y012231D01*
X007323Y012231D02*
X007600Y012231D01*
X008000Y012720D02*
X008000Y011720D01*
X009000Y010720D01*
X012750Y010720D01*
X014000Y009470D01*
X018750Y009470D01*
X019500Y008720D01*
X020020Y008654D02*
X022600Y008654D01*
X022600Y008892D02*
X020020Y008892D01*
X019825Y009131D02*
X022600Y009131D01*
X022600Y009369D02*
X019417Y009369D01*
X019178Y009608D02*
X022600Y009608D01*
X022600Y009846D02*
X022361Y009846D01*
X022520Y010085D02*
X022600Y010085D01*
X022600Y010323D02*
X022520Y010323D01*
X022600Y010562D02*
X022394Y010562D01*
X022315Y010800D02*
X022600Y010800D01*
X022600Y011039D02*
X022520Y011039D01*
X022000Y011220D02*
X017000Y011220D01*
X016500Y011720D01*
X016500Y013970D01*
X014750Y015720D01*
X010500Y015720D01*
X009000Y017220D01*
X009000Y018720D01*
X009386Y019148D02*
X009600Y019148D01*
X009600Y019134D02*
X009600Y019640D01*
X009600Y019800D01*
X009661Y019947D01*
X011534Y021820D01*
X009170Y021820D01*
X009023Y021881D01*
X008911Y021993D01*
X008911Y021993D01*
X008510Y022395D01*
X008386Y022395D01*
X008174Y022482D01*
X008012Y022644D01*
X007925Y022856D01*
X007925Y023070D01*
X007914Y023070D01*
X007826Y022982D01*
X007614Y022895D01*
X007386Y022895D01*
X007174Y022982D01*
X007012Y023144D01*
X006925Y023356D01*
X006925Y023584D01*
X007012Y023796D01*
X007174Y023958D01*
X007204Y023970D01*
X007174Y023982D01*
X007012Y024144D01*
X006925Y024356D01*
X006925Y024584D01*
X007012Y024796D01*
X007174Y024958D01*
X007386Y025045D01*
X007614Y025045D01*
X007826Y024958D01*
X007988Y024796D01*
X008075Y024584D01*
X008075Y024359D01*
X008100Y024384D01*
X008100Y025800D01*
X008161Y025947D01*
X011661Y029447D01*
X011773Y029559D01*
X011920Y029620D01*
X026771Y029620D01*
X026909Y029677D01*
X027091Y029677D01*
X027259Y029608D01*
X027388Y029479D01*
X027457Y029311D01*
X027457Y029129D01*
X027388Y028961D01*
X027259Y028832D01*
X027091Y028763D01*
X026909Y028763D01*
X026771Y028820D01*
X026460Y028820D01*
X026460Y028720D01*
X026000Y028720D01*
X026000Y028720D01*
X026000Y028720D01*
X025540Y028720D01*
X025540Y028820D01*
X012166Y028820D01*
X008900Y025554D01*
X008900Y024384D01*
X008988Y024296D01*
X009068Y024103D01*
X009350Y024386D01*
X009350Y025550D01*
X009411Y025697D01*
X012161Y028447D01*
X012273Y028559D01*
X012420Y028620D01*
X023670Y028620D01*
X023830Y028620D01*
X023977Y028559D01*
X025166Y027370D01*
X025615Y027370D01*
X025480Y027505D01*
X025480Y027715D01*
X025465Y027700D01*
X025035Y027700D01*
X024730Y028005D01*
X024730Y028435D01*
X025035Y028740D01*
X025465Y028740D01*
X025540Y028665D01*
X025540Y028720D01*
X026000Y028720D01*
X026460Y028720D01*
X026460Y028529D01*
X026191Y028260D01*
X026000Y028260D01*
X026000Y028720D01*
X026000Y028720D01*
X026000Y028260D01*
X025809Y028260D01*
X025770Y028299D01*
X025770Y028225D01*
X025785Y028240D01*
X026215Y028240D01*
X026335Y028120D01*
X026834Y028120D01*
X027600Y028886D01*
X027600Y029757D01*
X027483Y029874D01*
X027390Y030099D01*
X027390Y030341D01*
X027483Y030566D01*
X027654Y030737D01*
X027831Y030810D01*
X005218Y030810D01*
X005481Y030641D01*
X005481Y030641D01*
X005832Y030236D01*
X005832Y030236D01*
X006054Y029750D01*
X006054Y029750D01*
X006130Y029220D01*
X006054Y028690D01*
X006054Y028690D01*
X005832Y028204D01*
X005832Y028204D01*
X005481Y027799D01*
X005481Y027799D01*
X005031Y027510D01*
X004518Y027359D01*
X003982Y027359D01*
X003469Y027510D01*
X003469Y027510D01*
X003019Y027799D01*
X003019Y027799D01*
X002668Y028204D01*
X002668Y028204D01*
X002530Y028507D01*
X002530Y019064D01*
X002674Y019208D01*
X002886Y019295D01*
X003114Y019295D01*
X003326Y019208D01*
X003488Y019046D01*
X003500Y019016D01*
X003512Y019046D01*
X003674Y019208D01*
X003886Y019295D01*
X004114Y019295D01*
X004326Y019208D01*
X004488Y019046D01*
X004500Y019016D01*
X004512Y019046D01*
X004674Y019208D01*
X004886Y019295D01*
X005114Y019295D01*
X005326Y019208D01*
X005488Y019046D01*
X005500Y019016D01*
X005512Y019046D01*
X005674Y019208D01*
X005886Y019295D01*
X006114Y019295D01*
X006326Y019208D01*
X006488Y019046D01*
X006500Y019016D01*
X006512Y019046D01*
X006674Y019208D01*
X006886Y019295D01*
X007114Y019295D01*
X007326Y019208D01*
X007488Y019046D01*
X007500Y019016D01*
X007512Y019046D01*
X007674Y019208D01*
X007886Y019295D01*
X008114Y019295D01*
X008326Y019208D01*
X008488Y019046D01*
X008500Y019016D01*
X008512Y019046D01*
X008674Y019208D01*
X008886Y019295D01*
X009114Y019295D01*
X009326Y019208D01*
X009488Y019046D01*
X009500Y019016D01*
X009512Y019046D01*
X009600Y019134D01*
X009600Y019386D02*
X002530Y019386D01*
X002530Y019148D02*
X002614Y019148D01*
X002530Y019625D02*
X009600Y019625D01*
X009626Y019863D02*
X002530Y019863D01*
X002530Y020102D02*
X009816Y020102D01*
X010054Y020340D02*
X006423Y020340D01*
X006350Y020310D02*
X006627Y020425D01*
X006839Y020636D01*
X006953Y020913D01*
X006953Y021212D01*
X006839Y021489D01*
X006627Y021700D01*
X006350Y021815D01*
X006051Y021815D01*
X005910Y021756D01*
X005910Y021901D01*
X005771Y022235D01*
X005515Y022491D01*
X005181Y022630D01*
X004819Y022630D01*
X004485Y022491D01*
X004229Y022235D01*
X004090Y021901D01*
X004090Y021539D01*
X004229Y021205D01*
X004485Y020949D01*
X004819Y020810D01*
X005181Y020810D01*
X005448Y020921D01*
X005448Y020913D01*
X005563Y020636D01*
X005775Y020425D01*
X006051Y020310D01*
X006350Y020310D01*
X005979Y020340D02*
X002530Y020340D01*
X002530Y020579D02*
X005621Y020579D01*
X005488Y020817D02*
X005198Y020817D01*
X004802Y020817D02*
X002530Y020817D01*
X002530Y021056D02*
X004378Y021056D01*
X004192Y021294D02*
X002530Y021294D01*
X002530Y021533D02*
X004093Y021533D01*
X004090Y021771D02*
X002530Y021771D01*
X002530Y022010D02*
X004135Y022010D01*
X004241Y022248D02*
X002530Y022248D01*
X002530Y022487D02*
X004480Y022487D01*
X005520Y022487D02*
X008170Y022487D01*
X007979Y022725D02*
X002530Y022725D01*
X002530Y022964D02*
X007219Y022964D01*
X006988Y023202D02*
X002530Y023202D01*
X002530Y023441D02*
X006925Y023441D01*
X006964Y023679D02*
X002530Y023679D01*
X002530Y023918D02*
X007134Y023918D01*
X007007Y024156D02*
X002530Y024156D01*
X002530Y024395D02*
X006925Y024395D01*
X006945Y024633D02*
X002530Y024633D01*
X002530Y024872D02*
X004671Y024872D01*
X004819Y024810D02*
X005181Y024810D01*
X005515Y024949D01*
X005771Y025205D01*
X005910Y025539D01*
X005910Y025684D01*
X006051Y025625D01*
X006350Y025625D01*
X006627Y025740D01*
X006839Y025951D01*
X006953Y026228D01*
X006953Y026527D01*
X006839Y026804D01*
X006627Y027015D01*
X006350Y027130D01*
X006051Y027130D01*
X005775Y027015D01*
X005563Y026804D01*
X005448Y026527D01*
X005448Y026519D01*
X005181Y026630D01*
X004819Y026630D01*
X004485Y026491D01*
X004229Y026235D01*
X004090Y025901D01*
X004090Y025539D01*
X004229Y025205D01*
X004485Y024949D01*
X004819Y024810D01*
X005329Y024872D02*
X007088Y024872D01*
X007912Y024872D02*
X008100Y024872D01*
X008100Y025110D02*
X005677Y025110D01*
X005831Y025349D02*
X008100Y025349D01*
X008100Y025587D02*
X005910Y025587D01*
X006713Y025826D02*
X008111Y025826D01*
X008278Y026064D02*
X006885Y026064D01*
X006953Y026303D02*
X008517Y026303D01*
X008755Y026541D02*
X006947Y026541D01*
X006849Y026780D02*
X008994Y026780D01*
X009232Y027018D02*
X006621Y027018D01*
X005781Y027018D02*
X002530Y027018D01*
X002530Y026780D02*
X005553Y026780D01*
X005454Y026541D02*
X005396Y026541D01*
X004604Y026541D02*
X002530Y026541D01*
X002530Y026303D02*
X004296Y026303D01*
X004158Y026064D02*
X002530Y026064D01*
X002530Y025826D02*
X004090Y025826D01*
X004090Y025587D02*
X002530Y025587D01*
X002530Y025349D02*
X004169Y025349D01*
X004323Y025110D02*
X002530Y025110D01*
X002530Y027257D02*
X009471Y027257D01*
X009709Y027495D02*
X004980Y027495D01*
X005379Y027734D02*
X009948Y027734D01*
X010186Y027972D02*
X005631Y027972D01*
X005835Y028211D02*
X010425Y028211D01*
X010663Y028449D02*
X005944Y028449D01*
X006053Y028688D02*
X010902Y028688D01*
X011140Y028926D02*
X006088Y028926D01*
X006122Y029165D02*
X011379Y029165D01*
X011617Y029403D02*
X006104Y029403D01*
X006069Y029642D02*
X026823Y029642D01*
X027177Y029642D02*
X027600Y029642D01*
X027600Y029403D02*
X027419Y029403D01*
X027457Y029165D02*
X027600Y029165D01*
X027600Y028926D02*
X027353Y028926D01*
X027402Y028688D02*
X026460Y028688D01*
X026380Y028449D02*
X027163Y028449D01*
X026925Y028211D02*
X026245Y028211D01*
X026000Y028449D02*
X026000Y028449D01*
X026000Y028688D02*
X026000Y028688D01*
X025540Y028688D02*
X025518Y028688D01*
X024982Y028688D02*
X012033Y028688D01*
X012163Y028449D02*
X011795Y028449D01*
X011925Y028211D02*
X011556Y028211D01*
X011686Y027972D02*
X011318Y027972D01*
X011448Y027734D02*
X011079Y027734D01*
X011209Y027495D02*
X010841Y027495D01*
X010971Y027257D02*
X010602Y027257D01*
X010732Y027018D02*
X010364Y027018D01*
X010494Y026780D02*
X010125Y026780D01*
X010255Y026541D02*
X009887Y026541D01*
X010017Y026303D02*
X009648Y026303D01*
X009778Y026064D02*
X009410Y026064D01*
X009540Y025826D02*
X009171Y025826D01*
X009366Y025587D02*
X008933Y025587D01*
X008900Y025349D02*
X009350Y025349D01*
X009350Y025110D02*
X008900Y025110D01*
X008900Y024872D02*
X009350Y024872D01*
X009350Y024633D02*
X008900Y024633D01*
X008900Y024395D02*
X009350Y024395D01*
X009120Y024156D02*
X009046Y024156D01*
X008500Y023970D02*
X008500Y025720D01*
X012000Y029220D01*
X027000Y029220D01*
X027481Y029880D02*
X024395Y029880D01*
X024520Y030005D02*
X024215Y029700D01*
X023785Y029700D01*
X023480Y030005D01*
X023480Y030435D01*
X023785Y030740D01*
X024215Y030740D01*
X024520Y030435D01*
X024520Y030005D01*
X024520Y030119D02*
X027390Y030119D01*
X027397Y030357D02*
X024520Y030357D01*
X024360Y030596D02*
X027513Y030596D01*
X028000Y030220D02*
X028000Y028720D01*
X027000Y027720D01*
X026000Y027720D01*
X025490Y027495D02*
X025041Y027495D01*
X025001Y027734D02*
X024802Y027734D01*
X024763Y027972D02*
X024564Y027972D01*
X024730Y028211D02*
X024325Y028211D01*
X024087Y028449D02*
X024744Y028449D01*
X023750Y028220D02*
X025000Y026970D01*
X027000Y026970D01*
X028500Y028470D01*
X031250Y028470D01*
X033000Y026720D01*
X033480Y026303D02*
X034520Y026303D01*
X034388Y026541D02*
X033612Y026541D01*
X033634Y026780D02*
X034366Y026780D01*
X034437Y027018D02*
X033563Y027018D01*
X033361Y027257D02*
X034639Y027257D01*
X035361Y027257D02*
X036639Y027257D01*
X036437Y027018D02*
X035563Y027018D01*
X035634Y026780D02*
X036366Y026780D01*
X036388Y026541D02*
X035612Y026541D01*
X035480Y026303D02*
X036520Y026303D01*
X037000Y026720D02*
X037750Y026720D01*
X040500Y023970D01*
X042000Y023970D01*
X042502Y023679D02*
X046212Y023679D01*
X046212Y023441D02*
X042343Y023441D01*
X042527Y023202D02*
X046212Y023202D01*
X046212Y022964D02*
X042575Y022964D01*
X042521Y022725D02*
X046212Y022725D01*
X046212Y022487D02*
X045020Y022487D01*
X045259Y022248D02*
X046212Y022248D01*
X046212Y022010D02*
X045365Y022010D01*
X045410Y021771D02*
X046212Y021771D01*
X046212Y021533D02*
X045407Y021533D01*
X045308Y021294D02*
X046212Y021294D01*
X046212Y021056D02*
X045122Y021056D01*
X044698Y020817D02*
X046212Y020817D01*
X046212Y020579D02*
X043879Y020579D01*
X044012Y020817D02*
X044302Y020817D01*
X043521Y020340D02*
X046212Y020340D01*
X046212Y020102D02*
X037874Y020102D01*
X038173Y019863D02*
X046212Y019863D01*
X046212Y019625D02*
X038411Y019625D01*
X038650Y019386D02*
X046212Y019386D01*
X046212Y019148D02*
X038888Y019148D01*
X039127Y018909D02*
X042767Y018909D01*
X042661Y018804D02*
X042547Y018527D01*
X042547Y018228D01*
X042661Y017951D01*
X042873Y017740D01*
X043150Y017625D01*
X043449Y017625D01*
X043590Y017684D01*
X043590Y017539D01*
X043729Y017205D01*
X043985Y016949D01*
X044319Y016810D01*
X044681Y016810D01*
X045015Y016949D01*
X045271Y017205D01*
X045410Y017539D01*
X045410Y017901D01*
X045271Y018235D01*
X045015Y018491D01*
X044681Y018630D01*
X044319Y018630D01*
X044052Y018519D01*
X044052Y018527D01*
X043937Y018804D01*
X043725Y019015D01*
X043449Y019130D01*
X043150Y019130D01*
X042873Y019015D01*
X042661Y018804D01*
X042606Y018671D02*
X039365Y018671D01*
X039604Y018432D02*
X042547Y018432D01*
X042561Y018194D02*
X039842Y018194D01*
X040081Y017955D02*
X042660Y017955D01*
X042929Y017717D02*
X040319Y017717D01*
X040558Y017478D02*
X043615Y017478D01*
X043714Y017240D02*
X040796Y017240D01*
X041221Y017001D02*
X043932Y017001D01*
X045068Y017001D02*
X046212Y017001D01*
X046212Y016763D02*
X041502Y016763D01*
X041575Y016524D02*
X041834Y016524D01*
X042166Y016524D02*
X046212Y016524D01*
X046212Y016286D02*
X042492Y016286D01*
X042575Y016047D02*
X046212Y016047D01*
X046212Y015809D02*
X042556Y015809D01*
X042414Y015570D02*
X046212Y015570D01*
X046212Y015332D02*
X042452Y015332D01*
X042572Y015093D02*
X046212Y015093D01*
X046212Y014855D02*
X042575Y014855D01*
X042000Y015970D02*
X040250Y015970D01*
X039500Y016720D01*
X037000Y016720D01*
X036537Y016286D02*
X035463Y016286D01*
X035538Y016361D02*
X035634Y016594D01*
X035634Y016846D01*
X035538Y017079D01*
X035359Y017258D01*
X035126Y017354D01*
X034874Y017354D01*
X034641Y017258D01*
X034462Y017079D01*
X034366Y016846D01*
X034366Y016594D01*
X034462Y016361D01*
X034641Y016182D01*
X034791Y016120D01*
X033209Y016120D01*
X033359Y016182D01*
X033538Y016361D01*
X033634Y016594D01*
X033634Y016846D01*
X033538Y017079D01*
X033359Y017258D01*
X033126Y017354D01*
X032874Y017354D01*
X032641Y017258D01*
X032462Y017079D01*
X032366Y016846D01*
X032366Y016594D01*
X032462Y016361D01*
X032641Y016182D01*
X032791Y016120D01*
X032666Y016120D01*
X031089Y017697D01*
X030977Y017809D01*
X030830Y017870D01*
X027920Y017870D01*
X027773Y017809D01*
X026084Y016120D01*
X024520Y016120D01*
X024520Y016435D01*
X024215Y016740D01*
X023785Y016740D01*
X023665Y016620D01*
X021920Y016620D01*
X021773Y016559D01*
X021661Y016447D01*
X021738Y016524D02*
X021380Y016524D01*
X021410Y016763D02*
X026727Y016763D01*
X026965Y017001D02*
X021410Y017001D01*
X022000Y016220D02*
X024000Y016220D01*
X024520Y016286D02*
X026250Y016286D01*
X026488Y016524D02*
X024431Y016524D01*
X024520Y015320D02*
X026330Y015320D01*
X026477Y015381D01*
X026589Y015493D01*
X027390Y016294D01*
X027390Y016099D01*
X027483Y015874D01*
X027637Y015720D01*
X027483Y015566D01*
X027390Y015341D01*
X027390Y015099D01*
X027483Y014874D01*
X027600Y014757D01*
X027600Y013886D01*
X026834Y013120D01*
X026335Y013120D01*
X026215Y013240D01*
X025785Y013240D01*
X025770Y013225D01*
X025770Y013299D01*
X025809Y013260D01*
X026000Y013260D01*
X026191Y013260D01*
X026460Y013529D01*
X026460Y013720D01*
X026460Y013911D01*
X026191Y014180D01*
X026000Y014180D01*
X026000Y013720D01*
X026000Y013720D01*
X026460Y013720D01*
X026000Y013720D01*
X026000Y013720D01*
X026000Y013720D01*
X025540Y013720D01*
X025540Y013911D01*
X025809Y014180D01*
X026000Y014180D01*
X026000Y013720D01*
X026000Y013260D01*
X026000Y013720D01*
X026000Y013720D01*
X025540Y013720D01*
X025540Y013665D01*
X025465Y013740D01*
X025035Y013740D01*
X024730Y013435D01*
X024730Y013056D01*
X024727Y013059D01*
X024580Y013120D01*
X019835Y013120D01*
X019715Y013240D01*
X019285Y013240D01*
X019150Y013105D01*
X019150Y013550D01*
X019146Y013560D01*
X019225Y013560D01*
X019439Y013648D01*
X019602Y013811D01*
X019690Y014025D01*
X019690Y014855D01*
X019602Y015069D01*
X019439Y015232D01*
X019225Y015320D01*
X018995Y015320D01*
X018781Y015232D01*
X018618Y015069D01*
X018530Y014855D01*
X018530Y014256D01*
X015977Y016809D01*
X015950Y016820D01*
X016834Y016820D01*
X018161Y015493D01*
X018273Y015381D01*
X018420Y015320D01*
X021480Y015320D01*
X021480Y015005D01*
X021785Y014700D01*
X022215Y014700D01*
X022520Y015005D01*
X022520Y015174D01*
X022666Y015320D01*
X023480Y015320D01*
X023480Y015005D01*
X023785Y014700D01*
X024215Y014700D01*
X024520Y015005D01*
X024520Y015320D01*
X024520Y015093D02*
X027392Y015093D01*
X027390Y015332D02*
X026357Y015332D01*
X026666Y015570D02*
X027487Y015570D01*
X027549Y015809D02*
X026904Y015809D01*
X027143Y016047D02*
X027411Y016047D01*
X027390Y016286D02*
X027381Y016286D01*
X028000Y016220D02*
X029500Y016220D01*
X030000Y016720D01*
X030463Y016286D02*
X031369Y016286D01*
X031130Y016524D02*
X030605Y016524D01*
X030634Y016763D02*
X030892Y016763D01*
X030653Y017001D02*
X030570Y017001D01*
X030750Y017470D02*
X028000Y017470D01*
X026250Y015720D01*
X022500Y015720D01*
X022000Y015220D01*
X021630Y014855D02*
X021470Y014855D01*
X021382Y015069D01*
X021219Y015232D01*
X021005Y015320D01*
X020775Y015320D01*
X020561Y015232D01*
X020398Y015069D01*
X020310Y014855D01*
X020310Y014025D01*
X020398Y013811D01*
X020561Y013648D01*
X020775Y013560D01*
X021005Y013560D01*
X021219Y013648D01*
X021382Y013811D01*
X021470Y014025D01*
X021470Y014855D01*
X021480Y015093D02*
X021357Y015093D01*
X021470Y014616D02*
X027600Y014616D01*
X027600Y014378D02*
X021470Y014378D01*
X021470Y014139D02*
X025768Y014139D01*
X026000Y014139D02*
X026000Y014139D01*
X026232Y014139D02*
X027600Y014139D01*
X027600Y013901D02*
X026460Y013901D01*
X026460Y013662D02*
X027376Y013662D01*
X027138Y013424D02*
X026354Y013424D01*
X026270Y013185D02*
X026899Y013185D01*
X027000Y012720D02*
X026000Y012720D01*
X025480Y012708D02*
X025473Y012708D01*
X025515Y012470D02*
X025316Y012470D01*
X025555Y012231D02*
X025754Y012231D01*
X025793Y011993D02*
X029426Y011993D01*
X029366Y011754D02*
X028305Y011754D01*
X027695Y011754D02*
X026032Y011754D01*
X026246Y012231D02*
X029614Y012231D01*
X030000Y011720D02*
X029500Y011220D01*
X028000Y011220D01*
X027557Y010800D02*
X024315Y010800D01*
X024235Y010720D02*
X024520Y011005D01*
X024520Y011435D01*
X024215Y011740D01*
X023785Y011740D01*
X023480Y011435D01*
X023480Y011005D01*
X023765Y010720D01*
X023480Y010435D01*
X023480Y010005D01*
X023785Y009700D01*
X024215Y009700D01*
X024520Y010005D01*
X024520Y010435D01*
X024235Y010720D01*
X024394Y010562D02*
X027481Y010562D01*
X027483Y010566D02*
X027390Y010341D01*
X027390Y010099D01*
X027483Y009874D01*
X027600Y009757D01*
X027600Y008886D01*
X026834Y008120D01*
X026335Y008120D01*
X026215Y008240D01*
X025785Y008240D01*
X025770Y008225D01*
X025770Y008299D01*
X025809Y008260D01*
X026000Y008260D01*
X026191Y008260D01*
X026460Y008529D01*
X026460Y008720D01*
X026460Y008911D01*
X026191Y009180D01*
X026000Y009180D01*
X026000Y008720D01*
X026000Y008720D01*
X026460Y008720D01*
X026000Y008720D01*
X026000Y008720D01*
X026000Y008720D01*
X025540Y008720D01*
X025540Y008911D01*
X025809Y009180D01*
X026000Y009180D01*
X026000Y008720D01*
X026000Y008260D01*
X026000Y008720D01*
X026000Y008720D01*
X025540Y008720D01*
X025540Y008665D01*
X025465Y008740D01*
X025035Y008740D01*
X024730Y008435D01*
X024730Y008005D01*
X025035Y007700D01*
X025465Y007700D01*
X025480Y007715D01*
X025480Y007505D01*
X025785Y007200D01*
X026215Y007200D01*
X026335Y007320D01*
X027034Y007320D01*
X025834Y006120D01*
X024520Y006120D01*
X024520Y006435D01*
X024215Y006740D01*
X024046Y006740D01*
X023400Y007386D01*
X023400Y011300D01*
X023339Y011447D01*
X023227Y011559D01*
X022477Y012309D01*
X022450Y012320D01*
X024334Y012320D01*
X025773Y010881D01*
X025920Y010820D01*
X027537Y010820D01*
X027637Y010720D01*
X027483Y010566D01*
X027390Y010323D02*
X024520Y010323D01*
X024520Y010085D02*
X027396Y010085D01*
X027511Y009846D02*
X024361Y009846D01*
X023639Y009846D02*
X023400Y009846D01*
X023400Y009608D02*
X027600Y009608D01*
X027600Y009369D02*
X023400Y009369D01*
X023400Y009131D02*
X025760Y009131D01*
X026000Y009131D02*
X026000Y009131D01*
X026000Y008892D02*
X026000Y008892D01*
X026000Y008654D02*
X026000Y008654D01*
X026000Y008415D02*
X026000Y008415D01*
X026346Y008415D02*
X027129Y008415D01*
X026891Y008177D02*
X026279Y008177D01*
X026460Y008654D02*
X027368Y008654D01*
X027600Y008892D02*
X026460Y008892D01*
X026240Y009131D02*
X027600Y009131D01*
X028000Y008720D02*
X028000Y010220D01*
X029500Y010220D01*
X030000Y009720D01*
X029366Y009608D02*
X028400Y009608D01*
X028400Y009369D02*
X029459Y009369D01*
X029766Y009131D02*
X028400Y009131D01*
X028400Y008892D02*
X040012Y008892D01*
X040132Y008654D02*
X040251Y008654D01*
X040371Y008415D02*
X040425Y008415D01*
X041000Y008470D02*
X039750Y009720D01*
X037000Y009720D01*
X036459Y009369D02*
X035541Y009369D01*
X035234Y009131D02*
X036766Y009131D01*
X037234Y009131D02*
X039774Y009131D01*
X040428Y009608D02*
X043590Y009608D01*
X043660Y009369D02*
X040667Y009369D01*
X040905Y009131D02*
X043803Y009131D01*
X044121Y008892D02*
X041392Y008892D01*
X042369Y008415D02*
X046212Y008415D01*
X046212Y008177D02*
X042537Y008177D01*
X042575Y007938D02*
X046212Y007938D01*
X046212Y007700D02*
X042511Y007700D01*
X042318Y007461D02*
X046212Y007461D01*
X046212Y007223D02*
X042518Y007223D01*
X042575Y006984D02*
X046212Y006984D01*
X046212Y006746D02*
X042530Y006746D01*
X042400Y006507D02*
X044022Y006507D01*
X043985Y006491D02*
X043729Y006235D01*
X043590Y005901D01*
X043590Y005756D01*
X043449Y005815D01*
X043150Y005815D01*
X042873Y005700D01*
X042661Y005489D01*
X042547Y005212D01*
X042547Y004913D01*
X042661Y004636D01*
X042873Y004425D01*
X043150Y004310D01*
X043449Y004310D01*
X043725Y004425D01*
X043937Y004636D01*
X044052Y004913D01*
X044052Y004921D01*
X044319Y004810D01*
X044681Y004810D01*
X045015Y004949D01*
X045271Y005205D01*
X045410Y005539D01*
X045410Y005901D01*
X045271Y006235D01*
X045015Y006491D01*
X044681Y006630D01*
X044319Y006630D01*
X043985Y006491D01*
X043762Y006269D02*
X042400Y006269D01*
X042400Y006030D02*
X043644Y006030D01*
X043590Y005792D02*
X043505Y005792D01*
X043093Y005792D02*
X042359Y005792D01*
X042149Y005553D02*
X042726Y005553D01*
X042589Y005315D02*
X041910Y005315D01*
X041672Y005076D02*
X042547Y005076D01*
X042578Y004838D02*
X041433Y004838D01*
X041195Y004599D02*
X042699Y004599D01*
X043028Y004361D02*
X040956Y004361D01*
X040718Y004122D02*
X046212Y004122D01*
X046212Y003884D02*
X045353Y003884D01*
X045725Y003645D02*
X046212Y003645D01*
X046212Y003407D02*
X045934Y003407D01*
X046113Y003168D02*
X046212Y003168D01*
X046212Y004361D02*
X043571Y004361D01*
X043900Y004599D02*
X046212Y004599D01*
X046212Y004838D02*
X044747Y004838D01*
X045143Y005076D02*
X046212Y005076D01*
X046212Y005315D02*
X045317Y005315D01*
X045410Y005553D02*
X046212Y005553D01*
X046212Y005792D02*
X045410Y005792D01*
X045356Y006030D02*
X046212Y006030D01*
X046212Y006269D02*
X045238Y006269D01*
X044978Y006507D02*
X046212Y006507D01*
X044253Y004838D02*
X044020Y004838D01*
X043647Y003884D02*
X040479Y003884D01*
X040241Y003645D02*
X043275Y003645D01*
X043269Y003641D02*
X043269Y003641D01*
X043066Y003407D02*
X040002Y003407D01*
X039764Y003168D02*
X042887Y003168D01*
X042778Y002930D02*
X039525Y002930D01*
X039287Y002691D02*
X042688Y002691D01*
X042653Y002453D02*
X039048Y002453D01*
X038810Y002214D02*
X042621Y002214D01*
X042655Y001976D02*
X038571Y001976D01*
X038333Y001737D02*
X042689Y001737D01*
X042784Y001499D02*
X038094Y001499D01*
X037437Y001260D02*
X042893Y001260D01*
X043076Y001022D02*
X029867Y001022D01*
X028426Y000783D02*
X043294Y000783D01*
X043665Y000545D02*
X005085Y000545D01*
X005456Y000783D02*
X023702Y000783D01*
X023480Y001022D02*
X005674Y001022D01*
X005857Y001260D02*
X023480Y001260D01*
X023543Y001499D02*
X005966Y001499D01*
X006061Y001737D02*
X014917Y001737D01*
X014679Y001976D02*
X006095Y001976D01*
X006129Y002214D02*
X014052Y002214D01*
X014508Y002710D02*
X014510Y002710D01*
X015147Y002930D02*
X015934Y002930D01*
X015940Y002946D02*
X015910Y002854D01*
X015895Y002758D01*
X015895Y002718D01*
X016500Y002718D01*
X016500Y003324D01*
X016460Y003324D01*
X016365Y003309D01*
X016273Y003279D01*
X016187Y003235D01*
X016109Y003178D01*
X016040Y003110D01*
X015983Y003032D01*
X015940Y002946D01*
X015895Y002691D02*
X015182Y002691D01*
X015333Y002453D02*
X015951Y002453D01*
X016516Y002718D02*
X016516Y003324D01*
X016557Y003324D01*
X016652Y003309D01*
X016744Y003279D01*
X016830Y003235D01*
X016908Y003178D01*
X016976Y003110D01*
X017033Y003032D01*
X017077Y002946D01*
X017107Y002854D01*
X017122Y002758D01*
X017122Y002718D01*
X016516Y002718D01*
X016500Y002930D02*
X016516Y002930D01*
X016500Y003168D02*
X016516Y003168D01*
X016918Y003168D02*
X024730Y003168D01*
X024730Y003407D02*
X014379Y003407D01*
X015003Y003168D02*
X016098Y003168D01*
X017082Y002930D02*
X024805Y002930D01*
X025480Y002691D02*
X017122Y002691D01*
X017066Y002453D02*
X025532Y002453D01*
X026000Y002720D02*
X027000Y002720D01*
X028000Y003720D01*
X028252Y003407D02*
X038871Y003407D01*
X039109Y003645D02*
X028400Y003645D01*
X028014Y003168D02*
X038632Y003168D01*
X038394Y002930D02*
X027775Y002930D01*
X027537Y002691D02*
X038155Y002691D01*
X037917Y002453D02*
X027298Y002453D01*
X027572Y002214D02*
X029597Y002214D01*
X027390Y001260D02*
X024520Y001260D01*
X024520Y001022D02*
X027422Y001022D01*
X027574Y000783D02*
X024298Y000783D01*
X024457Y001499D02*
X027156Y001499D01*
X026882Y003168D02*
X026287Y003168D01*
X027399Y005076D02*
X024520Y005076D01*
X024520Y005315D02*
X027390Y005315D01*
X027478Y005553D02*
X026399Y005553D01*
X026637Y005792D02*
X027566Y005792D01*
X027418Y006030D02*
X026876Y006030D01*
X027114Y006269D02*
X027390Y006269D01*
X027353Y006507D02*
X027459Y006507D01*
X027591Y006746D02*
X027675Y006746D01*
X027830Y006984D02*
X029423Y006984D01*
X029366Y006746D02*
X028325Y006746D01*
X026937Y007223D02*
X026238Y007223D01*
X025762Y007223D02*
X023563Y007223D01*
X023400Y007461D02*
X025524Y007461D01*
X025480Y007700D02*
X023400Y007700D01*
X023400Y007938D02*
X024797Y007938D01*
X024730Y008177D02*
X023400Y008177D01*
X023400Y008415D02*
X024730Y008415D01*
X024948Y008654D02*
X023400Y008654D01*
X023400Y008892D02*
X025540Y008892D01*
X026000Y007720D02*
X027000Y007720D01*
X028000Y008720D01*
X030234Y009131D02*
X032766Y009131D01*
X032459Y009369D02*
X030541Y009369D01*
X030533Y010085D02*
X032467Y010085D01*
X032798Y010323D02*
X030202Y010323D01*
X029721Y010562D02*
X042561Y010562D01*
X042547Y010323D02*
X037202Y010323D01*
X036798Y010323D02*
X035202Y010323D01*
X034798Y010323D02*
X033202Y010323D01*
X033533Y010085D02*
X034467Y010085D01*
X034459Y009369D02*
X033541Y009369D01*
X033234Y009131D02*
X034766Y009131D01*
X035533Y010085D02*
X036467Y010085D01*
X039111Y011516D02*
X046212Y011516D01*
X046212Y011754D02*
X039350Y011754D01*
X039588Y011993D02*
X046212Y011993D01*
X046212Y012231D02*
X039827Y012231D01*
X039915Y010085D02*
X042606Y010085D01*
X042767Y009846D02*
X040190Y009846D01*
X040500Y007470D02*
X041000Y007470D01*
X041328Y006984D02*
X041425Y006984D01*
X041600Y006507D02*
X040103Y006507D01*
X039864Y006269D02*
X041600Y006269D01*
X041494Y006030D02*
X039626Y006030D01*
X039387Y005792D02*
X041256Y005792D01*
X041017Y005553D02*
X039149Y005553D01*
X038910Y005315D02*
X040779Y005315D01*
X040540Y005076D02*
X038672Y005076D01*
X038433Y004838D02*
X040302Y004838D01*
X040063Y004599D02*
X038195Y004599D01*
X037927Y004361D02*
X039825Y004361D01*
X037500Y005720D02*
X032500Y005720D01*
X033222Y005315D02*
X034778Y005315D01*
X034461Y005076D02*
X033539Y005076D01*
X033634Y004838D02*
X034366Y004838D01*
X034366Y004599D02*
X033634Y004599D01*
X033538Y004361D02*
X034462Y004361D01*
X034786Y004122D02*
X033214Y004122D01*
X035222Y005315D02*
X036778Y005315D01*
X036461Y005076D02*
X035539Y005076D01*
X037403Y002214D02*
X037678Y002214D01*
X026698Y006984D02*
X023802Y006984D01*
X024040Y006746D02*
X026460Y006746D01*
X026221Y006507D02*
X024448Y006507D01*
X024520Y006269D02*
X025983Y006269D01*
X023147Y006507D02*
X022448Y006507D01*
X022909Y006746D02*
X021410Y006746D01*
X021410Y006659D02*
X021410Y007000D01*
X021410Y007341D01*
X021397Y007422D01*
X021372Y007500D01*
X021335Y007573D01*
X021287Y007639D01*
X021229Y007697D01*
X021163Y007745D01*
X021090Y007782D01*
X021012Y007807D01*
X020931Y007820D01*
X020890Y007820D01*
X020890Y007000D01*
X021410Y007000D01*
X020890Y007000D01*
X020890Y007000D01*
X020890Y007000D01*
X020890Y006180D01*
X020931Y006180D01*
X021012Y006193D01*
X021090Y006218D01*
X021163Y006255D01*
X021229Y006303D01*
X021287Y006361D01*
X021335Y006427D01*
X021372Y006500D01*
X021397Y006578D01*
X021410Y006659D01*
X021374Y006507D02*
X021552Y006507D01*
X021480Y006269D02*
X021181Y006269D01*
X020890Y006269D02*
X020890Y006269D01*
X020890Y006180D02*
X020890Y007000D01*
X020890Y007000D01*
X020890Y007000D01*
X020370Y007000D01*
X020370Y007341D01*
X020383Y007422D01*
X020408Y007500D01*
X020445Y007573D01*
X020493Y007639D01*
X020551Y007697D01*
X020617Y007745D01*
X020690Y007782D01*
X020768Y007807D01*
X020849Y007820D01*
X020890Y007820D01*
X020890Y007000D01*
X020370Y007000D01*
X020370Y006659D01*
X020383Y006578D01*
X020408Y006500D01*
X020445Y006427D01*
X020493Y006361D01*
X020551Y006303D01*
X020617Y006255D01*
X020690Y006218D01*
X020768Y006193D01*
X020849Y006180D01*
X020890Y006180D01*
X020599Y006269D02*
X019499Y006269D01*
X019439Y006208D02*
X019602Y006371D01*
X019690Y006585D01*
X019690Y007415D01*
X019602Y007629D01*
X019439Y007792D01*
X019225Y007880D01*
X018995Y007880D01*
X018781Y007792D01*
X018618Y007629D01*
X018530Y007415D01*
X018530Y006585D01*
X018618Y006371D01*
X018781Y006208D01*
X018995Y006120D01*
X019225Y006120D01*
X019439Y006208D01*
X019658Y006507D02*
X020406Y006507D01*
X020370Y006746D02*
X019690Y006746D01*
X019690Y006984D02*
X020370Y006984D01*
X020370Y007223D02*
X019690Y007223D01*
X019671Y007461D02*
X020396Y007461D01*
X020555Y007700D02*
X019531Y007700D01*
X018689Y007700D02*
X007883Y007700D01*
X008060Y007461D02*
X018549Y007461D01*
X018530Y007223D02*
X008110Y007223D01*
X008063Y006984D02*
X018530Y006984D01*
X018530Y006746D02*
X016231Y006746D01*
X016222Y006755D02*
X016000Y006755D01*
X016000Y006220D01*
X016535Y006220D01*
X016535Y006442D01*
X016222Y006755D01*
X016000Y006755D02*
X015778Y006755D01*
X015527Y006503D01*
X015504Y006557D01*
X015337Y006724D01*
X015118Y006815D01*
X014882Y006815D01*
X014663Y006724D01*
X014496Y006557D01*
X014405Y006338D01*
X014405Y006102D01*
X014496Y005883D01*
X014663Y005716D01*
X014882Y005625D01*
X015118Y005625D01*
X015337Y005716D01*
X015504Y005883D01*
X015527Y005937D01*
X015778Y005685D01*
X016000Y005685D01*
X016222Y005685D01*
X016535Y005998D01*
X016535Y006220D01*
X016000Y006220D01*
X016000Y006220D01*
X016000Y006220D01*
X016000Y005685D01*
X016000Y006220D01*
X016000Y006220D01*
X016000Y006755D01*
X016000Y006746D02*
X016000Y006746D01*
X015769Y006746D02*
X015286Y006746D01*
X015525Y006507D02*
X015530Y006507D01*
X016000Y006507D02*
X016000Y006507D01*
X016000Y006269D02*
X016000Y006269D01*
X016000Y006030D02*
X016000Y006030D01*
X016000Y005792D02*
X016000Y005792D01*
X016328Y005792D02*
X021693Y005792D01*
X021480Y006030D02*
X016535Y006030D01*
X016535Y006269D02*
X018721Y006269D01*
X018562Y006507D02*
X016470Y006507D01*
X015672Y005792D02*
X015413Y005792D01*
X014587Y005792D02*
X006466Y005792D01*
X006734Y006030D02*
X014435Y006030D01*
X014405Y006269D02*
X006875Y006269D01*
X007000Y006720D02*
X007500Y007220D01*
X006890Y007223D02*
X006846Y007223D01*
X006940Y007461D02*
X006683Y007461D01*
X006378Y007700D02*
X007117Y007700D01*
X007000Y006720D02*
X005854Y006720D01*
X004776Y006984D02*
X004330Y006984D01*
X004225Y007223D02*
X004863Y007223D01*
X005026Y007461D02*
X004022Y007461D01*
X003514Y007461D02*
X003274Y007461D01*
X003274Y007223D02*
X003514Y007223D01*
X003514Y006984D02*
X003274Y006984D01*
X003274Y006840D02*
X002530Y006840D01*
X002530Y006600D01*
X003274Y006600D01*
X003274Y006840D01*
X003274Y006746D02*
X002530Y006746D01*
X003274Y006507D02*
X003514Y006507D01*
X003514Y006269D02*
X003274Y006269D01*
X003274Y006030D02*
X003514Y006030D01*
X003394Y006720D02*
X003394Y005326D01*
X003890Y004830D01*
X004732Y004830D01*
X009890Y004830D01*
X010500Y004220D01*
X010500Y003884D02*
X010500Y003884D01*
X010500Y003645D02*
X010500Y003645D01*
X010500Y003407D02*
X010500Y003407D01*
X010062Y003884D02*
X010022Y003884D01*
X009713Y004122D02*
X011287Y004122D01*
X010978Y003884D02*
X010938Y003884D01*
X011713Y004122D02*
X018530Y004122D01*
X018530Y004361D02*
X005584Y004361D01*
X005676Y004599D02*
X018530Y004599D01*
X018530Y004838D02*
X004852Y004838D01*
X004852Y005076D02*
X004612Y005076D01*
X004612Y004838D02*
X002530Y004838D01*
X002530Y005076D02*
X003792Y005076D01*
X003890Y005315D02*
X002530Y005315D01*
X002530Y005553D02*
X004082Y005553D01*
X004612Y005553D02*
X004852Y005553D01*
X004852Y005315D02*
X004612Y005315D01*
X005383Y005553D02*
X022101Y005553D01*
X020890Y006507D02*
X020890Y006507D01*
X020890Y006746D02*
X020890Y006746D01*
X020890Y006984D02*
X020890Y006984D01*
X020890Y007223D02*
X020890Y007223D01*
X020890Y007461D02*
X020890Y007461D01*
X020890Y007700D02*
X020890Y007700D01*
X021225Y007700D02*
X022600Y007700D01*
X022600Y007938D02*
X011013Y007938D01*
X011367Y008177D02*
X022600Y008177D01*
X022600Y008415D02*
X019930Y008415D01*
X019070Y008415D02*
X011571Y008415D01*
X011700Y008654D02*
X018980Y008654D01*
X018762Y008892D02*
X011764Y008892D01*
X011780Y009131D02*
X013774Y009131D01*
X013535Y009369D02*
X011758Y009369D01*
X011695Y009608D02*
X013297Y009608D01*
X013058Y009846D02*
X011559Y009846D01*
X011346Y010085D02*
X012820Y010085D01*
X015500Y011720D02*
X015500Y013720D01*
X014250Y014970D01*
X010000Y014970D01*
X008000Y016970D01*
X008000Y018720D01*
X008386Y019148D02*
X008614Y019148D01*
X007614Y019148D02*
X007386Y019148D01*
X006614Y019148D02*
X006386Y019148D01*
X005614Y019148D02*
X005386Y019148D01*
X004614Y019148D02*
X004386Y019148D01*
X003614Y019148D02*
X003386Y019148D01*
X006781Y020579D02*
X010293Y020579D01*
X010531Y020817D02*
X006914Y020817D01*
X006953Y021056D02*
X010770Y021056D01*
X011008Y021294D02*
X006919Y021294D01*
X006795Y021533D02*
X011247Y021533D01*
X011485Y021771D02*
X006457Y021771D01*
X005945Y021771D02*
X005910Y021771D01*
X005865Y022010D02*
X008895Y022010D01*
X008656Y022248D02*
X005759Y022248D01*
X007500Y023470D02*
X009000Y023470D01*
X009750Y024220D01*
X009750Y025470D01*
X012500Y028220D01*
X023750Y028220D01*
X023584Y027820D02*
X024773Y026631D01*
X024920Y026570D01*
X026784Y026570D01*
X026334Y026120D01*
X024520Y026120D01*
X024520Y026435D01*
X024215Y026740D01*
X023785Y026740D01*
X023480Y026435D01*
X023480Y026120D01*
X022920Y026120D01*
X022773Y026059D01*
X022454Y025740D01*
X022285Y025740D01*
X021980Y025435D01*
X021980Y025005D01*
X022285Y024700D01*
X022715Y024700D01*
X023020Y025005D01*
X023020Y025174D01*
X023166Y025320D01*
X023480Y025320D01*
X023480Y025005D01*
X023785Y024700D01*
X024215Y024700D01*
X024520Y025005D01*
X024520Y025320D01*
X026580Y025320D01*
X026727Y025381D01*
X026839Y025493D01*
X027406Y026060D01*
X027483Y025874D01*
X027637Y025720D01*
X027483Y025566D01*
X027390Y025341D01*
X027390Y025099D01*
X027483Y024874D01*
X027600Y024757D01*
X027600Y023886D01*
X026834Y023120D01*
X026335Y023120D01*
X026215Y023240D01*
X025785Y023240D01*
X025770Y023225D01*
X025770Y023299D01*
X025809Y023260D01*
X026000Y023260D01*
X026191Y023260D01*
X026460Y023529D01*
X026460Y023720D01*
X026460Y023911D01*
X026191Y024180D01*
X026000Y024180D01*
X026000Y023720D01*
X026000Y023720D01*
X026460Y023720D01*
X026000Y023720D01*
X026000Y023720D01*
X026000Y023720D01*
X025540Y023720D01*
X025540Y023911D01*
X025809Y024180D01*
X026000Y024180D01*
X026000Y023720D01*
X026000Y023260D01*
X026000Y023720D01*
X026000Y023720D01*
X025540Y023720D01*
X025540Y023665D01*
X025465Y023740D01*
X025035Y023740D01*
X024730Y023435D01*
X024730Y023056D01*
X024339Y023447D01*
X024227Y023559D01*
X024080Y023620D01*
X021150Y023620D01*
X021219Y023648D01*
X021382Y023811D01*
X021470Y024025D01*
X021470Y024855D01*
X021382Y025069D01*
X021219Y025232D01*
X021005Y025320D01*
X020775Y025320D01*
X020561Y025232D01*
X020398Y025069D01*
X020310Y024855D01*
X020310Y024025D01*
X020398Y023811D01*
X020561Y023648D01*
X020630Y023620D01*
X010729Y023620D01*
X010591Y023677D01*
X010409Y023677D01*
X010241Y023608D01*
X010112Y023479D01*
X010043Y023311D01*
X010043Y023129D01*
X010112Y022961D01*
X010241Y022832D01*
X010409Y022763D01*
X010591Y022763D01*
X010729Y022820D01*
X012980Y022820D01*
X012980Y022620D01*
X009416Y022620D01*
X009075Y022960D01*
X009075Y023070D01*
X009080Y023070D01*
X009227Y023131D01*
X009977Y023881D01*
X010089Y023993D01*
X010150Y024140D01*
X010150Y025304D01*
X012666Y027820D01*
X018850Y027820D01*
X018781Y027792D01*
X018618Y027629D01*
X018530Y027415D01*
X018530Y026585D01*
X018618Y026371D01*
X018781Y026208D01*
X018995Y026120D01*
X019225Y026120D01*
X019439Y026208D01*
X019602Y026371D01*
X019690Y026585D01*
X019690Y027415D01*
X019602Y027629D01*
X019439Y027792D01*
X019370Y027820D01*
X020630Y027820D01*
X020561Y027792D01*
X020398Y027629D01*
X020310Y027415D01*
X020310Y026585D01*
X020398Y026371D01*
X020561Y026208D01*
X020775Y026120D01*
X021005Y026120D01*
X021219Y026208D01*
X021382Y026371D01*
X021470Y026585D01*
X021470Y027415D01*
X021382Y027629D01*
X021219Y027792D01*
X021150Y027820D01*
X023584Y027820D01*
X023671Y027734D02*
X021277Y027734D01*
X021437Y027495D02*
X023909Y027495D01*
X024148Y027257D02*
X021470Y027257D01*
X021470Y027018D02*
X024386Y027018D01*
X024625Y026780D02*
X021470Y026780D01*
X021452Y026541D02*
X023586Y026541D01*
X023480Y026303D02*
X021313Y026303D01*
X020467Y026303D02*
X019533Y026303D01*
X019672Y026541D02*
X020328Y026541D01*
X020310Y026780D02*
X019690Y026780D01*
X019690Y027018D02*
X020310Y027018D01*
X020310Y027257D02*
X019690Y027257D01*
X019657Y027495D02*
X020343Y027495D01*
X020503Y027734D02*
X019497Y027734D01*
X018723Y027734D02*
X012579Y027734D01*
X012341Y027495D02*
X018563Y027495D01*
X018530Y027257D02*
X012102Y027257D01*
X011864Y027018D02*
X018530Y027018D01*
X018530Y026780D02*
X011625Y026780D01*
X011387Y026541D02*
X018548Y026541D01*
X018687Y026303D02*
X016914Y026303D01*
X016792Y026425D02*
X016208Y026425D01*
X015795Y026012D01*
X015795Y025428D01*
X016208Y025015D01*
X016792Y025015D01*
X017205Y025428D01*
X017205Y026012D01*
X016792Y026425D01*
X017153Y026064D02*
X022785Y026064D01*
X022540Y025826D02*
X017205Y025826D01*
X017205Y025587D02*
X022132Y025587D01*
X021980Y025349D02*
X017126Y025349D01*
X016887Y025110D02*
X018745Y025110D01*
X018771Y025137D02*
X018713Y025079D01*
X018665Y025013D01*
X018628Y024940D01*
X018603Y024862D01*
X018590Y024781D01*
X018590Y024440D01*
X019110Y024440D01*
X019110Y024440D01*
X019110Y025260D01*
X019151Y025260D01*
X019232Y025247D01*
X019310Y025222D01*
X019383Y025185D01*
X019449Y025137D01*
X019507Y025079D01*
X019555Y025013D01*
X019592Y024940D01*
X019617Y024862D01*
X019630Y024781D01*
X019630Y024440D01*
X019110Y024440D01*
X019110Y024440D01*
X019110Y024440D01*
X019110Y025260D01*
X019069Y025260D01*
X018988Y025247D01*
X018910Y025222D01*
X018837Y025185D01*
X018771Y025137D01*
X018606Y024872D02*
X010150Y024872D01*
X010150Y025110D02*
X012113Y025110D01*
X012208Y025015D02*
X012792Y025015D01*
X013205Y025428D01*
X013205Y026012D01*
X012792Y026425D01*
X012208Y026425D01*
X011795Y026012D01*
X011795Y025428D01*
X012208Y025015D01*
X011874Y025349D02*
X010194Y025349D01*
X010433Y025587D02*
X011795Y025587D01*
X011795Y025826D02*
X010671Y025826D01*
X010910Y026064D02*
X011847Y026064D01*
X012086Y026303D02*
X011148Y026303D01*
X012914Y026303D02*
X014086Y026303D01*
X014208Y026425D02*
X013795Y026012D01*
X013795Y025428D01*
X014208Y025015D01*
X014792Y025015D01*
X015205Y025428D01*
X015205Y026012D01*
X014792Y026425D01*
X014208Y026425D01*
X013847Y026064D02*
X013153Y026064D01*
X013205Y025826D02*
X013795Y025826D01*
X013795Y025587D02*
X013205Y025587D01*
X013126Y025349D02*
X013874Y025349D01*
X014113Y025110D02*
X012887Y025110D01*
X013285Y024740D02*
X012980Y024435D01*
X012980Y024005D01*
X013285Y023700D01*
X013715Y023700D01*
X014020Y024005D01*
X014020Y024435D01*
X013715Y024740D01*
X013285Y024740D01*
X013178Y024633D02*
X010150Y024633D01*
X010150Y024395D02*
X012980Y024395D01*
X012980Y024156D02*
X010150Y024156D01*
X010013Y023918D02*
X013067Y023918D01*
X013933Y023918D02*
X017152Y023918D01*
X017040Y024029D02*
X017309Y023760D01*
X017500Y023760D01*
X017691Y023760D01*
X017960Y024029D01*
X017960Y024220D01*
X017960Y024411D01*
X017691Y024680D01*
X017500Y024680D01*
X017500Y024220D01*
X017960Y024220D01*
X017500Y024220D01*
X017500Y024220D01*
X017500Y024220D01*
X017500Y023760D01*
X017500Y024220D01*
X017500Y024220D01*
X017500Y024220D01*
X017040Y024220D01*
X017040Y024411D01*
X017309Y024680D01*
X017500Y024680D01*
X017500Y024220D01*
X017040Y024220D01*
X017040Y024029D01*
X017040Y024156D02*
X014020Y024156D01*
X014020Y024395D02*
X017040Y024395D01*
X017262Y024633D02*
X013822Y024633D01*
X014887Y025110D02*
X016113Y025110D01*
X015874Y025349D02*
X015126Y025349D01*
X015205Y025587D02*
X015795Y025587D01*
X015795Y025826D02*
X015205Y025826D01*
X015153Y026064D02*
X015847Y026064D01*
X016086Y026303D02*
X014914Y026303D01*
X017500Y024633D02*
X017500Y024633D01*
X017738Y024633D02*
X018590Y024633D01*
X018590Y024440D02*
X018590Y024099D01*
X018603Y024018D01*
X018628Y023940D01*
X018665Y023867D01*
X018713Y023801D01*
X018771Y023743D01*
X018837Y023695D01*
X018910Y023658D01*
X018988Y023633D01*
X019069Y023620D01*
X019110Y023620D01*
X019151Y023620D01*
X019232Y023633D01*
X019310Y023658D01*
X019383Y023695D01*
X019449Y023743D01*
X019507Y023801D01*
X019555Y023867D01*
X019592Y023940D01*
X019617Y024018D01*
X019630Y024099D01*
X019630Y024440D01*
X019110Y024440D01*
X019110Y023620D01*
X019110Y024440D01*
X019110Y024440D01*
X018590Y024440D01*
X018590Y024395D02*
X017960Y024395D01*
X017960Y024156D02*
X018590Y024156D01*
X018640Y023918D02*
X017848Y023918D01*
X017500Y023918D02*
X017500Y023918D01*
X017500Y024156D02*
X017500Y024156D01*
X017500Y024395D02*
X017500Y024395D01*
X018869Y023679D02*
X009775Y023679D01*
X009536Y023441D02*
X010097Y023441D01*
X010043Y023202D02*
X009298Y023202D01*
X009075Y022964D02*
X010111Y022964D01*
X010500Y023220D02*
X024000Y023220D01*
X025250Y021970D01*
X027000Y021970D01*
X028250Y023220D01*
X031500Y023220D01*
X033000Y021720D01*
X033471Y021294D02*
X034529Y021294D01*
X034462Y021361D02*
X034641Y021182D01*
X034874Y021086D01*
X035126Y021086D01*
X035359Y021182D01*
X035538Y021361D01*
X035634Y021594D01*
X035634Y021846D01*
X035538Y022079D01*
X035359Y022258D01*
X035126Y022354D01*
X034874Y022354D01*
X034641Y022258D01*
X034462Y022079D01*
X034366Y021846D01*
X034366Y021594D01*
X034462Y021361D01*
X034391Y021533D02*
X033609Y021533D01*
X033634Y021771D02*
X034366Y021771D01*
X034433Y022010D02*
X033567Y022010D01*
X033369Y022248D02*
X034631Y022248D01*
X035369Y022248D02*
X036631Y022248D01*
X036433Y022010D02*
X035567Y022010D01*
X035634Y021771D02*
X036366Y021771D01*
X036391Y021533D02*
X035609Y021533D01*
X035471Y021294D02*
X036529Y021294D01*
X037000Y021720D02*
X040750Y021720D01*
X042000Y022970D01*
X041425Y022964D02*
X041281Y022964D01*
X041189Y022725D02*
X040821Y022725D01*
X040951Y022487D02*
X032799Y022487D01*
X032561Y022725D02*
X037179Y022725D01*
X036941Y022964D02*
X032322Y022964D01*
X032084Y023202D02*
X036702Y023202D01*
X036600Y023441D02*
X031845Y023441D01*
X032704Y024156D02*
X030296Y024156D01*
X030552Y024395D02*
X032448Y024395D01*
X032366Y024633D02*
X030634Y024633D01*
X030624Y024872D02*
X032376Y024872D01*
X032493Y025110D02*
X030507Y025110D01*
X030140Y025349D02*
X032352Y025349D01*
X032067Y025587D02*
X029659Y025587D01*
X029593Y025826D02*
X031829Y025826D01*
X031590Y026064D02*
X029910Y026064D01*
X029500Y026220D02*
X030000Y026720D01*
X030480Y026303D02*
X031352Y026303D01*
X031113Y026541D02*
X030612Y026541D01*
X030634Y026780D02*
X030875Y026780D01*
X030636Y027018D02*
X030563Y027018D01*
X030750Y027470D02*
X028250Y027470D01*
X026500Y025720D01*
X023000Y025720D01*
X022500Y025220D01*
X022887Y024872D02*
X023613Y024872D01*
X023480Y025110D02*
X023020Y025110D01*
X022113Y024872D02*
X021463Y024872D01*
X021470Y024633D02*
X027600Y024633D01*
X027600Y024395D02*
X021470Y024395D01*
X021470Y024156D02*
X025785Y024156D01*
X026000Y024156D02*
X026000Y024156D01*
X026215Y024156D02*
X027600Y024156D01*
X027600Y023918D02*
X026453Y023918D01*
X026460Y023679D02*
X027393Y023679D01*
X027155Y023441D02*
X026371Y023441D01*
X026253Y023202D02*
X026916Y023202D01*
X027000Y022720D02*
X026000Y022720D01*
X027000Y022720D02*
X028000Y023720D01*
X028000Y025220D01*
X029500Y025220D01*
X030000Y024720D01*
X029366Y024633D02*
X028400Y024633D01*
X028400Y024395D02*
X029448Y024395D01*
X029704Y024156D02*
X028400Y024156D01*
X028400Y023918D02*
X036600Y023918D01*
X036600Y024156D02*
X035296Y024156D01*
X035552Y024395D02*
X036448Y024395D01*
X036366Y024633D02*
X035634Y024633D01*
X035624Y024872D02*
X036376Y024872D01*
X036493Y025110D02*
X035507Y025110D01*
X034493Y025110D02*
X033507Y025110D01*
X033624Y024872D02*
X034376Y024872D01*
X034366Y024633D02*
X033634Y024633D01*
X033552Y024395D02*
X034448Y024395D01*
X034704Y024156D02*
X033296Y024156D01*
X032500Y025720D02*
X030750Y027470D01*
X031837Y028449D02*
X037705Y028449D01*
X037467Y028688D02*
X031598Y028688D01*
X032075Y028211D02*
X037944Y028211D01*
X038182Y027972D02*
X032314Y027972D01*
X032552Y027734D02*
X038421Y027734D01*
X038659Y027495D02*
X032791Y027495D01*
X032874Y029086D02*
X032641Y029182D01*
X032462Y029361D01*
X032366Y029594D01*
X032366Y029846D01*
X032462Y030079D01*
X032641Y030258D01*
X032874Y030354D01*
X033126Y030354D01*
X033359Y030258D01*
X033538Y030079D01*
X033634Y029846D01*
X033634Y029594D01*
X033538Y029361D01*
X033359Y029182D01*
X033126Y029086D01*
X032874Y029086D01*
X032683Y029165D02*
X030317Y029165D01*
X030555Y029403D02*
X032445Y029403D01*
X032366Y029642D02*
X030634Y029642D01*
X030620Y029880D02*
X032380Y029880D01*
X032501Y030119D02*
X030499Y030119D01*
X029929Y030357D02*
X043023Y030357D01*
X042865Y030119D02*
X037499Y030119D01*
X037620Y029880D02*
X042756Y029880D01*
X042681Y029642D02*
X037644Y029642D01*
X037883Y029403D02*
X042646Y029403D01*
X042628Y029165D02*
X038121Y029165D01*
X038360Y028926D02*
X042662Y028926D01*
X042697Y028688D02*
X038598Y028688D01*
X038837Y028449D02*
X042806Y028449D01*
X042915Y028211D02*
X039075Y028211D01*
X039314Y027972D02*
X043119Y027972D01*
X043371Y027734D02*
X039552Y027734D01*
X039791Y027495D02*
X043770Y027495D01*
X043719Y027018D02*
X046212Y027018D01*
X046212Y026780D02*
X043947Y026780D01*
X043937Y026804D02*
X043725Y027015D01*
X043449Y027130D01*
X043150Y027130D01*
X042873Y027015D01*
X042661Y026804D01*
X042547Y026527D01*
X042547Y026228D01*
X042661Y025951D01*
X042873Y025740D01*
X043150Y025625D01*
X043449Y025625D01*
X043590Y025684D01*
X043590Y025539D01*
X043729Y025205D01*
X043985Y024949D01*
X044319Y024810D01*
X044681Y024810D01*
X045015Y024949D01*
X045271Y025205D01*
X045410Y025539D01*
X045410Y025901D01*
X045271Y026235D01*
X045015Y026491D01*
X044681Y026630D01*
X044319Y026630D01*
X044052Y026519D01*
X044052Y026527D01*
X043937Y026804D01*
X044046Y026541D02*
X044104Y026541D01*
X044896Y026541D02*
X046212Y026541D01*
X046212Y026303D02*
X045204Y026303D01*
X045342Y026064D02*
X046212Y026064D01*
X046212Y025826D02*
X045410Y025826D01*
X045410Y025587D02*
X046212Y025587D01*
X046212Y025349D02*
X045331Y025349D01*
X045177Y025110D02*
X046212Y025110D01*
X046212Y024872D02*
X044829Y024872D01*
X044171Y024872D02*
X041412Y024872D01*
X041400Y025110D02*
X043823Y025110D01*
X043669Y025349D02*
X041400Y025349D01*
X041400Y025587D02*
X043590Y025587D01*
X042787Y025826D02*
X041389Y025826D01*
X041222Y026064D02*
X042615Y026064D01*
X042547Y026303D02*
X040983Y026303D01*
X040745Y026541D02*
X042553Y026541D01*
X042651Y026780D02*
X040506Y026780D01*
X040268Y027018D02*
X042879Y027018D01*
X041000Y025720D02*
X037000Y029720D01*
X036501Y030119D02*
X035499Y030119D01*
X035538Y030079D02*
X035359Y030258D01*
X035126Y030354D01*
X034874Y030354D01*
X034641Y030258D01*
X034462Y030079D01*
X034366Y029846D01*
X034366Y029594D01*
X034462Y029361D01*
X034641Y029182D01*
X034874Y029086D01*
X035126Y029086D01*
X035359Y029182D01*
X035538Y029361D01*
X035634Y029594D01*
X035634Y029846D01*
X035538Y030079D01*
X035620Y029880D02*
X036380Y029880D01*
X036366Y029642D02*
X035634Y029642D01*
X035555Y029403D02*
X036445Y029403D01*
X036683Y029165D02*
X035317Y029165D01*
X034683Y029165D02*
X033317Y029165D01*
X033555Y029403D02*
X034445Y029403D01*
X034366Y029642D02*
X033634Y029642D01*
X033620Y029880D02*
X034380Y029880D01*
X034501Y030119D02*
X033499Y030119D01*
X030000Y029720D02*
X029500Y030220D01*
X028000Y030220D01*
X028400Y029642D02*
X029366Y029642D01*
X029445Y029403D02*
X028400Y029403D01*
X028400Y029165D02*
X029683Y029165D01*
X028400Y028926D02*
X037228Y028926D01*
X037361Y027257D02*
X038898Y027257D01*
X039136Y027018D02*
X038018Y027018D01*
X038256Y026780D02*
X039375Y026780D01*
X039613Y026541D02*
X038495Y026541D01*
X038733Y026303D02*
X039852Y026303D01*
X040090Y026064D02*
X038972Y026064D01*
X039210Y025826D02*
X040329Y025826D01*
X040567Y025587D02*
X039449Y025587D01*
X039687Y025349D02*
X040600Y025349D01*
X040600Y025110D02*
X039926Y025110D01*
X040164Y024872D02*
X040588Y024872D01*
X040445Y024633D02*
X040403Y024633D01*
X041000Y024470D02*
X041000Y025720D01*
X041555Y024633D02*
X046212Y024633D01*
X046212Y024395D02*
X042389Y024395D01*
X042546Y024156D02*
X046212Y024156D01*
X046212Y023918D02*
X042575Y023918D01*
X041611Y024395D02*
X041575Y024395D01*
X041000Y023470D02*
X040500Y022970D01*
X037500Y022970D01*
X037000Y023470D01*
X037000Y024720D01*
X037500Y025720D02*
X038500Y024720D01*
X038500Y023720D01*
X036600Y023679D02*
X028400Y023679D01*
X028250Y022470D02*
X030250Y022470D01*
X033000Y019720D01*
X033516Y020102D02*
X034484Y020102D01*
X034462Y020079D02*
X034366Y019846D01*
X034366Y019594D01*
X034462Y019361D01*
X034641Y019182D01*
X034874Y019086D01*
X035126Y019086D01*
X035359Y019182D01*
X035538Y019361D01*
X035634Y019594D01*
X035634Y019846D01*
X035538Y020079D01*
X035359Y020258D01*
X035126Y020354D01*
X034874Y020354D01*
X034641Y020258D01*
X034462Y020079D01*
X034373Y019863D02*
X033627Y019863D01*
X033634Y019625D02*
X034366Y019625D01*
X034452Y019386D02*
X033548Y019386D01*
X033276Y019148D02*
X034724Y019148D01*
X035276Y019148D02*
X036724Y019148D01*
X036641Y019182D02*
X036874Y019086D01*
X037126Y019086D01*
X037359Y019182D01*
X037497Y019320D01*
X037584Y019320D01*
X040425Y016480D01*
X040425Y016370D01*
X040416Y016370D01*
X039727Y017059D01*
X039580Y017120D01*
X037497Y017120D01*
X037359Y017258D01*
X037126Y017354D01*
X036874Y017354D01*
X036641Y017258D01*
X036462Y017079D01*
X036366Y016846D01*
X036366Y016594D01*
X036462Y016361D01*
X036641Y016182D01*
X036791Y016120D01*
X035209Y016120D01*
X035359Y016182D01*
X035538Y016361D01*
X035605Y016524D02*
X036395Y016524D01*
X036366Y016763D02*
X035634Y016763D01*
X035570Y017001D02*
X036430Y017001D01*
X036622Y017240D02*
X035378Y017240D01*
X034622Y017240D02*
X033378Y017240D01*
X033570Y017001D02*
X034430Y017001D01*
X034366Y016763D02*
X033634Y016763D01*
X033605Y016524D02*
X034395Y016524D01*
X034537Y016286D02*
X033463Y016286D01*
X032537Y016286D02*
X032500Y016286D01*
X032395Y016524D02*
X032262Y016524D01*
X032366Y016763D02*
X032023Y016763D01*
X031785Y017001D02*
X032430Y017001D01*
X032622Y017240D02*
X031546Y017240D01*
X031308Y017478D02*
X039426Y017478D01*
X039188Y017717D02*
X031069Y017717D01*
X030750Y017470D02*
X032500Y015720D01*
X038500Y015720D01*
X037000Y014720D02*
X040250Y014720D01*
X041000Y015470D01*
X041000Y016470D02*
X037750Y019720D01*
X037000Y019720D01*
X036484Y020102D02*
X035516Y020102D01*
X035627Y019863D02*
X036373Y019863D01*
X036366Y019846D02*
X036366Y019594D01*
X036462Y019361D01*
X036641Y019182D01*
X036452Y019386D02*
X035548Y019386D01*
X035634Y019625D02*
X036366Y019625D01*
X036366Y019846D02*
X036462Y020079D01*
X036641Y020258D01*
X036874Y020354D01*
X037126Y020354D01*
X036839Y020340D02*
X035161Y020340D01*
X034839Y020340D02*
X033161Y020340D01*
X032291Y019863D02*
X030627Y019863D01*
X030634Y019625D02*
X032366Y019625D01*
X032452Y019386D02*
X030548Y019386D01*
X030276Y019148D02*
X032724Y019148D01*
X029724Y019148D02*
X028400Y019148D01*
X028400Y019386D02*
X029452Y019386D01*
X029366Y019625D02*
X028400Y019625D01*
X028400Y018909D02*
X037995Y018909D01*
X037757Y019148D02*
X037276Y019148D01*
X038234Y018671D02*
X028400Y018671D01*
X028278Y018432D02*
X038472Y018432D01*
X038711Y018194D02*
X028039Y018194D01*
X027801Y017955D02*
X038949Y017955D01*
X039665Y017240D02*
X037378Y017240D01*
X039785Y017001D02*
X039903Y017001D01*
X040023Y016763D02*
X040142Y016763D01*
X040262Y016524D02*
X040380Y016524D01*
X043832Y018909D02*
X046212Y018909D01*
X046212Y018671D02*
X043992Y018671D01*
X045075Y018432D02*
X046212Y018432D01*
X046212Y018194D02*
X045289Y018194D01*
X045388Y017955D02*
X046212Y017955D01*
X046212Y017717D02*
X045410Y017717D01*
X045385Y017478D02*
X046212Y017478D01*
X046212Y017240D02*
X045286Y017240D01*
X042581Y021294D02*
X037471Y021294D01*
X037369Y022248D02*
X040712Y022248D01*
X041367Y021771D02*
X043043Y021771D01*
X042705Y021533D02*
X041128Y021533D01*
X041605Y022010D02*
X043635Y022010D01*
X043590Y021771D02*
X043555Y021771D01*
X043741Y022248D02*
X041844Y022248D01*
X042330Y022487D02*
X043980Y022487D01*
X037500Y025720D02*
X032500Y025720D01*
X029500Y026220D02*
X028000Y026220D01*
X027532Y025826D02*
X027171Y025826D01*
X026933Y025587D02*
X027504Y025587D01*
X027393Y025349D02*
X026648Y025349D01*
X027390Y025110D02*
X024520Y025110D01*
X024387Y024872D02*
X027486Y024872D01*
X026000Y023918D02*
X026000Y023918D01*
X026000Y023679D02*
X026000Y023679D01*
X026000Y023441D02*
X026000Y023441D01*
X025540Y023679D02*
X025526Y023679D01*
X025547Y023918D02*
X021426Y023918D01*
X021249Y023679D02*
X024974Y023679D01*
X024735Y023441D02*
X024345Y023441D01*
X024584Y023202D02*
X024730Y023202D01*
X024250Y022220D02*
X025000Y021470D01*
X027250Y021470D01*
X028250Y022470D01*
X027391Y021096D02*
X027330Y021070D01*
X024920Y021070D01*
X024773Y021131D01*
X024661Y021243D01*
X024661Y021243D01*
X024520Y021384D01*
X024520Y021005D01*
X024235Y020720D01*
X024520Y020435D01*
X024520Y020005D01*
X024215Y019700D01*
X023785Y019700D01*
X023480Y020005D01*
X023480Y020435D01*
X023765Y020720D01*
X023480Y021005D01*
X023480Y021435D01*
X023785Y021740D01*
X024164Y021740D01*
X024084Y021820D01*
X022466Y021820D01*
X022546Y021740D01*
X022715Y021740D01*
X023020Y021435D01*
X023020Y021005D01*
X022715Y020700D01*
X022285Y020700D01*
X021980Y021005D01*
X021980Y021174D01*
X021834Y021320D01*
X017960Y021320D01*
X017960Y021220D01*
X017500Y021220D01*
X017500Y021220D01*
X017960Y021220D01*
X017960Y021029D01*
X017691Y020760D01*
X017500Y020760D01*
X017500Y021220D01*
X017500Y021220D01*
X017500Y021220D01*
X017500Y020760D01*
X017309Y020760D01*
X017040Y021029D01*
X017040Y021220D01*
X017500Y021220D01*
X017500Y021056D02*
X017500Y021056D01*
X017500Y020817D02*
X017500Y020817D01*
X017748Y020817D02*
X022168Y020817D01*
X021980Y021056D02*
X017960Y021056D01*
X017960Y021294D02*
X021860Y021294D01*
X022000Y021720D02*
X022500Y021220D01*
X023020Y021294D02*
X023480Y021294D01*
X023480Y021056D02*
X023020Y021056D01*
X022832Y020817D02*
X023668Y020817D01*
X023623Y020579D02*
X011424Y020579D01*
X011663Y020817D02*
X013168Y020817D01*
X012980Y021056D02*
X011901Y021056D01*
X012140Y021294D02*
X012980Y021294D01*
X013832Y020817D02*
X017252Y020817D01*
X017040Y021056D02*
X014020Y021056D01*
X014020Y021294D02*
X017040Y021294D01*
X017040Y022620D02*
X014020Y022620D01*
X014020Y022820D01*
X017040Y022820D01*
X017040Y022720D01*
X017500Y022720D01*
X017960Y022720D01*
X017960Y022820D01*
X018980Y022820D01*
X018980Y022620D01*
X017960Y022620D01*
X017960Y022720D01*
X017500Y022720D01*
X017500Y022720D01*
X017500Y022720D01*
X017040Y022720D01*
X017040Y022620D01*
X017040Y022725D02*
X014020Y022725D01*
X012980Y022725D02*
X009311Y022725D01*
X009250Y022220D02*
X024250Y022220D01*
X024133Y021771D02*
X022515Y021771D01*
X022923Y021533D02*
X023577Y021533D01*
X024520Y021294D02*
X024610Y021294D01*
X024520Y021056D02*
X027408Y021056D01*
X027391Y021096D02*
X027483Y020874D01*
X027637Y020720D01*
X027483Y020566D01*
X027390Y020341D01*
X027390Y020099D01*
X027483Y019874D01*
X027600Y019757D01*
X027494Y019863D02*
X024378Y019863D01*
X024520Y020102D02*
X027390Y020102D01*
X027390Y020340D02*
X024520Y020340D01*
X024377Y020579D02*
X027496Y020579D01*
X027540Y020817D02*
X024332Y020817D01*
X023480Y020340D02*
X011186Y020340D01*
X010947Y020102D02*
X023480Y020102D01*
X023622Y019863D02*
X010709Y019863D01*
X010000Y019720D02*
X012000Y021720D01*
X022000Y021720D01*
X020531Y023679D02*
X019351Y023679D01*
X019110Y023679D02*
X019110Y023679D01*
X019110Y023918D02*
X019110Y023918D01*
X019110Y024156D02*
X019110Y024156D01*
X019110Y024395D02*
X019110Y024395D01*
X019110Y024633D02*
X019110Y024633D01*
X019110Y024872D02*
X019110Y024872D01*
X019110Y025110D02*
X019110Y025110D01*
X019475Y025110D02*
X020440Y025110D01*
X020317Y024872D02*
X019614Y024872D01*
X019630Y024633D02*
X020310Y024633D01*
X020310Y024395D02*
X019630Y024395D01*
X019630Y024156D02*
X020310Y024156D01*
X020354Y023918D02*
X019580Y023918D01*
X018980Y022725D02*
X017960Y022725D01*
X021340Y025110D02*
X021980Y025110D01*
X024414Y026541D02*
X026755Y026541D01*
X026517Y026303D02*
X024520Y026303D01*
X023605Y029880D02*
X005994Y029880D01*
X005885Y030119D02*
X023480Y030119D01*
X023480Y030357D02*
X005727Y030357D01*
X005520Y030596D02*
X023640Y030596D01*
X029639Y030596D02*
X043230Y030596D01*
X043269Y030641D02*
X043269Y030641D01*
X046194Y028449D02*
X046212Y028449D01*
X046212Y028211D02*
X046085Y028211D01*
X046212Y027972D02*
X045881Y027972D01*
X045629Y027734D02*
X046212Y027734D01*
X046212Y027495D02*
X045230Y027495D01*
X046212Y027257D02*
X040029Y027257D01*
X031906Y022248D02*
X031038Y022248D01*
X030799Y022487D02*
X031668Y022487D01*
X031429Y022725D02*
X030561Y022725D01*
X027681Y017717D02*
X027562Y017717D01*
X027442Y017478D02*
X027324Y017478D01*
X027204Y017240D02*
X026255Y017240D01*
X028451Y015809D02*
X031846Y015809D01*
X031607Y016047D02*
X029893Y016047D01*
X029500Y015220D02*
X028000Y015220D01*
X028000Y013720D01*
X027000Y012720D01*
X026000Y013424D02*
X026000Y013424D01*
X026000Y013662D02*
X026000Y013662D01*
X026000Y013901D02*
X026000Y013901D01*
X025540Y013901D02*
X021419Y013901D01*
X021232Y013662D02*
X024957Y013662D01*
X024730Y013424D02*
X019150Y013424D01*
X019150Y013185D02*
X019230Y013185D01*
X019452Y013662D02*
X020548Y013662D01*
X020361Y013901D02*
X019639Y013901D01*
X019690Y014139D02*
X020310Y014139D01*
X020310Y014378D02*
X019690Y014378D01*
X019690Y014616D02*
X020310Y014616D01*
X020310Y014855D02*
X019690Y014855D01*
X019577Y015093D02*
X020423Y015093D01*
X021500Y015720D02*
X022000Y016220D01*
X021500Y015720D02*
X018500Y015720D01*
X017000Y017220D01*
X012500Y017220D01*
X012000Y017720D01*
X012000Y018720D01*
X012386Y019148D02*
X012614Y019148D01*
X013386Y019148D02*
X013712Y019148D01*
X014000Y019148D02*
X014000Y019148D01*
X014000Y019235D02*
X014000Y018720D01*
X014000Y018720D01*
X014000Y019235D01*
X014288Y019148D02*
X014614Y019148D01*
X014000Y018909D02*
X014000Y018909D01*
X014000Y018720D02*
X014000Y018205D01*
X014000Y018720D01*
X014000Y018720D01*
X014000Y018671D02*
X014000Y018671D01*
X014000Y018432D02*
X014000Y018432D01*
X014428Y018432D02*
X014497Y018432D01*
X014768Y018194D02*
X013232Y018194D01*
X013503Y018432D02*
X013572Y018432D01*
X012768Y018194D02*
X012400Y018194D01*
X012400Y017955D02*
X019669Y017955D01*
X019715Y018200D02*
X019285Y018200D01*
X018980Y018505D01*
X018980Y018935D01*
X019285Y019240D01*
X019715Y019240D01*
X020020Y018935D01*
X020020Y018505D01*
X019715Y018200D01*
X019908Y018194D02*
X018310Y018194D01*
X018536Y018432D02*
X019053Y018432D01*
X018980Y018671D02*
X018605Y018671D01*
X018577Y018909D02*
X018980Y018909D01*
X019192Y019148D02*
X018428Y019148D01*
X017572Y019148D02*
X017544Y019148D01*
X016456Y019148D02*
X016386Y019148D01*
X015614Y019148D02*
X015386Y019148D01*
X015232Y018194D02*
X015768Y018194D01*
X016232Y018194D02*
X016540Y018194D01*
X017460Y018194D02*
X017690Y018194D01*
X017308Y017478D02*
X018556Y017478D01*
X018530Y017240D02*
X017546Y017240D01*
X017785Y017001D02*
X018530Y017001D01*
X018530Y016763D02*
X018023Y016763D01*
X018262Y016524D02*
X018555Y016524D01*
X018500Y016286D02*
X018704Y016286D01*
X019516Y016286D02*
X020576Y016286D01*
X020400Y016524D02*
X019665Y016524D01*
X018393Y015332D02*
X017454Y015332D01*
X017216Y015570D02*
X018084Y015570D01*
X017846Y015809D02*
X016977Y015809D01*
X016739Y016047D02*
X017607Y016047D01*
X017369Y016286D02*
X016500Y016286D01*
X016262Y016524D02*
X017130Y016524D01*
X016892Y016763D02*
X016023Y016763D01*
X015750Y016470D02*
X018750Y013470D01*
X018750Y012470D01*
X019770Y013185D02*
X024730Y013185D01*
X024423Y012231D02*
X022555Y012231D01*
X022793Y011993D02*
X024662Y011993D01*
X024900Y011754D02*
X023032Y011754D01*
X023270Y011516D02*
X023560Y011516D01*
X023480Y011277D02*
X023400Y011277D01*
X023400Y011039D02*
X023480Y011039D01*
X023400Y010800D02*
X023685Y010800D01*
X023606Y010562D02*
X023400Y010562D01*
X023400Y010323D02*
X023480Y010323D01*
X023480Y010085D02*
X023400Y010085D01*
X022000Y010220D02*
X017000Y010220D01*
X015500Y011720D01*
X015900Y011886D02*
X015900Y012214D01*
X015959Y012205D01*
X016000Y012205D01*
X016041Y012205D01*
X016100Y012214D01*
X016100Y011686D01*
X015900Y011886D01*
X015900Y011993D02*
X016100Y011993D01*
X016000Y012205D02*
X016000Y012720D01*
X016000Y012720D01*
X016000Y013235D01*
X015959Y013235D01*
X015900Y013226D01*
X015900Y013800D01*
X015839Y013947D01*
X014477Y015309D01*
X014450Y015320D01*
X014584Y015320D01*
X016100Y013804D01*
X016100Y013226D01*
X016041Y013235D01*
X016000Y013235D01*
X016000Y012720D01*
X016000Y012720D01*
X016000Y012205D01*
X016000Y012231D02*
X016000Y012231D01*
X016000Y012470D02*
X016000Y012470D01*
X016000Y012708D02*
X016000Y012708D01*
X016000Y012947D02*
X016000Y012947D01*
X016000Y013185D02*
X016000Y013185D01*
X015900Y013424D02*
X016100Y013424D01*
X016100Y013662D02*
X015900Y013662D01*
X015858Y013901D02*
X016004Y013901D01*
X015765Y014139D02*
X015647Y014139D01*
X015527Y014378D02*
X015408Y014378D01*
X015288Y014616D02*
X015170Y014616D01*
X015050Y014855D02*
X014931Y014855D01*
X014811Y015093D02*
X014693Y015093D01*
X015750Y016470D02*
X012000Y016470D01*
X011000Y017470D01*
X011000Y018720D01*
X011386Y019148D02*
X011614Y019148D01*
X010000Y018720D02*
X010000Y019720D01*
X012569Y017717D02*
X018706Y017717D01*
X019947Y018432D02*
X020146Y018432D01*
X020020Y018671D02*
X020385Y018671D01*
X020480Y018909D02*
X020020Y018909D01*
X019808Y019148D02*
X020692Y019148D01*
X022520Y015093D02*
X023480Y015093D01*
X023630Y014855D02*
X022370Y014855D01*
X024370Y014855D02*
X027503Y014855D01*
X025139Y011516D02*
X024440Y011516D01*
X024520Y011277D02*
X025377Y011277D01*
X025616Y011039D02*
X024520Y011039D01*
X022600Y007461D02*
X021384Y007461D01*
X021410Y007223D02*
X022600Y007223D01*
X022670Y006984D02*
X021410Y006984D01*
X018981Y005315D02*
X005575Y005315D01*
X005672Y005076D02*
X018626Y005076D01*
X018588Y003884D02*
X012022Y003884D01*
X012110Y003645D02*
X018789Y003645D01*
X014475Y006507D02*
X007353Y006507D01*
X007888Y006746D02*
X014714Y006746D01*
X009987Y007938D02*
X002530Y007938D01*
X002530Y007700D02*
X005331Y007700D01*
X002765Y007461D02*
X002530Y007461D01*
X002530Y007223D02*
X002562Y007223D01*
X002530Y008177D02*
X009633Y008177D01*
X009429Y008415D02*
X002530Y008415D01*
X002530Y008654D02*
X009300Y008654D01*
X009236Y008892D02*
X002530Y008892D01*
X002530Y009131D02*
X009220Y009131D01*
X009242Y009369D02*
X002530Y009369D01*
X002530Y009608D02*
X009305Y009608D01*
X009441Y009846D02*
X005917Y009846D01*
X006038Y010085D02*
X009654Y010085D01*
X008913Y010323D02*
X006045Y010323D01*
X005950Y010562D02*
X008593Y010562D01*
X003667Y009846D02*
X002530Y009846D01*
X002530Y010085D02*
X003515Y010085D01*
X003515Y010323D02*
X002530Y010323D01*
X002530Y004599D02*
X003789Y004599D01*
X003881Y004361D02*
X002530Y004361D01*
X002530Y004122D02*
X004067Y004122D01*
X003397Y003884D02*
X002530Y003884D01*
X002530Y003645D02*
X003025Y003645D01*
X003019Y003641D02*
X003019Y003641D01*
X002816Y003407D02*
X002530Y003407D01*
X002530Y003168D02*
X002637Y003168D01*
X005103Y003884D02*
X008978Y003884D01*
X008890Y003645D02*
X007938Y003645D01*
X007500Y003220D02*
X009500Y003220D01*
X008922Y002691D02*
X007817Y002691D01*
X007183Y002691D02*
X006062Y002691D01*
X006097Y002453D02*
X009075Y002453D01*
X009925Y002453D02*
X010166Y002453D01*
X009287Y004122D02*
X005398Y004122D01*
X005475Y003645D02*
X007062Y003645D01*
X006917Y003407D02*
X005684Y003407D01*
X005863Y003168D02*
X006890Y003168D01*
X006960Y002930D02*
X005972Y002930D01*
X016032Y011754D02*
X016100Y011754D01*
X018408Y014378D02*
X018530Y014378D01*
X018530Y014616D02*
X018170Y014616D01*
X017931Y014855D02*
X018530Y014855D01*
X018643Y015093D02*
X017693Y015093D01*
X009250Y022220D02*
X008500Y022970D01*
X007925Y022964D02*
X007781Y022964D01*
X008075Y024395D02*
X008100Y024395D01*
X008100Y024633D02*
X008055Y024633D01*
X003520Y027495D02*
X002530Y027495D01*
X002530Y027734D02*
X003121Y027734D01*
X002869Y027972D02*
X002530Y027972D01*
X002530Y028211D02*
X002665Y028211D01*
X002556Y028449D02*
X002530Y028449D01*
D25*
X010500Y023220D03*
X027000Y029220D03*
M02*
